M48
; DRILL file {KiCad 8.0.5} date 2024-09-25T23:10:07-0400
; FORMAT={-:-/ absolute / metric / decimal}
; #@! TF.CreationDate,2024-09-25T23:10:07-04:00
; #@! TF.GenerationSoftware,Kicad,Pcbnew,8.0.5
; #@! TF.FileFunction,Plated,1,2,PTH
FMAT,2
METRIC
; #@! TA.AperFunction,Plated,PTH,ViaDrill
T1C0.300
; #@! TA.AperFunction,Plated,PTH,ComponentDrill
T2C0.500
; #@! TA.AperFunction,Plated,PTH,ComponentDrill
T3C0.800
; #@! TA.AperFunction,Plated,PTH,ComponentDrill
T4C1.000
%
G90
G05
T1
X97.912Y-85.892
X98.221Y-72.553
X98.274Y-71.754
X99.524Y-75.104
X101.574Y-86.954
X102.574Y-68.704
X102.724Y-78.204
X103.524Y-73.354
X105.015Y-75.414
X105.374Y-86.954
X105.851Y-55.864
X105.968Y-71.377
X105.974Y-59.404
X106.074Y-61.154
X106.174Y-70.604
X106.374Y-68.704
X106.424Y-67.104
X106.624Y-55.658
X107.044Y-59.384
X107.044Y-60.904
X107.274Y-76.054
X107.624Y-70.704
X109.074Y-72.104
X109.774Y-85.354
X109.874Y-56.254
X110.374Y-59.054
X110.374Y-60.254
X110.524Y-78.104
X110.574Y-67.154
X110.924Y-72.604
X111.274Y-68.804
X111.474Y-67.654
X112.024Y-63.804
X112.524Y-56.304
X112.624Y-74.704
X112.874Y-78.704
X113.424Y-73.554
X114.224Y-58.054
X114.474Y-67.754
X114.524Y-65.154
X114.574Y-86.754
X114.824Y-79.154
X115.624Y-78.154
X117.174Y-72.004
X117.849Y-68.904
X118.274Y-74.904
X119.474Y-64.204
X120.974Y-86.954
T3
X106.274Y-80.504
X106.274Y-83.704
X108.774Y-80.504
X108.774Y-83.704
X111.274Y-80.504
X111.274Y-83.704
T4
X95.874Y-68.654
X95.874Y-71.194
X95.874Y-73.734
X95.874Y-76.274
X104.504Y-58.054
X107.044Y-58.054
X109.584Y-58.054
X112.124Y-58.054
T2
G00X105.024Y-55.292
M15
G01X105.024Y-54.492
M16
G05
G00X112.424Y-55.292
M15
G01X112.424Y-54.492
M16
G05
M30
