%TF.GenerationSoftware,KiCad,Pcbnew,8.0.5*%
%TF.CreationDate,2024-09-25T23:10:08-04:00*%
%TF.ProjectId,kryptkey,6b727970-746b-4657-992e-6b696361645f,v0.1*%
%TF.SameCoordinates,Original*%
%TF.FileFunction,Copper,L1,Top*%
%TF.FilePolarity,Positive*%
%FSLAX46Y46*%
G04 Gerber Fmt 4.6, Leading zero omitted, Abs format (unit mm)*
G04 Created by KiCad (PCBNEW 8.0.5) date 2024-09-25 23:10:08*
%MOMM*%
%LPD*%
G01*
G04 APERTURE LIST*
G04 Aperture macros list*
%AMRoundRect*
0 Rectangle with rounded corners*
0 $1 Rounding radius*
0 $2 $3 $4 $5 $6 $7 $8 $9 X,Y pos of 4 corners*
0 Add a 4 corners polygon primitive as box body*
4,1,4,$2,$3,$4,$5,$6,$7,$8,$9,$2,$3,0*
0 Add four circle primitives for the rounded corners*
1,1,$1+$1,$2,$3*
1,1,$1+$1,$4,$5*
1,1,$1+$1,$6,$7*
1,1,$1+$1,$8,$9*
0 Add four rect primitives between the rounded corners*
20,1,$1+$1,$2,$3,$4,$5,0*
20,1,$1+$1,$4,$5,$6,$7,0*
20,1,$1+$1,$6,$7,$8,$9,0*
20,1,$1+$1,$8,$9,$2,$3,0*%
G04 Aperture macros list end*
%TA.AperFunction,Conductor*%
%ADD10C,0.200000*%
%TD*%
%TA.AperFunction,SMDPad,CuDef*%
%ADD11RoundRect,0.200000X-0.275000X0.200000X-0.275000X-0.200000X0.275000X-0.200000X0.275000X0.200000X0*%
%TD*%
%TA.AperFunction,SMDPad,CuDef*%
%ADD12RoundRect,0.200000X-0.200000X-0.275000X0.200000X-0.275000X0.200000X0.275000X-0.200000X0.275000X0*%
%TD*%
%TA.AperFunction,SMDPad,CuDef*%
%ADD13RoundRect,0.225000X0.225000X0.250000X-0.225000X0.250000X-0.225000X-0.250000X0.225000X-0.250000X0*%
%TD*%
%TA.AperFunction,SMDPad,CuDef*%
%ADD14RoundRect,0.225000X-0.225000X-0.250000X0.225000X-0.250000X0.225000X0.250000X-0.225000X0.250000X0*%
%TD*%
%TA.AperFunction,ComponentPad*%
%ADD15R,1.600000X1.600000*%
%TD*%
%TA.AperFunction,ComponentPad*%
%ADD16C,1.600000*%
%TD*%
%TA.AperFunction,SMDPad,CuDef*%
%ADD17RoundRect,0.375000X-0.625000X-0.375000X0.625000X-0.375000X0.625000X0.375000X-0.625000X0.375000X0*%
%TD*%
%TA.AperFunction,SMDPad,CuDef*%
%ADD18RoundRect,0.500000X-0.500000X-1.400000X0.500000X-1.400000X0.500000X1.400000X-0.500000X1.400000X0*%
%TD*%
%TA.AperFunction,SMDPad,CuDef*%
%ADD19RoundRect,0.200000X0.200000X0.275000X-0.200000X0.275000X-0.200000X-0.275000X0.200000X-0.275000X0*%
%TD*%
%TA.AperFunction,SMDPad,CuDef*%
%ADD20RoundRect,0.075000X-0.662500X-0.075000X0.662500X-0.075000X0.662500X0.075000X-0.662500X0.075000X0*%
%TD*%
%TA.AperFunction,SMDPad,CuDef*%
%ADD21RoundRect,0.075000X-0.075000X-0.662500X0.075000X-0.662500X0.075000X0.662500X-0.075000X0.662500X0*%
%TD*%
%TA.AperFunction,SMDPad,CuDef*%
%ADD22RoundRect,0.225000X0.250000X-0.225000X0.250000X0.225000X-0.250000X0.225000X-0.250000X-0.225000X0*%
%TD*%
%TA.AperFunction,SMDPad,CuDef*%
%ADD23R,1.400000X1.200000*%
%TD*%
%TA.AperFunction,SMDPad,CuDef*%
%ADD24RoundRect,0.218750X-0.256250X0.218750X-0.256250X-0.218750X0.256250X-0.218750X0.256250X0.218750X0*%
%TD*%
%TA.AperFunction,SMDPad,CuDef*%
%ADD25RoundRect,0.225000X-0.250000X0.225000X-0.250000X-0.225000X0.250000X-0.225000X0.250000X0.225000X0*%
%TD*%
%TA.AperFunction,ComponentPad*%
%ADD26R,1.700000X1.700000*%
%TD*%
%TA.AperFunction,ComponentPad*%
%ADD27O,1.700000X1.700000*%
%TD*%
%TA.AperFunction,SMDPad,CuDef*%
%ADD28RoundRect,0.200000X0.275000X-0.200000X0.275000X0.200000X-0.275000X0.200000X-0.275000X-0.200000X0*%
%TD*%
%TA.AperFunction,SMDPad,CuDef*%
%ADD29R,0.300000X0.800000*%
%TD*%
%TA.AperFunction,ComponentPad*%
%ADD30O,0.800000X1.600000*%
%TD*%
%TA.AperFunction,SMDPad,CuDef*%
%ADD31RoundRect,0.243750X-0.243750X-0.456250X0.243750X-0.456250X0.243750X0.456250X-0.243750X0.456250X0*%
%TD*%
%TA.AperFunction,ViaPad*%
%ADD32C,0.600000*%
%TD*%
%TA.AperFunction,Conductor*%
%ADD33C,0.300000*%
%TD*%
%ADD34C,0.300000*%
%ADD35C,0.350000*%
%ADD36O,0.500000X1.300000*%
G04 APERTURE END LIST*
D10*
%TO.N,GND*%
X121574380Y-66454380D02*
X121524380Y-69554380D01*
X118324380Y-71404380D01*
X114124380Y-71404380D01*
X114124380Y-69654380D01*
X117474380Y-69654380D01*
X117474380Y-66404380D01*
X121574380Y-66454380D01*
%TA.AperFunction,Conductor*%
G36*
X121574380Y-66454380D02*
G01*
X121524380Y-69554380D01*
X118324380Y-71404380D01*
X114124380Y-71404380D01*
X114124380Y-69654380D01*
X117474380Y-69654380D01*
X117474380Y-66404380D01*
X121574380Y-66454380D01*
G37*
%TD.AperFunction*%
%TO.N,+3V3*%
X122766880Y-79054380D02*
X121086880Y-79054380D01*
X121024380Y-76154380D01*
X118424380Y-73754380D01*
X114024380Y-73754380D01*
X114024380Y-72054380D01*
X118424380Y-72054380D01*
X121824380Y-70104380D01*
X122674380Y-70104380D01*
X122766880Y-79054380D01*
%TA.AperFunction,Conductor*%
G36*
X122766880Y-79054380D02*
G01*
X121086880Y-79054380D01*
X121024380Y-76154380D01*
X118424380Y-73754380D01*
X114024380Y-73754380D01*
X114024380Y-72054380D01*
X118424380Y-72054380D01*
X121824380Y-70104380D01*
X122674380Y-70104380D01*
X122766880Y-79054380D01*
G37*
%TD.AperFunction*%
%TD*%
D11*
%TO.P,R6,1*%
%TO.N,GND*%
X102824380Y-53404380D03*
%TO.P,R6,2*%
%TO.N,Net-(J3-CC1)*%
X102824380Y-55054380D03*
%TD*%
D12*
%TO.P,R2,1*%
%TO.N,/I2C1_SDA_OLED*%
X107749380Y-61954380D03*
%TO.P,R2,2*%
%TO.N,+3V3*%
X109399380Y-61954380D03*
%TD*%
D13*
%TO.P,C10,1*%
%TO.N,+3V3*%
X112074380Y-77166880D03*
%TO.P,C10,2*%
%TO.N,GND*%
X110524380Y-77166880D03*
%TD*%
D14*
%TO.P,C7,1*%
%TO.N,/HSE_OUT*%
X99486880Y-70604380D03*
%TO.P,C7,2*%
%TO.N,GND*%
X101036880Y-70604380D03*
%TD*%
D15*
%TO.P,SW4,1,A*%
%TO.N,GND*%
X111274380Y-83704380D03*
D16*
%TO.P,SW4,2,B*%
%TO.N,/SW_BOOT0*%
X108774380Y-83704380D03*
%TO.P,SW4,3,C*%
%TO.N,+3V3*%
X106274380Y-83704380D03*
%TO.P,SW4,4*%
%TO.N,N/C*%
X111274380Y-80504380D03*
%TO.P,SW4,5*%
X108774380Y-80504380D03*
%TO.P,SW4,6*%
X106274380Y-80504380D03*
%TD*%
D12*
%TO.P,R1,1*%
%TO.N,/I2C1_SCL_OLED*%
X107774380Y-63604380D03*
%TO.P,R1,2*%
%TO.N,+3V3*%
X109424380Y-63604380D03*
%TD*%
D17*
%TO.P,U1,1,GND*%
%TO.N,GND*%
X115174380Y-70304380D03*
%TO.P,U1,2,VO*%
%TO.N,+3V3*%
X115174380Y-72604380D03*
D18*
X121474380Y-72604380D03*
D17*
%TO.P,U1,3,VI*%
%TO.N,VBUS*%
X115174380Y-74904380D03*
%TD*%
D19*
%TO.P,R5,1*%
%TO.N,/USB_D+*%
X116224380Y-64354380D03*
%TO.P,R5,2*%
%TO.N,+3V3*%
X114574380Y-64354380D03*
%TD*%
D14*
%TO.P,C3,1*%
%TO.N,+3V3*%
X104374380Y-62254380D03*
%TO.P,C3,2*%
%TO.N,GND*%
X105924380Y-62254380D03*
%TD*%
D20*
%TO.P,U2,1,VBAT*%
%TO.N,+3V3*%
X104511880Y-67116880D03*
%TO.P,U2,2,PC13*%
%TO.N,unconnected-(U2-PC13-Pad2)*%
X104511880Y-67616880D03*
%TO.P,U2,3,PC14*%
%TO.N,unconnected-(U2-PC14-Pad3)*%
X104511880Y-68116880D03*
%TO.P,U2,4,PC15*%
%TO.N,unconnected-(U2-PC15-Pad4)*%
X104511880Y-68616880D03*
%TO.P,U2,5,PD0*%
%TO.N,/HSE_IN*%
X104511880Y-69116880D03*
%TO.P,U2,6,PD1*%
%TO.N,/HSE_OUT*%
X104511880Y-69616880D03*
%TO.P,U2,7,NRST*%
%TO.N,/NRST*%
X104511880Y-70116880D03*
%TO.P,U2,8,VSSA*%
%TO.N,GND*%
X104511880Y-70616880D03*
%TO.P,U2,9,VDDA*%
%TO.N,+3V3_A*%
X104511880Y-71116880D03*
%TO.P,U2,10,PA0*%
%TO.N,unconnected-(U2-PA0-Pad10)*%
X104511880Y-71616880D03*
%TO.P,U2,11,PA1*%
%TO.N,unconnected-(U2-PA1-Pad11)*%
X104511880Y-72116880D03*
%TO.P,U2,12,PA2*%
%TO.N,unconnected-(U2-PA2-Pad12)*%
X104511880Y-72616880D03*
D21*
%TO.P,U2,13,PA3*%
%TO.N,unconnected-(U2-PA3-Pad13)*%
X105924380Y-74029380D03*
%TO.P,U2,14,PA4*%
%TO.N,/UI_DOWN_BUTTON*%
X106424380Y-74029380D03*
%TO.P,U2,15,PA5*%
%TO.N,/UI_ENTER_BUTTON*%
X106924380Y-74029380D03*
%TO.P,U2,16,PA6*%
%TO.N,/UI_UP_BUTTON*%
X107424380Y-74029380D03*
%TO.P,U2,17,PA7*%
%TO.N,unconnected-(U2-PA7-Pad17)*%
X107924380Y-74029380D03*
%TO.P,U2,18,PB0*%
%TO.N,unconnected-(U2-PB0-Pad18)*%
X108424380Y-74029380D03*
%TO.P,U2,19,PB1*%
%TO.N,unconnected-(U2-PB1-Pad19)*%
X108924380Y-74029380D03*
%TO.P,U2,20,PB2*%
%TO.N,unconnected-(U2-PB2-Pad20)*%
X109424380Y-74029380D03*
%TO.P,U2,21,PB10*%
%TO.N,unconnected-(U2-PB10-Pad21)*%
X109924380Y-74029380D03*
%TO.P,U2,22,PB11*%
%TO.N,unconnected-(U2-PB11-Pad22)*%
X110424380Y-74029380D03*
%TO.P,U2,23,VSS*%
%TO.N,GND*%
X110924380Y-74029380D03*
%TO.P,U2,24,VDD*%
%TO.N,+3V3*%
X111424380Y-74029380D03*
D20*
%TO.P,U2,25,PB12*%
%TO.N,unconnected-(U2-PB12-Pad25)*%
X112836880Y-72616880D03*
%TO.P,U2,26,PB13*%
%TO.N,unconnected-(U2-PB13-Pad26)*%
X112836880Y-72116880D03*
%TO.P,U2,27,PB14*%
%TO.N,unconnected-(U2-PB14-Pad27)*%
X112836880Y-71616880D03*
%TO.P,U2,28,PB15*%
%TO.N,unconnected-(U2-PB15-Pad28)*%
X112836880Y-71116880D03*
%TO.P,U2,29,PA8*%
%TO.N,unconnected-(U2-PA8-Pad29)*%
X112836880Y-70616880D03*
%TO.P,U2,30,PA9*%
%TO.N,unconnected-(U2-PA9-Pad30)*%
X112836880Y-70116880D03*
%TO.P,U2,31,PA10*%
%TO.N,unconnected-(U2-PA10-Pad31)*%
X112836880Y-69616880D03*
%TO.P,U2,32,PA11*%
%TO.N,/USB_D-*%
X112836880Y-69116880D03*
%TO.P,U2,33,PA12*%
%TO.N,/USB_D+*%
X112836880Y-68616880D03*
%TO.P,U2,34,PA13*%
%TO.N,/SWDIO*%
X112836880Y-68116880D03*
%TO.P,U2,35,VSS*%
%TO.N,GND*%
X112836880Y-67616880D03*
%TO.P,U2,36,VDD*%
%TO.N,+3V3*%
X112836880Y-67116880D03*
D21*
%TO.P,U2,37,PA14*%
%TO.N,/SWCLK*%
X111424380Y-65704380D03*
%TO.P,U2,38,PA15*%
%TO.N,unconnected-(U2-PA15-Pad38)*%
X110924380Y-65704380D03*
%TO.P,U2,39,PB3*%
%TO.N,unconnected-(U2-PB3-Pad39)*%
X110424380Y-65704380D03*
%TO.P,U2,40,PB4*%
%TO.N,unconnected-(U2-PB4-Pad40)*%
X109924380Y-65704380D03*
%TO.P,U2,41,PB5*%
%TO.N,unconnected-(U2-PB5-Pad41)*%
X109424380Y-65704380D03*
%TO.P,U2,42,PB6*%
%TO.N,/I2C1_SCL_OLED*%
X108924380Y-65704380D03*
%TO.P,U2,43,PB7*%
%TO.N,/I2C1_SDA_OLED*%
X108424380Y-65704380D03*
%TO.P,U2,44,BOOT0*%
%TO.N,/BOOT0*%
X107924380Y-65704380D03*
%TO.P,U2,45,PB8*%
%TO.N,unconnected-(U2-PB8-Pad45)*%
X107424380Y-65704380D03*
%TO.P,U2,46,PB9*%
%TO.N,unconnected-(U2-PB9-Pad46)*%
X106924380Y-65704380D03*
%TO.P,U2,47,VSS*%
%TO.N,GND*%
X106424380Y-65704380D03*
%TO.P,U2,48,VDD*%
%TO.N,+3V3*%
X105924380Y-65704380D03*
%TD*%
D22*
%TO.P,C8,1*%
%TO.N,+3V3*%
X112974380Y-65354380D03*
%TO.P,C8,2*%
%TO.N,GND*%
X112974380Y-63804380D03*
%TD*%
D23*
%TO.P,Y1,1,1*%
%TO.N,/HSE_IN*%
X101136880Y-66966880D03*
%TO.P,Y1,2,2*%
%TO.N,GND*%
X98936880Y-66966880D03*
%TO.P,Y1,3,3*%
%TO.N,/HSE_OUT*%
X98936880Y-68666880D03*
%TO.P,Y1,4,4*%
%TO.N,GND*%
X101136880Y-68666880D03*
%TD*%
D24*
%TO.P,FB1,1*%
%TO.N,+3V3_A*%
X104624380Y-76979380D03*
%TO.P,FB1,2*%
%TO.N,+3V3*%
X104624380Y-78554380D03*
%TD*%
D25*
%TO.P,C2,1*%
%TO.N,+3V3*%
X120324380Y-65354380D03*
%TO.P,C2,2*%
%TO.N,GND*%
X120324380Y-66904380D03*
%TD*%
D26*
%TO.P,J2,1,Pin_1*%
%TO.N,+3V3*%
X95874380Y-76274380D03*
D27*
%TO.P,J2,2,Pin_2*%
%TO.N,/SWDIO*%
X95874380Y-73734380D03*
%TO.P,J2,3,Pin_3*%
%TO.N,/SWCLK*%
X95874380Y-71194380D03*
%TO.P,J2,4,Pin_4*%
%TO.N,GND*%
X95874380Y-68654380D03*
%TD*%
D25*
%TO.P,C12,1*%
%TO.N,+3V3_A*%
X102774380Y-75566880D03*
%TO.P,C12,2*%
%TO.N,GND*%
X102774380Y-77116880D03*
%TD*%
D28*
%TO.P,R4,1*%
%TO.N,/SW_BOOT0*%
X114324380Y-84154380D03*
%TO.P,R4,2*%
%TO.N,/BOOT0*%
X114324380Y-82504380D03*
%TD*%
D26*
%TO.P,J1,1,Pin_1*%
%TO.N,GND*%
X112124380Y-58054380D03*
D27*
%TO.P,J1,2,Pin_2*%
%TO.N,+3V3*%
X109584380Y-58054380D03*
%TO.P,J1,3,Pin_3*%
%TO.N,/I2C1_SCL_OLED*%
X107044380Y-58054380D03*
%TO.P,J1,4,Pin_4*%
%TO.N,/I2C1_SDA_OLED*%
X104504380Y-58054380D03*
%TD*%
D22*
%TO.P,C9,1*%
%TO.N,+3V3*%
X102524380Y-65204380D03*
%TO.P,C9,2*%
%TO.N,GND*%
X102524380Y-63654380D03*
%TD*%
%TO.P,C13,1*%
%TO.N,+3V3*%
X107274380Y-78604380D03*
%TO.P,C13,2*%
%TO.N,GND*%
X107274380Y-77054380D03*
%TD*%
D12*
%TO.P,R3,1*%
%TO.N,GND*%
X116774380Y-78204380D03*
%TO.P,R3,2*%
%TO.N,/PWR_LED_K*%
X118424380Y-78204380D03*
%TD*%
D29*
%TO.P,J3,A1,GND_A*%
%TO.N,GND*%
X105849380Y-54691880D03*
%TO.P,J3,A2,SSTXP1*%
%TO.N,unconnected-(J3-SSTXP1-PadA2)*%
X106349380Y-54691880D03*
%TO.P,J3,A3,SSTXN1*%
%TO.N,unconnected-(J3-SSTXN1-PadA3)*%
X106849380Y-54691880D03*
%TO.P,J3,A4,VBUS_A*%
%TO.N,VBUS*%
X107349380Y-54691880D03*
%TO.P,J3,A5,CC1*%
%TO.N,Net-(J3-CC1)*%
X107849380Y-54691880D03*
%TO.P,J3,A6,DP1*%
%TO.N,/USB_D+*%
X108349380Y-54691880D03*
%TO.P,J3,A7,DN1*%
%TO.N,/USB_D-*%
X108849380Y-54691880D03*
%TO.P,J3,A8,SBU1*%
%TO.N,unconnected-(J3-SBU1-PadA8)*%
X109349380Y-54691880D03*
%TO.P,J3,A9,VBUS_A*%
%TO.N,VBUS*%
X109849380Y-54691880D03*
%TO.P,J3,A10,SSRXN2*%
%TO.N,unconnected-(J3-SSRXN2-PadA10)*%
X110349380Y-54691880D03*
%TO.P,J3,A11,SSRXP2*%
%TO.N,unconnected-(J3-SSRXP2-PadA11)*%
X110849380Y-54691880D03*
%TO.P,J3,A12,GND_A*%
%TO.N,GND*%
X111349380Y-54691880D03*
%TO.P,J3,B1,GND_B*%
%TO.N,unconnected-(J3-GND_B-PadB1)_1*%
X111599380Y-53191880D03*
%TO.P,J3,B2,SSTXP2*%
%TO.N,unconnected-(J3-SSTXP2-PadB2)*%
X111099380Y-53191880D03*
%TO.P,J3,B3,SSTXN2*%
%TO.N,unconnected-(J3-SSTXN2-PadB3)*%
X110599380Y-53191880D03*
%TO.P,J3,B4,VBUS_B*%
%TO.N,unconnected-(J3-VBUS_B-PadB4)_1*%
X110099380Y-53191880D03*
%TO.P,J3,B5,CC2*%
%TO.N,unconnected-(J3-CC2-PadB5)*%
X109599380Y-53191880D03*
%TO.P,J3,B6,DP2*%
%TO.N,unconnected-(J3-DP2-PadB6)*%
X109099380Y-53191880D03*
%TO.P,J3,B7,DN2*%
%TO.N,unconnected-(J3-DN2-PadB7)*%
X108599380Y-53191880D03*
%TO.P,J3,B8,SBU2*%
%TO.N,unconnected-(J3-SBU2-PadB8)*%
X108099380Y-53191880D03*
%TO.P,J3,B9,VBUS_B*%
%TO.N,unconnected-(J3-VBUS_B-PadB4)*%
X107599380Y-53191880D03*
%TO.P,J3,B10,SSRXN1*%
%TO.N,unconnected-(J3-SSRXN1-PadB10)*%
X107099380Y-53191880D03*
%TO.P,J3,B11,SSRXP1*%
%TO.N,unconnected-(J3-SSRXP1-PadB11)*%
X106599380Y-53191880D03*
%TO.P,J3,B12,GND_B*%
%TO.N,unconnected-(J3-GND_B-PadB1)*%
X106099380Y-53191880D03*
D30*
%TO.P,J3,S1,SHELL_GND*%
%TO.N,unconnected-(J3-SHELL_GND-PadS1)*%
X112424380Y-54891880D03*
%TO.P,J3,S2,SHELL_GND*%
%TO.N,unconnected-(J3-SHELL_GND-PadS1)_1*%
X105024380Y-54891880D03*
%TD*%
D13*
%TO.P,C4,1*%
%TO.N,/NRST*%
X101074380Y-74004380D03*
%TO.P,C4,2*%
%TO.N,GND*%
X99524380Y-74004380D03*
%TD*%
D25*
%TO.P,C1,1*%
%TO.N,VBUS*%
X118724380Y-65354380D03*
%TO.P,C1,2*%
%TO.N,GND*%
X118724380Y-66904380D03*
%TD*%
D13*
%TO.P,C5,1*%
%TO.N,/HSE_IN*%
X100836880Y-65266880D03*
%TO.P,C5,2*%
%TO.N,GND*%
X99286880Y-65266880D03*
%TD*%
D12*
%TO.P,R3,1*%
%TO.N,+3V3*%
X114549380Y-65954380D03*
%TO.P,R3,2*%
%TO.N,/USB_D+*%
X116199380Y-65954380D03*
%TD*%
D31*
%TO.P,D1,1,K*%
%TO.N,/PWR_LED_K*%
X120149380Y-78104380D03*
%TO.P,D1,2,A*%
%TO.N,+3V3*%
X122024380Y-78104380D03*
%TD*%
D25*
%TO.P,C11,1*%
%TO.N,+3V3_A*%
X102674380Y-71166880D03*
%TO.P,C11,2*%
%TO.N,GND*%
X102674380Y-72716880D03*
%TD*%
D14*
%TO.P,C6,1*%
%TO.N,+3V3*%
X104374380Y-63904380D03*
%TO.P,C6,2*%
%TO.N,GND*%
X105924380Y-63904380D03*
%TD*%
D32*
%TO.N,+3V3*%
X120974380Y-86954380D03*
%TO.N,/UI_UP_BUTTON*%
X114574380Y-86754380D03*
%TO.N,+3V3*%
X109774380Y-85354380D03*
%TO.N,/UI_ENTER_BUTTON*%
X105374380Y-86954380D03*
%TO.N,+3V3*%
X101574380Y-86954380D03*
%TO.N,/UI_DOWN_BUTTON*%
X97911880Y-85891880D03*
%TO.N,GND*%
X106174380Y-70604380D03*
X112024380Y-63804380D03*
X110924380Y-72604380D03*
X106374380Y-68704380D03*
X99524380Y-75104380D03*
X117849380Y-68904380D03*
X105851149Y-55863614D03*
X107274380Y-76054380D03*
X111474380Y-67654380D03*
X114474380Y-67754380D03*
X110524380Y-78104380D03*
X114224380Y-58054380D03*
X102724380Y-78204380D03*
X103524380Y-73354380D03*
X106424380Y-67104380D03*
X102574380Y-68704380D03*
X115624380Y-78154380D03*
%TO.N,+3V3*%
X112624380Y-74704380D03*
X117174380Y-72004380D03*
X110374380Y-59054360D03*
X113424380Y-73554380D03*
X114524380Y-65154380D03*
X110374380Y-60254380D03*
%TO.N,VBUS*%
X109874380Y-56254380D03*
X112524380Y-56304380D03*
X106624380Y-55658395D03*
X118274380Y-74904380D03*
X119474380Y-64204380D03*
%TO.N,/SWDIO*%
X111274380Y-68804380D03*
X98221165Y-72552611D03*
%TO.N,/SWCLK*%
X110574380Y-67154380D03*
X98274380Y-71754380D03*
%TO.N,/I2C1_SCL_OLED*%
X107044380Y-59384380D03*
X107044380Y-60904380D03*
%TO.N,/I2C1_SDA_OLED*%
X105974380Y-59404380D03*
X106074380Y-61154380D03*
%TO.N,/UI_UP_BUTTON*%
X112874380Y-78704380D03*
X114824380Y-79154380D03*
%TO.N,+3V3_A*%
X105014760Y-75414000D03*
X109074380Y-72104380D03*
X107624380Y-70704380D03*
X105968249Y-71377371D03*
%TD*%
D33*
%TO.N,/UI_UP_BUTTON*%
X115374380Y-79704380D02*
X114824380Y-79154380D01*
X115374380Y-85954380D02*
X115374380Y-79704380D01*
X114574380Y-86754380D02*
X115374380Y-85954380D01*
%TO.N,+3V3*%
X120974380Y-85229380D02*
X122024380Y-84179380D01*
X120974380Y-86954380D02*
X120974380Y-85229380D01*
X112574380Y-88154380D02*
X109774380Y-85354380D01*
X119774380Y-88154380D02*
X112574380Y-88154380D01*
X120974380Y-86954380D02*
X119774380Y-88154380D01*
X122024380Y-84179380D02*
X122024380Y-78104380D01*
X106974380Y-88154380D02*
X101824380Y-88154380D01*
X109774380Y-85354380D02*
X106974380Y-88154380D01*
X109774380Y-85354380D02*
X107924380Y-85354380D01*
X107924380Y-85354380D02*
X106274380Y-83704380D01*
%TO.N,/UI_ENTER_BUTTON*%
X106924380Y-75304380D02*
X106924380Y-74029380D01*
X106624380Y-75604380D02*
X106924380Y-75304380D01*
X106624380Y-76409972D02*
X106624380Y-75604380D01*
X103799380Y-78093984D02*
X104126484Y-77766880D01*
X103799380Y-84404380D02*
X103799380Y-78093984D01*
X105267472Y-77766880D02*
X106624380Y-76409972D01*
X105374380Y-85979380D02*
X103799380Y-84404380D01*
X104126484Y-77766880D02*
X105267472Y-77766880D01*
X105374380Y-86954380D02*
X105374380Y-85979380D01*
%TO.N,+3V3*%
X101574380Y-86954380D02*
X101574380Y-87904380D01*
X101574380Y-87904380D02*
X101824380Y-88154380D01*
%TO.N,/UI_DOWN_BUTTON*%
X106424380Y-75054380D02*
X106424380Y-74029380D01*
X106361880Y-75116880D02*
X106424380Y-75054380D01*
X105636880Y-75116880D02*
X106361880Y-75116880D01*
X105024380Y-74504380D02*
X105636880Y-75116880D01*
X97911880Y-85891880D02*
X100724380Y-83079380D01*
X100724380Y-83079380D02*
X100724380Y-76322472D01*
X102542472Y-74504380D02*
X105024380Y-74504380D01*
X100724380Y-76322472D02*
X102542472Y-74504380D01*
%TO.N,GND*%
X105924380Y-63904380D02*
X105924380Y-64363760D01*
X111349380Y-53991880D02*
X111299380Y-53941880D01*
X102774380Y-78154380D02*
X102724380Y-78204380D01*
X102636880Y-72754380D02*
X101024380Y-72754380D01*
X105983760Y-67104380D02*
X106424380Y-67104380D01*
X101024380Y-70616880D02*
X101036880Y-70604380D01*
X110524380Y-78254380D02*
X110524380Y-78104380D01*
X103671260Y-70616880D02*
X103421260Y-70366880D01*
X98936880Y-66966880D02*
X99036880Y-66966880D01*
X101024380Y-72754380D02*
X101024380Y-70616880D01*
X102574380Y-68679380D02*
X102574380Y-68704380D01*
X116774380Y-78154380D02*
X115624380Y-78154380D01*
X102524380Y-63654380D02*
X102533760Y-63654380D01*
X111299380Y-53941880D02*
X105711880Y-53941880D01*
X101136880Y-68666880D02*
X102561880Y-68666880D01*
X99286880Y-66616880D02*
X98936880Y-66966880D01*
D10*
X105874380Y-55840383D02*
X105851149Y-55863614D01*
D33*
X100736880Y-68666880D02*
X101136880Y-68666880D01*
X104511880Y-70616880D02*
X106161880Y-70616880D01*
X110924380Y-76766880D02*
X110924380Y-74029380D01*
X114336880Y-67616880D02*
X114474380Y-67754380D01*
X111349380Y-54691880D02*
X111349380Y-53991880D01*
X102674380Y-72716880D02*
X102636880Y-72754380D01*
X106424380Y-64863760D02*
X106424380Y-65704380D01*
X105711880Y-53941880D02*
X105174380Y-53404380D01*
D10*
X105874380Y-55604380D02*
X105874380Y-55840383D01*
D33*
X104511880Y-70616880D02*
X103671260Y-70616880D01*
X106424380Y-68654380D02*
X106374380Y-68704380D01*
X102524380Y-63654380D02*
X102574380Y-63654380D01*
X110924380Y-74029380D02*
X110924380Y-72604380D01*
X112836880Y-67616880D02*
X114336880Y-67616880D01*
X99286880Y-65266880D02*
X99286880Y-66616880D01*
X102574380Y-70366880D02*
X101274380Y-70366880D01*
X111349380Y-57279380D02*
X112124380Y-58054380D01*
X101136880Y-70266880D02*
X101036880Y-70366880D01*
D10*
X105849380Y-54691880D02*
X105849380Y-55579380D01*
D33*
X99036880Y-66966880D02*
X100736880Y-68666880D01*
X103421260Y-70366880D02*
X102574380Y-70366880D01*
X111349380Y-54691880D02*
X111349380Y-57279380D01*
X102561880Y-68666880D02*
X102574380Y-68679380D01*
X112974380Y-63804380D02*
X112024380Y-63804380D01*
D10*
X105849380Y-55579380D02*
X105874380Y-55604380D01*
D33*
X107274380Y-77054380D02*
X107274380Y-76054380D01*
X106424380Y-67104380D02*
X106424380Y-68654380D01*
X102674380Y-72716880D02*
X102886880Y-72716880D01*
X102774380Y-77116880D02*
X102774380Y-78154380D01*
X105924380Y-64363760D02*
X106177500Y-64616880D01*
X105924380Y-62254380D02*
X105924380Y-63904380D01*
X110524380Y-77166880D02*
X110924380Y-76766880D01*
X105174380Y-53404380D02*
X102824380Y-53404380D01*
X101274380Y-70366880D02*
X101036880Y-70604380D01*
D10*
X99524380Y-74004380D02*
X99524380Y-75104380D01*
D33*
X112124380Y-58054380D02*
X114224380Y-58054380D01*
X110524380Y-77166880D02*
X110524380Y-78104380D01*
X111511880Y-67616880D02*
X111474380Y-67654380D01*
X112836880Y-67616880D02*
X111511880Y-67616880D01*
X106177500Y-64616880D02*
X106424380Y-64863760D01*
X102886880Y-72716880D02*
X103524380Y-73354380D01*
X106424380Y-65704380D02*
X106424380Y-67104380D01*
X106161880Y-70616880D02*
X106174380Y-70604380D01*
X116774380Y-78204380D02*
X116774380Y-78154380D01*
X102533760Y-63654380D02*
X105983760Y-67104380D01*
D10*
%TO.N,+3V3*%
X114549380Y-65179380D02*
X114524380Y-65154380D01*
D33*
X104511880Y-66391880D02*
X104511880Y-67116880D01*
X102524380Y-65204380D02*
X101699380Y-64379380D01*
X112974380Y-65354380D02*
X113799380Y-64529380D01*
X104624380Y-78554380D02*
X107224380Y-78554380D01*
X104374380Y-63904380D02*
X104374380Y-64154380D01*
X96074380Y-88154380D02*
X101824380Y-88154380D01*
X104374380Y-64154380D02*
X105924380Y-65704380D01*
X107224380Y-78554380D02*
X107274380Y-78604380D01*
X102524380Y-65204380D02*
X103324380Y-65204380D01*
X111424380Y-75654380D02*
X112024380Y-76254380D01*
X104374380Y-60904380D02*
X104374380Y-62254380D01*
X110374380Y-60254380D02*
X105024380Y-60254380D01*
X121113943Y-65354380D02*
X122324380Y-66564817D01*
X111424380Y-74029380D02*
X112099380Y-74704380D01*
X109584380Y-58054380D02*
X109584380Y-58264360D01*
X113799380Y-64529380D02*
X113799380Y-63329380D01*
X112974380Y-66979380D02*
X112836880Y-67116880D01*
X95874380Y-87954380D02*
X96074380Y-88154380D01*
X113424380Y-73554380D02*
X114224380Y-73554380D01*
D10*
X114549380Y-65954380D02*
X114549380Y-65179380D01*
D33*
X115174380Y-72604380D02*
X115174380Y-72404380D01*
X112974380Y-65354380D02*
X112974380Y-66979380D01*
X111424380Y-74029380D02*
X111424380Y-75654380D01*
X109424380Y-61954380D02*
X109399380Y-61954380D01*
X112024380Y-76554380D02*
X112074380Y-76604380D01*
X103324380Y-65204380D02*
X104511880Y-66391880D01*
X101699380Y-62679380D02*
X102124380Y-62254380D01*
D10*
X114574380Y-64354380D02*
X114574380Y-65104380D01*
D33*
X112099380Y-74704380D02*
X112624380Y-74704380D01*
X104374380Y-62254380D02*
X104374380Y-63904380D01*
X115174380Y-72404380D02*
X115724380Y-71854380D01*
X122324380Y-66564817D02*
X122324380Y-70650630D01*
X109584380Y-58264360D02*
X110374380Y-59054360D01*
X110724380Y-60254380D02*
X110374380Y-60254380D01*
D10*
X114574380Y-64354380D02*
X113974380Y-64354380D01*
D33*
X110374380Y-61004380D02*
X109424380Y-61954380D01*
X101699380Y-64379380D02*
X101699380Y-62679380D01*
X95874380Y-76274380D02*
X95874380Y-87954380D01*
X112024380Y-76254380D02*
X112024380Y-76554380D01*
X106274380Y-83704380D02*
X104624380Y-82054380D01*
X112074380Y-76604380D02*
X112074380Y-77166880D01*
X115724380Y-71854380D02*
X117174380Y-71854380D01*
X110374380Y-62654380D02*
X110374380Y-60254380D01*
X112849380Y-67104380D02*
X112836880Y-67116880D01*
D10*
X114574380Y-65104380D02*
X114524380Y-65154380D01*
D33*
X117174380Y-71854380D02*
X117174380Y-72004380D01*
X102124380Y-62254380D02*
X104374380Y-62254380D01*
X113799380Y-63329380D02*
X110724380Y-60254380D01*
X114224380Y-73554380D02*
X115174380Y-72604380D01*
X109424380Y-63604380D02*
X110374380Y-62654380D01*
X110424380Y-60304380D02*
X110374380Y-60254380D01*
X120324380Y-65354380D02*
X121113943Y-65354380D01*
X105024380Y-60254380D02*
X104374380Y-60904380D01*
X109174380Y-62254380D02*
X109174380Y-62204380D01*
X110374380Y-61004380D02*
X110374380Y-60254380D01*
X104624380Y-82054380D02*
X104624380Y-78554380D01*
D10*
X113974380Y-64354380D02*
X112974380Y-65354380D01*
D33*
%TO.N,/NRST*%
X106824380Y-71621570D02*
X106824380Y-70304380D01*
X106390000Y-69870000D02*
X105599380Y-69870000D01*
X104465000Y-74004380D02*
X105599380Y-72870000D01*
X106824380Y-70304380D02*
X106390000Y-69870000D01*
X105599380Y-72870000D02*
X105599380Y-72846570D01*
X105352500Y-70116880D02*
X104511880Y-70116880D01*
X105599380Y-72846570D02*
X106824380Y-71621570D01*
X105599380Y-69870000D02*
X105352500Y-70116880D01*
X101074380Y-74004380D02*
X104465000Y-74004380D01*
%TO.N,/HSE_IN*%
X103424380Y-68162190D02*
X102229070Y-66966880D01*
X104511880Y-69116880D02*
X103671260Y-69116880D01*
X102229070Y-66966880D02*
X101136880Y-66966880D01*
X103671260Y-69116880D02*
X103424380Y-68870000D01*
X100836880Y-66666880D02*
X101136880Y-66966880D01*
X100836880Y-65266880D02*
X100836880Y-66666880D01*
X103424380Y-68870000D02*
X103424380Y-68162190D01*
%TO.N,/HSE_OUT*%
X98936880Y-70054380D02*
X99486880Y-70604380D01*
X99886880Y-69616880D02*
X104511880Y-69616880D01*
X98936880Y-68666880D02*
X98936880Y-70054380D01*
X98936880Y-68666880D02*
X99886880Y-69616880D01*
%TO.N,VBUS*%
X119474380Y-64204380D02*
X119074380Y-64204380D01*
X109849380Y-56229380D02*
X109874380Y-56254380D01*
X118724380Y-65354380D02*
X118724380Y-64154380D01*
X118724380Y-64154380D02*
X114874380Y-60304380D01*
X107349380Y-55279380D02*
X106970365Y-55658395D01*
X118724380Y-64554380D02*
X118724380Y-65354380D01*
X115174380Y-74904380D02*
X118274380Y-74904380D01*
X109849380Y-54691880D02*
X109849380Y-56229380D01*
X113393619Y-56304380D02*
X112524380Y-56304380D01*
X118274380Y-74904380D02*
X118324380Y-74954380D01*
X114874380Y-60304380D02*
X114874380Y-57785141D01*
X119074380Y-64204380D02*
X118724380Y-64554380D01*
X107349380Y-54691880D02*
X107349380Y-55279380D01*
X106970365Y-55658395D02*
X106624380Y-55658395D01*
X114874380Y-57785141D02*
X113393619Y-56304380D01*
%TO.N,/PWR_LED_K*%
X118524380Y-78104380D02*
X118424380Y-78204380D01*
X120149380Y-78104380D02*
X118524380Y-78104380D01*
%TO.N,/SWDIO*%
X98224380Y-72504380D02*
X97104380Y-72504380D01*
X97104380Y-72504380D02*
X95874380Y-73734380D01*
X98221165Y-72552611D02*
X98224380Y-72549396D01*
X111961880Y-68116880D02*
X112836880Y-68116880D01*
X111274380Y-68804380D02*
X111961880Y-68116880D01*
X98224380Y-72549396D02*
X98224380Y-72504380D01*
%TO.N,/SWCLK*%
X98274380Y-71754380D02*
X97714380Y-71194380D01*
X97714380Y-71194380D02*
X95874380Y-71194380D01*
X111424380Y-66545000D02*
X111424380Y-65704380D01*
X110815000Y-67154380D02*
X111424380Y-66545000D01*
X110574380Y-67154380D02*
X110815000Y-67154380D01*
%TO.N,/I2C1_SCL_OLED*%
X107957738Y-60904380D02*
X108524380Y-61471022D01*
X108124380Y-63604380D02*
X107774380Y-63604380D01*
X107524380Y-63804380D02*
X107865000Y-63804380D01*
X108524380Y-61471022D02*
X108524380Y-62854380D01*
X107044380Y-60904380D02*
X107957738Y-60904380D01*
X107024380Y-59404380D02*
X107044380Y-59384380D01*
X108924380Y-64404380D02*
X108124380Y-63604380D01*
X108524380Y-62854380D02*
X107774380Y-63604380D01*
X108924380Y-65704380D02*
X108924380Y-64404380D01*
X107044380Y-58054380D02*
X107044380Y-59384380D01*
%TO.N,/I2C1_SDA_OLED*%
X108099380Y-64429380D02*
X107341022Y-64429380D01*
X104674380Y-58054380D02*
X105974380Y-59354380D01*
X104504380Y-58054380D02*
X104674380Y-58054380D01*
X107341022Y-64429380D02*
X107024380Y-64112738D01*
X106074380Y-61154380D02*
X106118788Y-61154380D01*
X106118788Y-61154380D02*
X106918788Y-61954380D01*
X107024380Y-62679380D02*
X107749380Y-61954380D01*
X105974380Y-59354380D02*
X105974380Y-59404380D01*
X107024380Y-64112738D02*
X107024380Y-62679380D01*
X108424380Y-65704380D02*
X108424380Y-64754380D01*
X106918788Y-61954380D02*
X107749380Y-61954380D01*
X108424380Y-64754380D02*
X108099380Y-64429380D01*
%TO.N,/BOOT0*%
X113824380Y-82004380D02*
X113824380Y-74945000D01*
X111574380Y-70195000D02*
X107924380Y-66545000D01*
X114324380Y-82504380D02*
X113824380Y-82004380D01*
X111574380Y-72695000D02*
X111574380Y-70195000D01*
X113824380Y-74945000D02*
X111574380Y-72695000D01*
X107924380Y-66545000D02*
X107924380Y-65704380D01*
%TO.N,/SW_BOOT0*%
X109924380Y-82554380D02*
X108774380Y-83704380D01*
X112724380Y-82554380D02*
X109924380Y-82554380D01*
X114324380Y-84154380D02*
X112724380Y-82554380D01*
D10*
%TO.N,/USB_D+*%
X112581158Y-59654360D02*
X109558014Y-59654360D01*
X112836880Y-68616880D02*
X113943131Y-68616880D01*
X114918680Y-68641880D02*
X116547082Y-67013478D01*
X108434380Y-58530726D02*
X108434380Y-56299276D01*
X108349380Y-54941880D02*
X108349380Y-54691880D01*
X116547082Y-67013478D02*
X116547082Y-63620284D01*
X109558014Y-59654360D02*
X108434380Y-58530726D01*
X116547082Y-63620284D02*
X112581158Y-59654360D01*
X108374380Y-54966880D02*
X108349380Y-54941880D01*
X113968131Y-68641880D02*
X114918680Y-68641880D01*
X108374380Y-56239276D02*
X108374380Y-54966880D01*
X113943131Y-68616880D02*
X113968131Y-68641880D01*
X108434380Y-56299276D02*
X108374380Y-56239276D01*
X112836880Y-68616880D02*
X112836880Y-68566880D01*
D33*
%TO.N,/UI_UP_BUTTON*%
X109024380Y-76470000D02*
X109024380Y-78704380D01*
X107424380Y-74029380D02*
X107424380Y-74870000D01*
X109074380Y-78754380D02*
X112824380Y-78754380D01*
X109024380Y-78704380D02*
X109074380Y-78754380D01*
X112824380Y-78754380D02*
X112874380Y-78704380D01*
X107424380Y-74870000D02*
X109024380Y-76470000D01*
D10*
%TO.N,/USB_D-*%
X108849380Y-54941880D02*
X108849380Y-54691880D01*
X116997082Y-67199878D02*
X116997082Y-63433884D01*
X116997082Y-63433884D02*
X112767578Y-59204380D01*
X110974380Y-59204380D02*
X110974380Y-57540776D01*
X112836880Y-69116880D02*
X113943131Y-69116880D01*
X108824380Y-54966880D02*
X108849380Y-54941880D01*
X108824380Y-56052909D02*
X108824380Y-54966880D01*
X113943131Y-69116880D02*
X113968131Y-69091880D01*
X112767578Y-59204380D02*
X110974380Y-59204380D01*
X110974380Y-57540776D02*
X110287984Y-56854380D01*
X115105080Y-69091880D02*
X116997082Y-67199878D01*
X112836880Y-69116880D02*
X112886880Y-69066880D01*
X109625851Y-56854380D02*
X108824380Y-56052909D01*
X110287984Y-56854380D02*
X109625851Y-56854380D01*
X113968131Y-69091880D02*
X115105080Y-69091880D01*
D33*
%TO.N,Net-(J3-CC1)*%
X106974380Y-56604380D02*
X107849380Y-55729380D01*
X104374380Y-56604380D02*
X106974380Y-56604380D01*
X107849380Y-55729380D02*
X107849380Y-54691880D01*
X102824380Y-55054380D02*
X104374380Y-56604380D01*
%TO.N,+3V3_A*%
X104624380Y-76979380D02*
X104624380Y-76404380D01*
X109024380Y-72104380D02*
X109074380Y-72104380D01*
X105014760Y-75414000D02*
X104624380Y-75804380D01*
X104624380Y-76404380D02*
X103786880Y-75566880D01*
X105767641Y-71116880D02*
X105974380Y-71323619D01*
X104511880Y-71116880D02*
X105767641Y-71116880D01*
X107624380Y-70704380D02*
X109024380Y-72104380D01*
X103786880Y-75566880D02*
X102774380Y-75566880D01*
X102724380Y-71116880D02*
X104511880Y-71116880D01*
X105974380Y-71323619D02*
X105974380Y-71371240D01*
X104624380Y-75804380D02*
X104624380Y-76404380D01*
X105974380Y-71371240D02*
X105968249Y-71377371D01*
X102674380Y-71166880D02*
X102724380Y-71116880D01*
%TD*%
%TA.AperFunction,Conductor*%
%TO.N,/UI_UP_BUTTON*%
G36*
X115101089Y-79043465D02*
G01*
X115106678Y-79048356D01*
X115350153Y-79464784D01*
X115351371Y-79473654D01*
X115348326Y-79478961D01*
X115148961Y-79678326D01*
X115140688Y-79681753D01*
X115134784Y-79680153D01*
X114718356Y-79436678D01*
X114712943Y-79429544D01*
X114713437Y-79422136D01*
X114821816Y-79158194D01*
X114828126Y-79151844D01*
X115092136Y-79043438D01*
X115101089Y-79043465D01*
G37*
%TD.AperFunction*%
%TD*%
%TA.AperFunction,Conductor*%
%TO.N,/UI_UP_BUTTON*%
G36*
X114898961Y-86230433D02*
G01*
X115098326Y-86429798D01*
X115101753Y-86438071D01*
X115100153Y-86443976D01*
X114856678Y-86860403D01*
X114849544Y-86865816D01*
X114842134Y-86865321D01*
X114578195Y-86756943D01*
X114571843Y-86750631D01*
X114571816Y-86750564D01*
X114463438Y-86486625D01*
X114463465Y-86477670D01*
X114468354Y-86472082D01*
X114884786Y-86228605D01*
X114893654Y-86227388D01*
X114898961Y-86230433D01*
G37*
%TD.AperFunction*%
%TD*%
%TA.AperFunction,Conductor*%
%TO.N,+3V3*%
G36*
X121123624Y-86357807D02*
G01*
X121126669Y-86363114D01*
X121248964Y-86829734D01*
X121247746Y-86838605D01*
X121242157Y-86843496D01*
X120978891Y-86953495D01*
X120969936Y-86953522D01*
X120969869Y-86953495D01*
X120706602Y-86843496D01*
X120700290Y-86837144D01*
X120699795Y-86829734D01*
X120822091Y-86363114D01*
X120827504Y-86355980D01*
X120833409Y-86354380D01*
X121115351Y-86354380D01*
X121123624Y-86357807D01*
G37*
%TD.AperFunction*%
%TD*%
%TA.AperFunction,Conductor*%
%TO.N,+3V3*%
G36*
X110051089Y-85243465D02*
G01*
X110056678Y-85248356D01*
X110300153Y-85664784D01*
X110301371Y-85673654D01*
X110298326Y-85678961D01*
X110098961Y-85878326D01*
X110090688Y-85881753D01*
X110084784Y-85880153D01*
X109668356Y-85636678D01*
X109662943Y-85629544D01*
X109663437Y-85622136D01*
X109771816Y-85358194D01*
X109778126Y-85351844D01*
X110042136Y-85243438D01*
X110051089Y-85243465D01*
G37*
%TD.AperFunction*%
%TD*%
%TA.AperFunction,Conductor*%
%TO.N,+3V3*%
G36*
X120706623Y-86843437D02*
G01*
X120889391Y-86918485D01*
X120970564Y-86951816D01*
X120976916Y-86958128D01*
X120976943Y-86958195D01*
X121085321Y-87222134D01*
X121085294Y-87231089D01*
X121080403Y-87236678D01*
X120663976Y-87480153D01*
X120655105Y-87481371D01*
X120649798Y-87478326D01*
X120450433Y-87278961D01*
X120447006Y-87270688D01*
X120448604Y-87264787D01*
X120692082Y-86848354D01*
X120699215Y-86842943D01*
X120706623Y-86843437D01*
G37*
%TD.AperFunction*%
%TD*%
%TA.AperFunction,Conductor*%
%TO.N,+3V3*%
G36*
X122031967Y-78112516D02*
G01*
X122033287Y-78113836D01*
X122488305Y-78648015D01*
X122491061Y-78656535D01*
X122489863Y-78660834D01*
X122177614Y-79285412D01*
X122170849Y-79291279D01*
X122167149Y-79291880D01*
X121881611Y-79291880D01*
X121873338Y-79288453D01*
X121871146Y-79285412D01*
X121558896Y-78660834D01*
X121558262Y-78651902D01*
X121560452Y-78648016D01*
X122015473Y-78113835D01*
X122023447Y-78109760D01*
X122031967Y-78112516D01*
G37*
%TD.AperFunction*%
%TD*%
%TA.AperFunction,Conductor*%
%TO.N,+3V3*%
G36*
X109506623Y-85243437D02*
G01*
X109689391Y-85318485D01*
X109770564Y-85351816D01*
X109776916Y-85358128D01*
X109776943Y-85358195D01*
X109885321Y-85622134D01*
X109885294Y-85631089D01*
X109880403Y-85636678D01*
X109463976Y-85880153D01*
X109455105Y-85881371D01*
X109449798Y-85878326D01*
X109250433Y-85678961D01*
X109247006Y-85670688D01*
X109248604Y-85664787D01*
X109492082Y-85248354D01*
X109499215Y-85242943D01*
X109506623Y-85243437D01*
G37*
%TD.AperFunction*%
%TD*%
%TA.AperFunction,Conductor*%
%TO.N,+3V3*%
G36*
X109658605Y-85081013D02*
G01*
X109663496Y-85086602D01*
X109773495Y-85349869D01*
X109773522Y-85358824D01*
X109773495Y-85358891D01*
X109663496Y-85622157D01*
X109657144Y-85628469D01*
X109649734Y-85628964D01*
X109183114Y-85506669D01*
X109175980Y-85501256D01*
X109174380Y-85495351D01*
X109174380Y-85213408D01*
X109177807Y-85205135D01*
X109183111Y-85202091D01*
X109649734Y-85079795D01*
X109658605Y-85081013D01*
G37*
%TD.AperFunction*%
%TD*%
%TA.AperFunction,Conductor*%
%TO.N,+3V3*%
G36*
X107011256Y-83402860D02*
G01*
X107017581Y-83409199D01*
X107017724Y-83409563D01*
X107509177Y-84722633D01*
X107508867Y-84731582D01*
X107506492Y-84735007D01*
X107305007Y-84936492D01*
X107296734Y-84939919D01*
X107292633Y-84939177D01*
X105979563Y-84447724D01*
X105973016Y-84441614D01*
X105972706Y-84432665D01*
X105972828Y-84432352D01*
X106271818Y-83708165D01*
X106278142Y-83701828D01*
X106278144Y-83701826D01*
X107002303Y-83402849D01*
X107011256Y-83402860D01*
G37*
%TD.AperFunction*%
%TD*%
%TA.AperFunction,Conductor*%
%TO.N,/UI_ENTER_BUTTON*%
G36*
X105523624Y-86357807D02*
G01*
X105526669Y-86363114D01*
X105648964Y-86829734D01*
X105647746Y-86838605D01*
X105642157Y-86843496D01*
X105378891Y-86953495D01*
X105369936Y-86953522D01*
X105369869Y-86953495D01*
X105106602Y-86843496D01*
X105100290Y-86837144D01*
X105099795Y-86829734D01*
X105222091Y-86363114D01*
X105227504Y-86355980D01*
X105233409Y-86354380D01*
X105515351Y-86354380D01*
X105523624Y-86357807D01*
G37*
%TD.AperFunction*%
%TD*%
%TA.AperFunction,Conductor*%
%TO.N,+3V3*%
G36*
X101815877Y-87054282D02*
G01*
X101842157Y-87065263D01*
X101848469Y-87071615D01*
X101848964Y-87079025D01*
X101726669Y-87545646D01*
X101721256Y-87552780D01*
X101715351Y-87554380D01*
X101433409Y-87554380D01*
X101425136Y-87550953D01*
X101422091Y-87545646D01*
X101299795Y-87079025D01*
X101301013Y-87070154D01*
X101306601Y-87065263D01*
X101569870Y-86955263D01*
X101578824Y-86955237D01*
X101815877Y-87054282D01*
G37*
%TD.AperFunction*%
%TD*%
%TA.AperFunction,Conductor*%
%TO.N,/UI_DOWN_BUTTON*%
G36*
X98236461Y-85367933D02*
G01*
X98435826Y-85567298D01*
X98439253Y-85575571D01*
X98437653Y-85581476D01*
X98194178Y-85997903D01*
X98187044Y-86003316D01*
X98179634Y-86002821D01*
X97915695Y-85894443D01*
X97909343Y-85888131D01*
X97909316Y-85888064D01*
X97800938Y-85624125D01*
X97800965Y-85615170D01*
X97805854Y-85609582D01*
X98222286Y-85366105D01*
X98231154Y-85364888D01*
X98236461Y-85367933D01*
G37*
%TD.AperFunction*%
%TD*%
%TA.AperFunction,Conductor*%
%TO.N,GND*%
G36*
X102344376Y-72291840D02*
G01*
X102669781Y-72709691D01*
X102672161Y-72718324D01*
X102669781Y-72724069D01*
X102343763Y-73142707D01*
X102335976Y-73147129D01*
X102330032Y-73146318D01*
X101756580Y-72907379D01*
X101750261Y-72901034D01*
X101749380Y-72896579D01*
X101749380Y-72611334D01*
X101752807Y-72603061D01*
X101755486Y-72601058D01*
X102329556Y-72288750D01*
X102338459Y-72287808D01*
X102344376Y-72291840D01*
G37*
%TD.AperFunction*%
%TD*%
%TA.AperFunction,Conductor*%
%TO.N,GND*%
G36*
X106419373Y-66808772D02*
G01*
X106424224Y-66816299D01*
X106424412Y-66818362D01*
X106425081Y-67102724D01*
X106424177Y-67107263D01*
X106314484Y-67369793D01*
X106308132Y-67376105D01*
X106299177Y-67376078D01*
X106298281Y-67375658D01*
X105779140Y-67105118D01*
X105773387Y-67098255D01*
X105774171Y-67089335D01*
X105776271Y-67086472D01*
X105974544Y-66888199D01*
X105980721Y-66884963D01*
X106410623Y-66806878D01*
X106419373Y-66808772D01*
G37*
%TD.AperFunction*%
%TD*%
%TA.AperFunction,Conductor*%
%TO.N,GND*%
G36*
X101044067Y-70608977D02*
G01*
X101462180Y-70934586D01*
X101466602Y-70942373D01*
X101465449Y-70949063D01*
X101177617Y-71522926D01*
X101170845Y-71528784D01*
X101167159Y-71529380D01*
X100881883Y-71529380D01*
X100873610Y-71525953D01*
X100871250Y-71522562D01*
X100803452Y-71374892D01*
X100607871Y-70948902D01*
X100607534Y-70939955D01*
X100611314Y-70934793D01*
X101029691Y-70608977D01*
X101038324Y-70606598D01*
X101044067Y-70608977D01*
G37*
%TD.AperFunction*%
%TD*%
%TA.AperFunction,Conductor*%
%TO.N,GND*%
G36*
X116446586Y-77790003D02*
G01*
X116615989Y-78003500D01*
X116768980Y-78196314D01*
X116771438Y-78204925D01*
X116768193Y-78211752D01*
X116413811Y-78575335D01*
X116405583Y-78578868D01*
X116399113Y-78577015D01*
X115979760Y-78307833D01*
X115974649Y-78300480D01*
X115974380Y-78297987D01*
X115974380Y-78011773D01*
X115977807Y-78003500D01*
X115981056Y-78001207D01*
X116432402Y-77786708D01*
X116441343Y-77786253D01*
X116446586Y-77790003D01*
G37*
%TD.AperFunction*%
%TD*%
%TA.AperFunction,Conductor*%
%TO.N,GND*%
G36*
X116215647Y-78002091D02*
G01*
X116222780Y-78007503D01*
X116224380Y-78013408D01*
X116224380Y-78295351D01*
X116220953Y-78303624D01*
X116215646Y-78306669D01*
X115749025Y-78428964D01*
X115740154Y-78427746D01*
X115735263Y-78422157D01*
X115724282Y-78395877D01*
X115625263Y-78158889D01*
X115625237Y-78149936D01*
X115625242Y-78149922D01*
X115735263Y-77886601D01*
X115741615Y-77880290D01*
X115749025Y-77879795D01*
X116215647Y-78002091D01*
G37*
%TD.AperFunction*%
%TD*%
%TA.AperFunction,Conductor*%
%TO.N,GND*%
G36*
X101844383Y-68072507D02*
G01*
X102432200Y-68513370D01*
X102436762Y-68521075D01*
X102436880Y-68522730D01*
X102436880Y-68811030D01*
X102433453Y-68819303D01*
X102432200Y-68820390D01*
X101844383Y-69261252D01*
X101835708Y-69263474D01*
X101829755Y-69260781D01*
X101146265Y-68675768D01*
X101142208Y-68667785D01*
X101144984Y-68659271D01*
X101146256Y-68657998D01*
X101829755Y-68072977D01*
X101838269Y-68070202D01*
X101844383Y-68072507D01*
G37*
%TD.AperFunction*%
%TD*%
%TA.AperFunction,Conductor*%
%TO.N,GND*%
G36*
X102569311Y-68408830D02*
G01*
X102574221Y-68416319D01*
X102574426Y-68418462D01*
X102575372Y-68702012D01*
X102574468Y-68706562D01*
X102463806Y-68971417D01*
X102457454Y-68977729D01*
X102449197Y-68977967D01*
X102448506Y-68977729D01*
X102408353Y-68963889D01*
X101989726Y-68819598D01*
X101983022Y-68813663D01*
X101981839Y-68808537D01*
X101981839Y-68526567D01*
X101985266Y-68518294D01*
X101991354Y-68515073D01*
X102560546Y-68407006D01*
X102569311Y-68408830D01*
G37*
%TD.AperFunction*%
%TD*%
%TA.AperFunction,Conductor*%
%TO.N,GND*%
G36*
X106058450Y-70331108D02*
G01*
X106063598Y-70336844D01*
X106173495Y-70599869D01*
X106173522Y-70608824D01*
X106173495Y-70608891D01*
X106063405Y-70872375D01*
X106057053Y-70878687D01*
X106049905Y-70879247D01*
X106041811Y-70877324D01*
X106041219Y-70877167D01*
X106040211Y-70876871D01*
X106039953Y-70876834D01*
X106038914Y-70876636D01*
X106021370Y-70872468D01*
X106015801Y-70869358D01*
X105982854Y-70836411D01*
X105982849Y-70836407D01*
X105902931Y-70790266D01*
X105902927Y-70790264D01*
X105813787Y-70766380D01*
X105813785Y-70766380D01*
X105588566Y-70766380D01*
X105580293Y-70762953D01*
X105576866Y-70754680D01*
X105576866Y-70475674D01*
X105580293Y-70467401D01*
X105585311Y-70464436D01*
X106049551Y-70330116D01*
X106058450Y-70331108D01*
G37*
%TD.AperFunction*%
%TD*%
%TA.AperFunction,Conductor*%
%TO.N,GND*%
G36*
X111165877Y-72704282D02*
G01*
X111192157Y-72715263D01*
X111198469Y-72721615D01*
X111198964Y-72729025D01*
X111076669Y-73195646D01*
X111071256Y-73202780D01*
X111065351Y-73204380D01*
X110783409Y-73204380D01*
X110775136Y-73200953D01*
X110772091Y-73195646D01*
X110649795Y-72729025D01*
X110651013Y-72720154D01*
X110656601Y-72715263D01*
X110919870Y-72605263D01*
X110928824Y-72605237D01*
X111165877Y-72704282D01*
G37*
%TD.AperFunction*%
%TD*%
%TA.AperFunction,Conductor*%
%TO.N,GND*%
G36*
X114470806Y-67457887D02*
G01*
X114474416Y-67466082D01*
X114474419Y-67466303D01*
X114475372Y-67752012D01*
X114474468Y-67756562D01*
X114364758Y-68019137D01*
X114358406Y-68025449D01*
X114349451Y-68025422D01*
X114348003Y-68024695D01*
X113918121Y-67770277D01*
X113912747Y-67763114D01*
X113912380Y-67760208D01*
X113912380Y-67478322D01*
X113915807Y-67470049D01*
X113923818Y-67466625D01*
X114462459Y-67454645D01*
X114470806Y-67457887D01*
G37*
%TD.AperFunction*%
%TD*%
%TA.AperFunction,Conductor*%
%TO.N,GND*%
G36*
X99436720Y-65770307D02*
G01*
X99439547Y-65774880D01*
X99634394Y-66359423D01*
X99633759Y-66368355D01*
X99630916Y-66372000D01*
X98946372Y-66959729D01*
X98937862Y-66962518D01*
X98929873Y-66958474D01*
X98929383Y-66957863D01*
X98493389Y-66375328D01*
X98491175Y-66366651D01*
X98494819Y-66359721D01*
X99133518Y-65769984D01*
X99141455Y-65766880D01*
X99428447Y-65766880D01*
X99436720Y-65770307D01*
G37*
%TD.AperFunction*%
%TD*%
%TA.AperFunction,Conductor*%
%TO.N,GND*%
G36*
X99294067Y-65271477D02*
G01*
X99497883Y-65430200D01*
X99712311Y-65597189D01*
X99716733Y-65604976D01*
X99715668Y-65611486D01*
X99440067Y-66185246D01*
X99433396Y-66191220D01*
X99429521Y-66191880D01*
X99144239Y-66191880D01*
X99135966Y-66188453D01*
X99133693Y-66185246D01*
X98858091Y-65611486D01*
X98857597Y-65602545D01*
X98861448Y-65597189D01*
X99279691Y-65271477D01*
X99288324Y-65269098D01*
X99294067Y-65271477D01*
G37*
%TD.AperFunction*%
%TD*%
%TA.AperFunction,Conductor*%
%TO.N,GND*%
G36*
X101926684Y-70215558D02*
G01*
X101934448Y-70220020D01*
X101936880Y-70227161D01*
X101936880Y-70511752D01*
X101933453Y-70520025D01*
X101933109Y-70520355D01*
X101465237Y-70951592D01*
X101456832Y-70954679D01*
X101449784Y-70951949D01*
X101042806Y-70610196D01*
X101038675Y-70602252D01*
X101039765Y-70596214D01*
X101258232Y-70137045D01*
X101264880Y-70131049D01*
X101270297Y-70130471D01*
X101926684Y-70215558D01*
G37*
%TD.AperFunction*%
%TD*%
%TA.AperFunction,Conductor*%
%TO.N,GND*%
G36*
X105860027Y-54719423D02*
G01*
X105860338Y-54720174D01*
X105997930Y-55088004D01*
X105998072Y-55095803D01*
X105952047Y-55233880D01*
X105946179Y-55240645D01*
X105940947Y-55241880D01*
X105757813Y-55241880D01*
X105749540Y-55238453D01*
X105746713Y-55233880D01*
X105700687Y-55095801D01*
X105700828Y-55088006D01*
X105838422Y-54720173D01*
X105844530Y-54713626D01*
X105853479Y-54713315D01*
X105860027Y-54719423D01*
G37*
%TD.AperFunction*%
%TD*%
%TA.AperFunction,Conductor*%
%TO.N,GND*%
G36*
X105949500Y-55267393D02*
G01*
X105952203Y-55271615D01*
X106124429Y-55738285D01*
X106124079Y-55747233D01*
X106117964Y-55753132D01*
X105855660Y-55862729D01*
X105846705Y-55862756D01*
X105846638Y-55862729D01*
X105584267Y-55753105D01*
X105577955Y-55746753D01*
X105577776Y-55738329D01*
X105746587Y-55271686D01*
X105752624Y-55265072D01*
X105757589Y-55263966D01*
X105941227Y-55263966D01*
X105949500Y-55267393D01*
G37*
%TD.AperFunction*%
%TD*%
%TA.AperFunction,Conductor*%
%TO.N,GND*%
G36*
X99636537Y-66796516D02*
G01*
X99641017Y-66801422D01*
X100163571Y-67877584D01*
X100164102Y-67886523D01*
X100161319Y-67890968D01*
X99960656Y-68091631D01*
X99952383Y-68095058D01*
X99947815Y-68094129D01*
X99843114Y-68049724D01*
X99836835Y-68043339D01*
X99836207Y-68041236D01*
X99825747Y-67988649D01*
X99781432Y-67922328D01*
X99715111Y-67878013D01*
X99656628Y-67866380D01*
X99413178Y-67866380D01*
X99408610Y-67865451D01*
X98715023Y-67571298D01*
X98708745Y-67564914D01*
X98708675Y-67556322D01*
X98933981Y-66971858D01*
X98940153Y-66965373D01*
X98942084Y-66964711D01*
X99627683Y-66795175D01*
X99636537Y-66796516D01*
G37*
%TD.AperFunction*%
%TD*%
%TA.AperFunction,Conductor*%
%TO.N,GND*%
G36*
X100124771Y-67837724D02*
G01*
X101300455Y-68064446D01*
X101307930Y-68069377D01*
X101309728Y-68078149D01*
X101309471Y-68079215D01*
X101139229Y-68661963D01*
X101133619Y-68668943D01*
X101132099Y-68669640D01*
X100445989Y-68926414D01*
X100437039Y-68926104D01*
X100431864Y-68921489D01*
X99911267Y-68056519D01*
X99909936Y-68047664D01*
X99913016Y-68042215D01*
X100114292Y-67840939D01*
X100122564Y-67837513D01*
X100124771Y-67837724D01*
G37*
%TD.AperFunction*%
%TD*%
%TA.AperFunction,Conductor*%
%TO.N,GND*%
G36*
X111502454Y-56356611D02*
G01*
X112661774Y-57197889D01*
X112666457Y-57205521D01*
X112664748Y-57213679D01*
X112127001Y-58051296D01*
X112119647Y-58056406D01*
X112119637Y-58056409D01*
X111289062Y-58236703D01*
X111280250Y-58235109D01*
X111275146Y-58227751D01*
X111274880Y-58225269D01*
X111274880Y-57501213D01*
X111274879Y-57501211D01*
X111254403Y-57424789D01*
X111254401Y-57424786D01*
X111242480Y-57404139D01*
X111240922Y-57398758D01*
X111199864Y-56366545D01*
X111202960Y-56358142D01*
X111211090Y-56354389D01*
X111211555Y-56354380D01*
X111495582Y-56354380D01*
X111502454Y-56356611D01*
G37*
%TD.AperFunction*%
%TD*%
%TA.AperFunction,Conductor*%
%TO.N,GND*%
G36*
X112644070Y-63378948D02*
G01*
X112969781Y-63797191D01*
X112972161Y-63805824D01*
X112969781Y-63811569D01*
X112644070Y-64229811D01*
X112636283Y-64234233D01*
X112629773Y-64233168D01*
X112056014Y-63957566D01*
X112050040Y-63950895D01*
X112049380Y-63947020D01*
X112049380Y-63661739D01*
X112052807Y-63653466D01*
X112056012Y-63651194D01*
X112629773Y-63375590D01*
X112638714Y-63375097D01*
X112644070Y-63378948D01*
G37*
%TD.AperFunction*%
%TD*%
%TA.AperFunction,Conductor*%
%TO.N,GND*%
G36*
X112615647Y-63652091D02*
G01*
X112622780Y-63657503D01*
X112624380Y-63663408D01*
X112624380Y-63945351D01*
X112620953Y-63953624D01*
X112615646Y-63956669D01*
X112149025Y-64078964D01*
X112140154Y-64077746D01*
X112135263Y-64072157D01*
X112124282Y-64045877D01*
X112025263Y-63808889D01*
X112025237Y-63799936D01*
X112025242Y-63799922D01*
X112135263Y-63536601D01*
X112141615Y-63530290D01*
X112149025Y-63529795D01*
X112615647Y-63652091D01*
G37*
%TD.AperFunction*%
%TD*%
%TA.AperFunction,Conductor*%
%TO.N,GND*%
G36*
X107425549Y-76157807D02*
G01*
X107427657Y-76160684D01*
X107719711Y-76722513D01*
X107720486Y-76731434D01*
X107716165Y-76737405D01*
X107281215Y-77050460D01*
X107272498Y-77052512D01*
X107267545Y-77050460D01*
X106832593Y-76737404D01*
X106827880Y-76729790D01*
X106829046Y-76722516D01*
X106851524Y-76679274D01*
X106853622Y-76676411D01*
X106904850Y-76625184D01*
X106950994Y-76545260D01*
X106974880Y-76456115D01*
X106974880Y-76444832D01*
X106976198Y-76439438D01*
X107121103Y-76160684D01*
X107127959Y-76154924D01*
X107131484Y-76154380D01*
X107417276Y-76154380D01*
X107425549Y-76157807D01*
G37*
%TD.AperFunction*%
%TD*%
%TA.AperFunction,Conductor*%
%TO.N,GND*%
G36*
X107515877Y-76154282D02*
G01*
X107542157Y-76165263D01*
X107548469Y-76171615D01*
X107548964Y-76179025D01*
X107426669Y-76645646D01*
X107421256Y-76652780D01*
X107415351Y-76654380D01*
X107133409Y-76654380D01*
X107125136Y-76650953D01*
X107122091Y-76645646D01*
X106999795Y-76179025D01*
X107001013Y-76170154D01*
X107006601Y-76165263D01*
X107269870Y-76055263D01*
X107278824Y-76055237D01*
X107515877Y-76154282D01*
G37*
%TD.AperFunction*%
%TD*%
%TA.AperFunction,Conductor*%
%TO.N,GND*%
G36*
X106572769Y-68117753D02*
G01*
X106576032Y-68124071D01*
X106672073Y-68690771D01*
X106670076Y-68699500D01*
X106662492Y-68704262D01*
X106660576Y-68704426D01*
X106376747Y-68705372D01*
X106372197Y-68704468D01*
X106107597Y-68593912D01*
X106101286Y-68587561D01*
X106101146Y-68579032D01*
X106271542Y-68121938D01*
X106277643Y-68115384D01*
X106282505Y-68114326D01*
X106564496Y-68114326D01*
X106572769Y-68117753D01*
G37*
%TD.AperFunction*%
%TD*%
%TA.AperFunction,Conductor*%
%TO.N,GND*%
G36*
X106665877Y-67204282D02*
G01*
X106692157Y-67215263D01*
X106698469Y-67221615D01*
X106698964Y-67229025D01*
X106576669Y-67695646D01*
X106571256Y-67702780D01*
X106565351Y-67704380D01*
X106283409Y-67704380D01*
X106275136Y-67700953D01*
X106272091Y-67695646D01*
X106149795Y-67229025D01*
X106151013Y-67220154D01*
X106156601Y-67215263D01*
X106419870Y-67105263D01*
X106428824Y-67105237D01*
X106665877Y-67204282D01*
G37*
%TD.AperFunction*%
%TD*%
%TA.AperFunction,Conductor*%
%TO.N,GND*%
G36*
X102781213Y-77120798D02*
G01*
X103216165Y-77433853D01*
X103220878Y-77441467D01*
X103219711Y-77448745D01*
X102927657Y-78010576D01*
X102920801Y-78016336D01*
X102917276Y-78016880D01*
X102631484Y-78016880D01*
X102623211Y-78013453D01*
X102621103Y-78010576D01*
X102329048Y-77448745D01*
X102328273Y-77439824D01*
X102332592Y-77433855D01*
X102767545Y-77120798D01*
X102776262Y-77118747D01*
X102781213Y-77120798D01*
G37*
%TD.AperFunction*%
%TD*%
%TA.AperFunction,Conductor*%
%TO.N,GND*%
G36*
X102922769Y-77617753D02*
G01*
X102926032Y-77624071D01*
X103022073Y-78190771D01*
X103020076Y-78199500D01*
X103012492Y-78204262D01*
X103010576Y-78204426D01*
X102726747Y-78205372D01*
X102722197Y-78204468D01*
X102457597Y-78093912D01*
X102451286Y-78087561D01*
X102451146Y-78079032D01*
X102621542Y-77621938D01*
X102627643Y-77615384D01*
X102632505Y-77614326D01*
X102914496Y-77614326D01*
X102922769Y-77617753D01*
G37*
%TD.AperFunction*%
%TD*%
%TA.AperFunction,Conductor*%
%TO.N,GND*%
G36*
X105933312Y-63909034D02*
G01*
X106140262Y-64024151D01*
X106368206Y-64150946D01*
X106373771Y-64157963D01*
X106374216Y-64161442D01*
X106364372Y-64586826D01*
X106360948Y-64594828D01*
X106159713Y-64796063D01*
X106151440Y-64799490D01*
X106143920Y-64796753D01*
X105893701Y-64586826D01*
X105637838Y-64372164D01*
X105633704Y-64364223D01*
X105635485Y-64356926D01*
X105917755Y-63912980D01*
X105925083Y-63907840D01*
X105933312Y-63909034D01*
G37*
%TD.AperFunction*%
%TD*%
%TA.AperFunction,Conductor*%
%TO.N,GND*%
G36*
X105931567Y-62258977D02*
G01*
X106135383Y-62417700D01*
X106349811Y-62584689D01*
X106354233Y-62592476D01*
X106353168Y-62598986D01*
X106077567Y-63172746D01*
X106070896Y-63178720D01*
X106067021Y-63179380D01*
X105781739Y-63179380D01*
X105773466Y-63175953D01*
X105771193Y-63172746D01*
X105495591Y-62598986D01*
X105495097Y-62590045D01*
X105498948Y-62584689D01*
X105917191Y-62258977D01*
X105925824Y-62256598D01*
X105931567Y-62258977D01*
G37*
%TD.AperFunction*%
%TD*%
%TA.AperFunction,Conductor*%
%TO.N,GND*%
G36*
X106075294Y-62982807D02*
G01*
X106077567Y-62986014D01*
X106353168Y-63559773D01*
X106353662Y-63568714D01*
X106349811Y-63574070D01*
X105931569Y-63899781D01*
X105922936Y-63902161D01*
X105917191Y-63899781D01*
X105498948Y-63574070D01*
X105494526Y-63566283D01*
X105495591Y-63559773D01*
X105771193Y-62986014D01*
X105777864Y-62980040D01*
X105781739Y-62979380D01*
X106067021Y-62979380D01*
X106075294Y-62982807D01*
G37*
%TD.AperFunction*%
%TD*%
%TA.AperFunction,Conductor*%
%TO.N,GND*%
G36*
X111069648Y-76328632D02*
G01*
X111073075Y-76336905D01*
X111073010Y-76338137D01*
X110975764Y-77256191D01*
X110971485Y-77264058D01*
X110962897Y-77266594D01*
X110961558Y-77266373D01*
X110529289Y-77168986D01*
X110521971Y-77163825D01*
X110521806Y-77163555D01*
X110252783Y-76711482D01*
X110251498Y-76702622D01*
X110256029Y-76695986D01*
X110756301Y-76338137D01*
X110771327Y-76327389D01*
X110778134Y-76325205D01*
X111061375Y-76325205D01*
X111069648Y-76328632D01*
G37*
%TD.AperFunction*%
%TD*%
%TA.AperFunction,Conductor*%
%TO.N,GND*%
G36*
X103183624Y-53023060D02*
G01*
X103692469Y-53251280D01*
X103698614Y-53257791D01*
X103699380Y-53261954D01*
X103699380Y-53546805D01*
X103695953Y-53555078D01*
X103692468Y-53557480D01*
X103183625Y-53785698D01*
X103174674Y-53785957D01*
X103170210Y-53782927D01*
X102963652Y-53557480D01*
X102830620Y-53412282D01*
X102827559Y-53403869D01*
X102830620Y-53396477D01*
X103170211Y-53025831D01*
X103178326Y-53022047D01*
X103183624Y-53023060D01*
G37*
%TD.AperFunction*%
%TD*%
%TA.AperFunction,Conductor*%
%TO.N,GND*%
G36*
X99531567Y-74008977D02*
G01*
X99949290Y-74334283D01*
X99953712Y-74342069D01*
X99952286Y-74349270D01*
X99627739Y-74923437D01*
X99620685Y-74928953D01*
X99617554Y-74929380D01*
X99431206Y-74929380D01*
X99422933Y-74925953D01*
X99421021Y-74923437D01*
X99096473Y-74349270D01*
X99095385Y-74340382D01*
X99099466Y-74334285D01*
X99517191Y-74008977D01*
X99525824Y-74006598D01*
X99531567Y-74008977D01*
G37*
%TD.AperFunction*%
%TD*%
%TA.AperFunction,Conductor*%
%TO.N,GND*%
G36*
X99624470Y-74507807D02*
G01*
X99627187Y-74512067D01*
X99797710Y-74979074D01*
X99797329Y-74988021D01*
X99791231Y-74993883D01*
X99528891Y-75103495D01*
X99519936Y-75103522D01*
X99519869Y-75103495D01*
X99257528Y-74993883D01*
X99251216Y-74987531D01*
X99251049Y-74979077D01*
X99421573Y-74512066D01*
X99427629Y-74505471D01*
X99432563Y-74504380D01*
X99616197Y-74504380D01*
X99624470Y-74507807D01*
G37*
%TD.AperFunction*%
%TD*%
%TA.AperFunction,Conductor*%
%TO.N,GND*%
G36*
X112982574Y-57211128D02*
G01*
X113820118Y-57900870D01*
X113824326Y-57908775D01*
X113824380Y-57909902D01*
X113824380Y-58198857D01*
X113820953Y-58207130D01*
X113820118Y-58207889D01*
X112982574Y-58897631D01*
X112974009Y-58900245D01*
X112966868Y-58896877D01*
X112131666Y-58062656D01*
X112128235Y-58054387D01*
X112131656Y-58046113D01*
X112966870Y-57211881D01*
X112975143Y-57208460D01*
X112982574Y-57211128D01*
G37*
%TD.AperFunction*%
%TD*%
%TA.AperFunction,Conductor*%
%TO.N,GND*%
G36*
X114108605Y-57781013D02*
G01*
X114113496Y-57786602D01*
X114223495Y-58049869D01*
X114223522Y-58058824D01*
X114223495Y-58058891D01*
X114113496Y-58322157D01*
X114107144Y-58328469D01*
X114099734Y-58328964D01*
X113633114Y-58206669D01*
X113625980Y-58201256D01*
X113624380Y-58195351D01*
X113624380Y-57913408D01*
X113627807Y-57905135D01*
X113633111Y-57902091D01*
X114099734Y-57779795D01*
X114108605Y-57781013D01*
G37*
%TD.AperFunction*%
%TD*%
%TA.AperFunction,Conductor*%
%TO.N,GND*%
G36*
X110531567Y-77171477D02*
G01*
X110735383Y-77330200D01*
X110949811Y-77497189D01*
X110954233Y-77504976D01*
X110953168Y-77511486D01*
X110677567Y-78085246D01*
X110670896Y-78091220D01*
X110667021Y-78091880D01*
X110381739Y-78091880D01*
X110373466Y-78088453D01*
X110371193Y-78085246D01*
X110095591Y-77511486D01*
X110095097Y-77502545D01*
X110098948Y-77497189D01*
X110517191Y-77171477D01*
X110525824Y-77169098D01*
X110531567Y-77171477D01*
G37*
%TD.AperFunction*%
%TD*%
%TA.AperFunction,Conductor*%
%TO.N,GND*%
G36*
X110673624Y-77507807D02*
G01*
X110676669Y-77513114D01*
X110798964Y-77979734D01*
X110797746Y-77988605D01*
X110792157Y-77993496D01*
X110528891Y-78103495D01*
X110519936Y-78103522D01*
X110519869Y-78103495D01*
X110256602Y-77993496D01*
X110250290Y-77987144D01*
X110249795Y-77979734D01*
X110372091Y-77513114D01*
X110377504Y-77505980D01*
X110383409Y-77504380D01*
X110665351Y-77504380D01*
X110673624Y-77507807D01*
G37*
%TD.AperFunction*%
%TD*%
%TA.AperFunction,Conductor*%
%TO.N,GND*%
G36*
X111488207Y-67357005D02*
G01*
X112057404Y-67465073D01*
X112064892Y-67469982D01*
X112066921Y-67476567D01*
X112066921Y-67754680D01*
X112063494Y-67762953D01*
X112055221Y-67766380D01*
X111915733Y-67766380D01*
X111826593Y-67790264D01*
X111826589Y-67790266D01*
X111746671Y-67836407D01*
X111746666Y-67836411D01*
X111686234Y-67896841D01*
X111681774Y-67899629D01*
X111599562Y-67927966D01*
X111590623Y-67927423D01*
X111584953Y-67921416D01*
X111549436Y-67836411D01*
X111474290Y-67656558D01*
X111473387Y-67652016D01*
X111474333Y-67368461D01*
X111477787Y-67360200D01*
X111486072Y-67356801D01*
X111488207Y-67357005D01*
G37*
%TD.AperFunction*%
%TD*%
%TA.AperFunction,Conductor*%
%TO.N,GND*%
G36*
X103154729Y-72515027D02*
G01*
X103562575Y-73177419D01*
X103563994Y-73186260D01*
X103560885Y-73191826D01*
X103360121Y-73392590D01*
X103351848Y-73396017D01*
X103348708Y-73395588D01*
X102539574Y-73170152D01*
X102532524Y-73164630D01*
X102531443Y-73155741D01*
X102531569Y-73155321D01*
X102672059Y-72721159D01*
X102677867Y-72714344D01*
X102678455Y-72714063D01*
X103140046Y-72510455D01*
X103148997Y-72510253D01*
X103154729Y-72515027D01*
G37*
%TD.AperFunction*%
%TD*%
%TA.AperFunction,Conductor*%
%TO.N,GND*%
G36*
X103213972Y-72828605D02*
G01*
X103630403Y-73072081D01*
X103635816Y-73079215D01*
X103635321Y-73086625D01*
X103526943Y-73350564D01*
X103520631Y-73356916D01*
X103520564Y-73356943D01*
X103256625Y-73465321D01*
X103247670Y-73465294D01*
X103242081Y-73460403D01*
X102998605Y-73043973D01*
X102997388Y-73035105D01*
X103000431Y-73029800D01*
X103199799Y-72830432D01*
X103208071Y-72827006D01*
X103213972Y-72828605D01*
G37*
%TD.AperFunction*%
%TD*%
%TA.AperFunction,Conductor*%
%TO.N,GND*%
G36*
X106573624Y-66507807D02*
G01*
X106576669Y-66513114D01*
X106698964Y-66979734D01*
X106697746Y-66988605D01*
X106692157Y-66993496D01*
X106428891Y-67103495D01*
X106419936Y-67103522D01*
X106419869Y-67103495D01*
X106156602Y-66993496D01*
X106150290Y-66987144D01*
X106149795Y-66979734D01*
X106272091Y-66513114D01*
X106277504Y-66505980D01*
X106283409Y-66504380D01*
X106565351Y-66504380D01*
X106573624Y-66507807D01*
G37*
%TD.AperFunction*%
%TD*%
%TA.AperFunction,Conductor*%
%TO.N,GND*%
G36*
X102998280Y-63494910D02*
G01*
X103003777Y-63500564D01*
X103278900Y-64104380D01*
X103345015Y-64249482D01*
X103345327Y-64258431D01*
X103342641Y-64262606D01*
X103141997Y-64463250D01*
X103133724Y-64466677D01*
X103128854Y-64465615D01*
X102349925Y-64109050D01*
X102343829Y-64102491D01*
X102343961Y-64093993D01*
X102521662Y-63658598D01*
X102527961Y-63652234D01*
X102528690Y-63651956D01*
X102989345Y-63494346D01*
X102998280Y-63494910D01*
G37*
%TD.AperFunction*%
%TD*%
%TA.AperFunction,Conductor*%
%TO.N,+3V3*%
G36*
X101925550Y-64389449D02*
G01*
X102700626Y-64749662D01*
X102706684Y-64756256D01*
X102706513Y-64764729D01*
X102527115Y-65200163D01*
X102520795Y-65206507D01*
X102520041Y-65206791D01*
X102059459Y-65362371D01*
X102050525Y-65361772D01*
X102045035Y-65356063D01*
X101978263Y-65206791D01*
X101709291Y-64605487D01*
X101709042Y-64596537D01*
X101711697Y-64592440D01*
X101912351Y-64391786D01*
X101920623Y-64388360D01*
X101925550Y-64389449D01*
G37*
%TD.AperFunction*%
%TD*%
%TA.AperFunction,Conductor*%
%TO.N,+3V3*%
G36*
X113586409Y-64541787D02*
G01*
X113787060Y-64742438D01*
X113790487Y-64750711D01*
X113789467Y-64755488D01*
X113453724Y-65506063D01*
X113447218Y-65512216D01*
X113439300Y-65512371D01*
X112978718Y-65356791D01*
X112971976Y-65350896D01*
X112971644Y-65350163D01*
X112792246Y-64914727D01*
X112792263Y-64905774D01*
X112798131Y-64899663D01*
X113573208Y-64539449D01*
X113582152Y-64539071D01*
X113586409Y-64541787D01*
G37*
%TD.AperFunction*%
%TD*%
%TA.AperFunction,Conductor*%
%TO.N,+3V3*%
G36*
X104972649Y-78137460D02*
G01*
X105530184Y-78401212D01*
X105536196Y-78407846D01*
X105536880Y-78411787D01*
X105536880Y-78696972D01*
X105533453Y-78705245D01*
X105530183Y-78707548D01*
X104972650Y-78971298D01*
X104963706Y-78971738D01*
X104958556Y-78968087D01*
X104744906Y-78704380D01*
X104629345Y-78561743D01*
X104626801Y-78553160D01*
X104629345Y-78547017D01*
X104958556Y-78140671D01*
X104966427Y-78136401D01*
X104972649Y-78137460D01*
G37*
%TD.AperFunction*%
%TD*%
%TA.AperFunction,Conductor*%
%TO.N,+3V3*%
G36*
X106939079Y-78174873D02*
G01*
X106943659Y-78178420D01*
X107269772Y-78597179D01*
X107272152Y-78605812D01*
X107269761Y-78611571D01*
X106943795Y-79028855D01*
X106936002Y-79033265D01*
X106928819Y-79031838D01*
X106355324Y-78707739D01*
X106349807Y-78700685D01*
X106349380Y-78697553D01*
X106349380Y-78412334D01*
X106352807Y-78404061D01*
X106356775Y-78401455D01*
X106930128Y-78174729D01*
X106939079Y-78174873D01*
G37*
%TD.AperFunction*%
%TD*%
%TA.AperFunction,Conductor*%
%TO.N,+3V3*%
G36*
X104821404Y-63769839D02*
G01*
X104827107Y-63776742D01*
X104827296Y-63777432D01*
X105022105Y-64585135D01*
X105020713Y-64593981D01*
X105019004Y-64596151D01*
X104818192Y-64796963D01*
X104809919Y-64800390D01*
X104803575Y-64798521D01*
X104162639Y-64384889D01*
X104157546Y-64377523D01*
X104158359Y-64370157D01*
X104371482Y-63908418D01*
X104378059Y-63902344D01*
X104378637Y-63902149D01*
X104812490Y-63768990D01*
X104821404Y-63769839D01*
G37*
%TD.AperFunction*%
%TD*%
%TA.AperFunction,Conductor*%
%TO.N,+3V3*%
G36*
X102893033Y-64792925D02*
G01*
X103506424Y-65178894D01*
X103511601Y-65186201D01*
X103510096Y-65195028D01*
X103508466Y-65197070D01*
X103307930Y-65397606D01*
X103305171Y-65399652D01*
X102869186Y-65632603D01*
X102860274Y-65633480D01*
X102854432Y-65629462D01*
X102529566Y-65211259D01*
X102527197Y-65202623D01*
X102529966Y-65196416D01*
X102877967Y-64795161D01*
X102885974Y-64791158D01*
X102893033Y-64792925D01*
G37*
%TD.AperFunction*%
%TD*%
%TA.AperFunction,Conductor*%
%TO.N,+3V3*%
G36*
X104525294Y-61332807D02*
G01*
X104527567Y-61336014D01*
X104803168Y-61909773D01*
X104803662Y-61918714D01*
X104799811Y-61924070D01*
X104381569Y-62249781D01*
X104372936Y-62252161D01*
X104367191Y-62249781D01*
X103948948Y-61924070D01*
X103944526Y-61916283D01*
X103945591Y-61909773D01*
X104221193Y-61336014D01*
X104227864Y-61330040D01*
X104231739Y-61329380D01*
X104517021Y-61329380D01*
X104525294Y-61332807D01*
G37*
%TD.AperFunction*%
%TD*%
%TA.AperFunction,Conductor*%
%TO.N,+3V3*%
G36*
X110258605Y-59981013D02*
G01*
X110263496Y-59986602D01*
X110373495Y-60249869D01*
X110373522Y-60258824D01*
X110373495Y-60258891D01*
X110263496Y-60522157D01*
X110257144Y-60528469D01*
X110249734Y-60528964D01*
X109783114Y-60406669D01*
X109775980Y-60401256D01*
X109774380Y-60395351D01*
X109774380Y-60113408D01*
X109777807Y-60105135D01*
X109783111Y-60102091D01*
X110249734Y-59979795D01*
X110258605Y-59981013D01*
G37*
%TD.AperFunction*%
%TD*%
%TA.AperFunction,Conductor*%
%TO.N,+3V3*%
G36*
X114015647Y-73402091D02*
G01*
X114022780Y-73407503D01*
X114024380Y-73413408D01*
X114024380Y-73695351D01*
X114020953Y-73703624D01*
X114015646Y-73706669D01*
X113549025Y-73828964D01*
X113540154Y-73827746D01*
X113535263Y-73822157D01*
X113524282Y-73795877D01*
X113425263Y-73558889D01*
X113425237Y-73549936D01*
X113425242Y-73549922D01*
X113535263Y-73286601D01*
X113541615Y-73280290D01*
X113549025Y-73279795D01*
X114015647Y-73402091D01*
G37*
%TD.AperFunction*%
%TD*%
%TA.AperFunction,Conductor*%
%TO.N,+3V3*%
G36*
X114601446Y-65093859D02*
G01*
X114602968Y-65095733D01*
X114896523Y-65545220D01*
X114928728Y-65594531D01*
X114930383Y-65603332D01*
X114926840Y-65609552D01*
X114559199Y-65946729D01*
X114550786Y-65949795D01*
X114542668Y-65946014D01*
X114542245Y-65945526D01*
X114213913Y-65545219D01*
X114211317Y-65536650D01*
X114213757Y-65530576D01*
X114453245Y-65225630D01*
X114454159Y-65224600D01*
X114584901Y-65093858D01*
X114593173Y-65090432D01*
X114601446Y-65093859D01*
G37*
%TD.AperFunction*%
%TD*%
%TA.AperFunction,Conductor*%
%TO.N,+3V3*%
G36*
X114791669Y-65265059D02*
G01*
X114797980Y-65271410D01*
X114798310Y-65279388D01*
X114651967Y-65741241D01*
X114646202Y-65748093D01*
X114640814Y-65749407D01*
X114457149Y-65749407D01*
X114448876Y-65745980D01*
X114446366Y-65742247D01*
X114251768Y-65279998D01*
X114251716Y-65271043D01*
X114258011Y-65264675D01*
X114258023Y-65264669D01*
X114519870Y-65155263D01*
X114528824Y-65155237D01*
X114791669Y-65265059D01*
G37*
%TD.AperFunction*%
%TD*%
%TA.AperFunction,Conductor*%
%TO.N,+3V3*%
G36*
X112981213Y-65358298D02*
G01*
X113416165Y-65671353D01*
X113420878Y-65678967D01*
X113419711Y-65686245D01*
X113127657Y-66248076D01*
X113120801Y-66253836D01*
X113117276Y-66254380D01*
X112831484Y-66254380D01*
X112823211Y-66250953D01*
X112821103Y-66248076D01*
X112529048Y-65686245D01*
X112528273Y-65677324D01*
X112532592Y-65671355D01*
X112967545Y-65358298D01*
X112976262Y-65356247D01*
X112981213Y-65358298D01*
G37*
%TD.AperFunction*%
%TD*%
%TA.AperFunction,Conductor*%
%TO.N,+3V3*%
G36*
X114582488Y-64363098D02*
G01*
X114584129Y-64364743D01*
X114910176Y-64763915D01*
X114912756Y-64772490D01*
X114910673Y-64778064D01*
X114603100Y-65213743D01*
X114595529Y-65218525D01*
X114586794Y-65216553D01*
X114585269Y-65215268D01*
X114454377Y-65084376D01*
X114453095Y-65082855D01*
X114238091Y-64778076D01*
X114236124Y-64769343D01*
X114238606Y-64763915D01*
X114566023Y-64364723D01*
X114573918Y-64360501D01*
X114582488Y-64363098D01*
G37*
%TD.AperFunction*%
%TD*%
%TA.AperFunction,Conductor*%
%TO.N,+3V3*%
G36*
X114673672Y-64567753D02*
G01*
X114676701Y-64573002D01*
X114798900Y-65029696D01*
X114797728Y-65038574D01*
X114792109Y-65043516D01*
X114528891Y-65153495D01*
X114519936Y-65153522D01*
X114519869Y-65153495D01*
X114258566Y-65044317D01*
X114252254Y-65037965D01*
X114252281Y-65029010D01*
X114252510Y-65028498D01*
X114471199Y-64570979D01*
X114477859Y-64564994D01*
X114481755Y-64564326D01*
X114665399Y-64564326D01*
X114673672Y-64567753D01*
G37*
%TD.AperFunction*%
%TD*%
%TA.AperFunction,Conductor*%
%TO.N,+3V3*%
G36*
X112508196Y-74431280D02*
G01*
X112513742Y-74437241D01*
X112623215Y-74700584D01*
X112623226Y-74709539D01*
X112623207Y-74709586D01*
X112513993Y-74970969D01*
X112507641Y-74977281D01*
X112498911Y-74977345D01*
X111956889Y-74763951D01*
X111950446Y-74757731D01*
X111950288Y-74748778D01*
X111952900Y-74744793D01*
X112150450Y-74547243D01*
X112155046Y-74544410D01*
X112499267Y-74430623D01*
X112508196Y-74431280D01*
G37*
%TD.AperFunction*%
%TD*%
%TA.AperFunction,Conductor*%
%TO.N,+3V3*%
G36*
X104381567Y-62258977D02*
G01*
X104585383Y-62417700D01*
X104799811Y-62584689D01*
X104804233Y-62592476D01*
X104803168Y-62598986D01*
X104527567Y-63172746D01*
X104520896Y-63178720D01*
X104517021Y-63179380D01*
X104231739Y-63179380D01*
X104223466Y-63175953D01*
X104221193Y-63172746D01*
X103945591Y-62598986D01*
X103945097Y-62590045D01*
X103948948Y-62584689D01*
X104367191Y-62258977D01*
X104375824Y-62256598D01*
X104381567Y-62258977D01*
G37*
%TD.AperFunction*%
%TD*%
%TA.AperFunction,Conductor*%
%TO.N,+3V3*%
G36*
X104525294Y-62982807D02*
G01*
X104527567Y-62986014D01*
X104803168Y-63559773D01*
X104803662Y-63568714D01*
X104799811Y-63574070D01*
X104381569Y-63899781D01*
X104372936Y-63902161D01*
X104367191Y-63899781D01*
X103948948Y-63574070D01*
X103944526Y-63566283D01*
X103945591Y-63559773D01*
X104221193Y-62986014D01*
X104227864Y-62980040D01*
X104231739Y-62979380D01*
X104517021Y-62979380D01*
X104525294Y-62982807D01*
G37*
%TD.AperFunction*%
%TD*%
%TA.AperFunction,Conductor*%
%TO.N,+3V3*%
G36*
X110423278Y-58054370D02*
G01*
X110431547Y-58057804D01*
X110434951Y-58065468D01*
X110480177Y-58943096D01*
X110477181Y-58951534D01*
X110476766Y-58951971D01*
X110273346Y-59155391D01*
X110265073Y-59158818D01*
X110261529Y-59158268D01*
X109271225Y-58843532D01*
X109264379Y-58837761D01*
X109263619Y-58828838D01*
X109263947Y-58827936D01*
X109580683Y-58060912D01*
X109587008Y-58054574D01*
X109591504Y-58053679D01*
X110423278Y-58054370D01*
G37*
%TD.AperFunction*%
%TD*%
%TA.AperFunction,Conductor*%
%TO.N,+3V3*%
G36*
X110063972Y-58528585D02*
G01*
X110480403Y-58772061D01*
X110485816Y-58779195D01*
X110485321Y-58786605D01*
X110376943Y-59050544D01*
X110370631Y-59056896D01*
X110370564Y-59056923D01*
X110106625Y-59165301D01*
X110097670Y-59165274D01*
X110092081Y-59160383D01*
X109848605Y-58743953D01*
X109847388Y-58735085D01*
X109850431Y-58729780D01*
X110049799Y-58530412D01*
X110058071Y-58526986D01*
X110063972Y-58528585D01*
G37*
%TD.AperFunction*%
%TD*%
%TA.AperFunction,Conductor*%
%TO.N,+3V3*%
G36*
X110594475Y-60047601D02*
G01*
X110995426Y-60317159D01*
X111000379Y-60324618D01*
X110998607Y-60333396D01*
X110997170Y-60335141D01*
X110798320Y-60533991D01*
X110790524Y-60537408D01*
X110386528Y-60553884D01*
X110378122Y-60550797D01*
X110374361Y-60542671D01*
X110374351Y-60542222D01*
X110374340Y-60537408D01*
X110373684Y-60258557D01*
X110377090Y-60250278D01*
X110579705Y-60049009D01*
X110587987Y-60045612D01*
X110594475Y-60047601D01*
G37*
%TD.AperFunction*%
%TD*%
%TA.AperFunction,Conductor*%
%TO.N,+3V3*%
G36*
X114194040Y-64027786D02*
G01*
X114567555Y-64347231D01*
X114571615Y-64355213D01*
X114569972Y-64362161D01*
X114303857Y-64803853D01*
X114296652Y-64809171D01*
X114287797Y-64807837D01*
X114287611Y-64807722D01*
X113904786Y-64567213D01*
X113902737Y-64565579D01*
X113770719Y-64433561D01*
X113767292Y-64425288D01*
X113770719Y-64417015D01*
X113770890Y-64416847D01*
X114178360Y-64028210D01*
X114186712Y-64024981D01*
X114194040Y-64027786D01*
G37*
%TD.AperFunction*%
%TD*%
%TA.AperFunction,Conductor*%
%TO.N,+3V3*%
G36*
X109963196Y-61214560D02*
G01*
X110163667Y-61415031D01*
X110167094Y-61423304D01*
X110165747Y-61428755D01*
X109804388Y-62115085D01*
X109797501Y-62120809D01*
X109789477Y-62120409D01*
X109667484Y-62068802D01*
X109404551Y-61957573D01*
X109398266Y-61951194D01*
X109397582Y-61948803D01*
X109317712Y-61488544D01*
X109319674Y-61479809D01*
X109324692Y-61475767D01*
X109950381Y-61212051D01*
X109959333Y-61211996D01*
X109963196Y-61214560D01*
G37*
%TD.AperFunction*%
%TD*%
%TA.AperFunction,Conductor*%
%TO.N,+3V3*%
G36*
X95882646Y-76281656D02*
G01*
X96716877Y-77116868D01*
X96720299Y-77125143D01*
X96717631Y-77132574D01*
X96027890Y-77970118D01*
X96019985Y-77974326D01*
X96018858Y-77974380D01*
X95729902Y-77974380D01*
X95721629Y-77970953D01*
X95720870Y-77970118D01*
X95031128Y-77132574D01*
X95028514Y-77124009D01*
X95031880Y-77116870D01*
X95866103Y-76281666D01*
X95874373Y-76278235D01*
X95882646Y-76281656D01*
G37*
%TD.AperFunction*%
%TD*%
%TA.AperFunction,Conductor*%
%TO.N,+3V3*%
G36*
X105256122Y-82469581D02*
G01*
X106569196Y-82961035D01*
X106575743Y-82967145D01*
X106576053Y-82976094D01*
X106575910Y-82976458D01*
X106276942Y-83700592D01*
X106270617Y-83706931D01*
X106270592Y-83706942D01*
X105546458Y-84005910D01*
X105537503Y-84005899D01*
X105531178Y-83999560D01*
X105531035Y-83999196D01*
X105148111Y-82976094D01*
X105039582Y-82686124D01*
X105039892Y-82677177D01*
X105042264Y-82673755D01*
X105243753Y-82472266D01*
X105252025Y-82468840D01*
X105256122Y-82469581D01*
G37*
%TD.AperFunction*%
%TD*%
%TA.AperFunction,Conductor*%
%TO.N,+3V3*%
G36*
X112138712Y-76456113D02*
G01*
X112450004Y-76749786D01*
X112453670Y-76757955D01*
X112450519Y-76766289D01*
X112083615Y-77158471D01*
X112075460Y-77162172D01*
X112067078Y-77159022D01*
X112066542Y-77158487D01*
X112066527Y-77158471D01*
X111701735Y-76769979D01*
X111698571Y-76761604D01*
X111702256Y-76753443D01*
X111705670Y-76751212D01*
X111918315Y-76660446D01*
X112122411Y-76456349D01*
X112130683Y-76452923D01*
X112138712Y-76456113D01*
G37*
%TD.AperFunction*%
%TD*%
%TA.AperFunction,Conductor*%
%TO.N,+3V3*%
G36*
X116545953Y-71713307D02*
G01*
X116549380Y-71721580D01*
X116549380Y-72002060D01*
X116548495Y-72006524D01*
X116178449Y-72903089D01*
X116172125Y-72909429D01*
X116164187Y-72909806D01*
X115179650Y-72606312D01*
X115172754Y-72600600D01*
X115171759Y-72598020D01*
X115021027Y-72006524D01*
X114985628Y-71867612D01*
X114986906Y-71858751D01*
X114994077Y-71853387D01*
X114995841Y-71853079D01*
X116491365Y-71709932D01*
X116492480Y-71709880D01*
X116537680Y-71709880D01*
X116545953Y-71713307D01*
G37*
%TD.AperFunction*%
%TD*%
%TA.AperFunction,Conductor*%
%TO.N,+3V3*%
G36*
X117171010Y-71713307D02*
G01*
X117174437Y-71721541D01*
X117175372Y-72002012D01*
X117174468Y-72006562D01*
X117064912Y-72268769D01*
X117058560Y-72275081D01*
X117049605Y-72275054D01*
X117047868Y-72274150D01*
X116626185Y-72007823D01*
X116621020Y-72000508D01*
X116620733Y-71997931D01*
X116620733Y-71721580D01*
X116624160Y-71713307D01*
X116632433Y-71709880D01*
X117162737Y-71709880D01*
X117171010Y-71713307D01*
G37*
%TD.AperFunction*%
%TD*%
%TA.AperFunction,Conductor*%
%TO.N,+3V3*%
G36*
X110615877Y-60354282D02*
G01*
X110642157Y-60365263D01*
X110648469Y-60371615D01*
X110648964Y-60379025D01*
X110526669Y-60845646D01*
X110521256Y-60852780D01*
X110515351Y-60854380D01*
X110233409Y-60854380D01*
X110225136Y-60850953D01*
X110222091Y-60845646D01*
X110099795Y-60379025D01*
X110101013Y-60370154D01*
X110106601Y-60365263D01*
X110369870Y-60255263D01*
X110378824Y-60255237D01*
X110615877Y-60354282D01*
G37*
%TD.AperFunction*%
%TD*%
%TA.AperFunction,Conductor*%
%TO.N,+3V3*%
G36*
X104057405Y-61812594D02*
G01*
X104370460Y-62247545D01*
X104372512Y-62256262D01*
X104370460Y-62261215D01*
X104057405Y-62696165D01*
X104049791Y-62700878D01*
X104042513Y-62699711D01*
X103480684Y-62407657D01*
X103474924Y-62400801D01*
X103474380Y-62397276D01*
X103474380Y-62111483D01*
X103477807Y-62103210D01*
X103480679Y-62101105D01*
X104042513Y-61809047D01*
X104051434Y-61808273D01*
X104057405Y-61812594D01*
G37*
%TD.AperFunction*%
%TD*%
%TA.AperFunction,Conductor*%
%TO.N,+3V3*%
G36*
X115168761Y-72602899D02*
G01*
X115176086Y-72608050D01*
X115177384Y-72610860D01*
X115403579Y-73342182D01*
X115402749Y-73351098D01*
X115395858Y-73356817D01*
X115394871Y-73357075D01*
X113800722Y-73701320D01*
X113791912Y-73699717D01*
X113786816Y-73692354D01*
X113786552Y-73689884D01*
X113786552Y-73406520D01*
X113787311Y-73402376D01*
X113810110Y-73342182D01*
X114170786Y-72389904D01*
X114176920Y-72383383D01*
X114184280Y-72382632D01*
X115168761Y-72602899D01*
G37*
%TD.AperFunction*%
%TD*%
%TA.AperFunction,Conductor*%
%TO.N,+3V3*%
G36*
X109978311Y-62849703D02*
G01*
X110178762Y-63050154D01*
X110182189Y-63058427D01*
X110180934Y-63063699D01*
X109829261Y-63760393D01*
X109822474Y-63766235D01*
X109814362Y-63765940D01*
X109429536Y-63607501D01*
X109423190Y-63601182D01*
X109422494Y-63598856D01*
X109335413Y-63138465D01*
X109337242Y-63129700D01*
X109342135Y-63125610D01*
X109965267Y-62847292D01*
X109974218Y-62847048D01*
X109978311Y-62849703D01*
G37*
%TD.AperFunction*%
%TD*%
%TA.AperFunction,Conductor*%
%TO.N,+3V3*%
G36*
X120697847Y-64946266D02*
G01*
X121016717Y-65151551D01*
X121303578Y-65336230D01*
X121308680Y-65343590D01*
X121307083Y-65352401D01*
X121305518Y-65354341D01*
X121104918Y-65554941D01*
X121102054Y-65557043D01*
X120669142Y-65782738D01*
X120660222Y-65783524D01*
X120654493Y-65779541D01*
X120329630Y-65361341D01*
X120327261Y-65352705D01*
X120330111Y-65346405D01*
X120682759Y-64948345D01*
X120690810Y-64944426D01*
X120697847Y-64946266D01*
G37*
%TD.AperFunction*%
%TD*%
%TA.AperFunction,Conductor*%
%TO.N,+3V3*%
G36*
X110615877Y-60354282D02*
G01*
X110642157Y-60365263D01*
X110648469Y-60371615D01*
X110648964Y-60379025D01*
X110526669Y-60845646D01*
X110521256Y-60852780D01*
X110515351Y-60854380D01*
X110233409Y-60854380D01*
X110225136Y-60850953D01*
X110222091Y-60845646D01*
X110099795Y-60379025D01*
X110101013Y-60370154D01*
X110106601Y-60365263D01*
X110369870Y-60255263D01*
X110378824Y-60255237D01*
X110615877Y-60354282D01*
G37*
%TD.AperFunction*%
%TD*%
%TA.AperFunction,Conductor*%
%TO.N,+3V3*%
G36*
X104631489Y-78558818D02*
G01*
X105054005Y-78882020D01*
X105058494Y-78889768D01*
X105057229Y-78896801D01*
X104777679Y-79423168D01*
X104770772Y-79428867D01*
X104767346Y-79429380D01*
X104481414Y-79429380D01*
X104473141Y-79425953D01*
X104471081Y-79423168D01*
X104425629Y-79337586D01*
X104191529Y-78896799D01*
X104190676Y-78887887D01*
X104194752Y-78882021D01*
X104617271Y-78558817D01*
X104625925Y-78556513D01*
X104631489Y-78558818D01*
G37*
%TD.AperFunction*%
%TD*%
%TA.AperFunction,Conductor*%
%TO.N,+3V3*%
G36*
X113617761Y-64574335D02*
G01*
X113621446Y-64576825D01*
X113752029Y-64707408D01*
X113755456Y-64715681D01*
X113754680Y-64719871D01*
X113453404Y-65505285D01*
X113447241Y-65511782D01*
X113438736Y-65512180D01*
X112978718Y-65356791D01*
X112971976Y-65350896D01*
X112971644Y-65350163D01*
X112792478Y-64915289D01*
X112792495Y-64906334D01*
X112798839Y-64900014D01*
X113608809Y-64574243D01*
X113617761Y-64574335D01*
G37*
%TD.AperFunction*%
%TD*%
%TA.AperFunction,Conductor*%
%TO.N,/NRST*%
G36*
X101406246Y-73559048D02*
G01*
X101413068Y-73562594D01*
X101968077Y-73851103D01*
X101973836Y-73857958D01*
X101974380Y-73861483D01*
X101974380Y-74147276D01*
X101970953Y-74155549D01*
X101968076Y-74157657D01*
X101406246Y-74449711D01*
X101397325Y-74450486D01*
X101391354Y-74446165D01*
X101183701Y-74157657D01*
X101078298Y-74011214D01*
X101076247Y-74002498D01*
X101078299Y-73997545D01*
X101391355Y-73562592D01*
X101398968Y-73557881D01*
X101406246Y-73559048D01*
G37*
%TD.AperFunction*%
%TD*%
%TA.AperFunction,Conductor*%
%TO.N,/HSE_IN*%
G36*
X101843983Y-66451570D02*
G01*
X102472633Y-66999524D01*
X102476618Y-67007543D01*
X102473765Y-67016032D01*
X102473218Y-67016617D01*
X102270405Y-67219430D01*
X102269448Y-67220288D01*
X101844448Y-67560816D01*
X101835849Y-67563314D01*
X101829517Y-67560568D01*
X101432590Y-67220288D01*
X101147293Y-66975706D01*
X101143243Y-66967720D01*
X101146026Y-66959209D01*
X101147926Y-66957437D01*
X101829317Y-66450999D01*
X101838000Y-66448815D01*
X101843983Y-66451570D01*
G37*
%TD.AperFunction*%
%TD*%
%TA.AperFunction,Conductor*%
%TO.N,/HSE_IN*%
G36*
X100990284Y-65770183D02*
G01*
X101597658Y-66359570D01*
X101601209Y-66367791D01*
X101598739Y-66375158D01*
X101144421Y-66958201D01*
X101136633Y-66962621D01*
X101128001Y-66960239D01*
X101127570Y-66959887D01*
X100443324Y-66372413D01*
X100439281Y-66364425D01*
X100440146Y-66359040D01*
X100683880Y-65774080D01*
X100690225Y-65767761D01*
X100694680Y-65766880D01*
X100982136Y-65766880D01*
X100990284Y-65770183D01*
G37*
%TD.AperFunction*%
%TD*%
%TA.AperFunction,Conductor*%
%TO.N,/HSE_IN*%
G36*
X100844067Y-65271477D02*
G01*
X101047883Y-65430200D01*
X101262311Y-65597189D01*
X101266733Y-65604976D01*
X101265668Y-65611486D01*
X100990067Y-66185246D01*
X100983396Y-66191220D01*
X100979521Y-66191880D01*
X100694239Y-66191880D01*
X100685966Y-66188453D01*
X100683693Y-66185246D01*
X100408091Y-65611486D01*
X100407597Y-65602545D01*
X100411448Y-65597189D01*
X100829691Y-65271477D01*
X100838324Y-65269098D01*
X100844067Y-65271477D01*
G37*
%TD.AperFunction*%
%TD*%
%TA.AperFunction,Conductor*%
%TO.N,/HSE_OUT*%
G36*
X99089333Y-69826051D02*
G01*
X99691845Y-70124368D01*
X99697739Y-70131110D01*
X99697316Y-70139671D01*
X99489029Y-70600622D01*
X99482500Y-70606750D01*
X99481902Y-70606957D01*
X99048517Y-70744308D01*
X99039595Y-70743541D01*
X99033829Y-70736690D01*
X99033689Y-70736213D01*
X98790877Y-69839595D01*
X98792022Y-69830714D01*
X98799112Y-69825244D01*
X98802170Y-69824837D01*
X99084143Y-69824837D01*
X99089333Y-69826051D01*
G37*
%TD.AperFunction*%
%TD*%
%TA.AperFunction,Conductor*%
%TO.N,/HSE_OUT*%
G36*
X98945144Y-68674158D02*
G01*
X99529716Y-69259704D01*
X99533136Y-69267980D01*
X99530796Y-69274990D01*
X99090390Y-69862200D01*
X99082685Y-69866762D01*
X99081030Y-69866880D01*
X98792730Y-69866880D01*
X98784457Y-69863453D01*
X98783370Y-69862200D01*
X98342963Y-69274990D01*
X98340741Y-69266315D01*
X98344041Y-69259706D01*
X98928601Y-68674172D01*
X98936870Y-68670739D01*
X98945144Y-68674158D01*
G37*
%TD.AperFunction*%
%TD*%
%TA.AperFunction,Conductor*%
%TO.N,/HSE_OUT*%
G36*
X99635497Y-68494324D02*
G01*
X99640489Y-68500368D01*
X99919187Y-69266880D01*
X99991202Y-69464943D01*
X99991906Y-69468941D01*
X99991906Y-69749778D01*
X99988479Y-69758051D01*
X99980206Y-69761478D01*
X99975967Y-69760683D01*
X98716570Y-69271100D01*
X98710100Y-69264908D01*
X98709885Y-69256006D01*
X98933704Y-68672551D01*
X98939866Y-68666056D01*
X98941768Y-68665397D01*
X99626637Y-68493020D01*
X99635497Y-68494324D01*
G37*
%TD.AperFunction*%
%TD*%
%TA.AperFunction,Conductor*%
%TO.N,VBUS*%
G36*
X119364033Y-63938164D02*
G01*
X119364738Y-63939574D01*
X119474177Y-64201496D01*
X119475081Y-64206035D01*
X119474410Y-64491215D01*
X119470964Y-64499480D01*
X119462682Y-64502887D01*
X119461309Y-64502803D01*
X119043038Y-64452351D01*
X119036166Y-64449008D01*
X118837597Y-64250439D01*
X118834170Y-64242166D01*
X118837597Y-64233893D01*
X118839949Y-64232075D01*
X118888360Y-64203673D01*
X119348022Y-63933993D01*
X119356891Y-63932763D01*
X119364033Y-63938164D01*
G37*
%TD.AperFunction*%
%TD*%
%TA.AperFunction,Conductor*%
%TO.N,VBUS*%
G36*
X118875549Y-64457807D02*
G01*
X118877657Y-64460684D01*
X119169711Y-65022513D01*
X119170486Y-65031434D01*
X119166165Y-65037405D01*
X118731215Y-65350460D01*
X118722498Y-65352512D01*
X118717545Y-65350460D01*
X118282594Y-65037405D01*
X118277881Y-65029791D01*
X118279048Y-65022513D01*
X118571103Y-64460684D01*
X118577959Y-64454924D01*
X118581484Y-64454380D01*
X118867276Y-64454380D01*
X118875549Y-64457807D01*
G37*
%TD.AperFunction*%
%TD*%
%TA.AperFunction,Conductor*%
%TO.N,VBUS*%
G36*
X118697348Y-64386333D02*
G01*
X118699372Y-64387951D01*
X118900196Y-64588775D01*
X118901868Y-64590884D01*
X119176344Y-65033743D01*
X119177789Y-65042581D01*
X119172978Y-65049582D01*
X118731111Y-65350029D01*
X118722342Y-65351847D01*
X118716873Y-65349199D01*
X118309688Y-64996619D01*
X118305677Y-64988613D01*
X118307455Y-64981528D01*
X118681209Y-64389973D01*
X118688524Y-64384811D01*
X118697348Y-64386333D01*
G37*
%TD.AperFunction*%
%TD*%
%TA.AperFunction,Conductor*%
%TO.N,VBUS*%
G36*
X115950414Y-74187308D02*
G01*
X116918567Y-74750995D01*
X116923992Y-74758119D01*
X116924380Y-74761106D01*
X116924380Y-75047653D01*
X116920953Y-75055926D01*
X116918567Y-75057764D01*
X115950417Y-75621450D01*
X115941543Y-75622651D01*
X115936528Y-75619874D01*
X115904944Y-75590262D01*
X115182482Y-74912914D01*
X115178791Y-74904757D01*
X115181950Y-74896378D01*
X115182483Y-74895845D01*
X115333370Y-74754380D01*
X115936529Y-74188884D01*
X115944907Y-74185726D01*
X115950414Y-74187308D01*
G37*
%TD.AperFunction*%
%TD*%
%TA.AperFunction,Conductor*%
%TO.N,VBUS*%
G36*
X118158605Y-74631013D02*
G01*
X118163496Y-74636602D01*
X118273495Y-74899869D01*
X118273522Y-74908824D01*
X118273495Y-74908891D01*
X118163496Y-75172157D01*
X118157144Y-75178469D01*
X118149734Y-75178964D01*
X117683114Y-75056669D01*
X117675980Y-75051256D01*
X117674380Y-75045351D01*
X117674380Y-74763408D01*
X117677807Y-74755135D01*
X117683111Y-74752091D01*
X118149734Y-74629795D01*
X118158605Y-74631013D01*
G37*
%TD.AperFunction*%
%TD*%
%TA.AperFunction,Conductor*%
%TO.N,VBUS*%
G36*
X109999087Y-55662780D02*
G01*
X110001967Y-55667519D01*
X110148310Y-56129371D01*
X110147543Y-56138293D01*
X110141668Y-56143701D01*
X109878891Y-56253495D01*
X109869936Y-56253522D01*
X109869869Y-56253495D01*
X109606168Y-56143315D01*
X109599856Y-56136963D01*
X109599235Y-56130084D01*
X109697409Y-55668618D01*
X109702482Y-55661239D01*
X109708853Y-55659353D01*
X109990814Y-55659353D01*
X109999087Y-55662780D01*
G37*
%TD.AperFunction*%
%TD*%
%TA.AperFunction,Conductor*%
%TO.N,VBUS*%
G36*
X113115647Y-56152091D02*
G01*
X113122780Y-56157503D01*
X113124380Y-56163408D01*
X113124380Y-56445351D01*
X113120953Y-56453624D01*
X113115646Y-56456669D01*
X112649025Y-56578964D01*
X112640154Y-56577746D01*
X112635263Y-56572157D01*
X112624282Y-56545877D01*
X112525263Y-56308889D01*
X112525237Y-56299936D01*
X112525242Y-56299922D01*
X112635263Y-56036601D01*
X112641615Y-56030290D01*
X112649025Y-56029795D01*
X113115647Y-56152091D01*
G37*
%TD.AperFunction*%
%TD*%
%TA.AperFunction,Conductor*%
%TO.N,VBUS*%
G36*
X106636387Y-55358804D02*
G01*
X107039303Y-55372556D01*
X107047176Y-55375976D01*
X107246054Y-55574854D01*
X107249481Y-55583127D01*
X107246054Y-55591400D01*
X107244366Y-55592798D01*
X106844492Y-55865092D01*
X106835725Y-55866916D01*
X106829661Y-55863722D01*
X106627138Y-55662544D01*
X106623684Y-55654282D01*
X106623684Y-55654215D01*
X106624351Y-55370469D01*
X106627797Y-55362206D01*
X106636079Y-55358799D01*
X106636387Y-55358804D01*
G37*
%TD.AperFunction*%
%TD*%
%TA.AperFunction,Conductor*%
%TO.N,/PWR_LED_K*%
G36*
X118737276Y-77766473D02*
G01*
X119216891Y-77951491D01*
X119223376Y-77957666D01*
X119224380Y-77962407D01*
X119224380Y-78248439D01*
X119220953Y-78256712D01*
X119219583Y-78257885D01*
X118814456Y-78553944D01*
X118805755Y-78556059D01*
X118799601Y-78553079D01*
X118430819Y-78211275D01*
X118427081Y-78203139D01*
X118429152Y-78196038D01*
X118590814Y-77962407D01*
X118723445Y-77770731D01*
X118730969Y-77765878D01*
X118737276Y-77766473D01*
G37*
%TD.AperFunction*%
%TD*%
%TA.AperFunction,Conductor*%
%TO.N,/PWR_LED_K*%
G36*
X119674959Y-77623817D02*
G01*
X120142239Y-78096151D01*
X120145621Y-78104443D01*
X120142239Y-78112609D01*
X119674959Y-78584942D01*
X119666704Y-78588413D01*
X119660039Y-78586372D01*
X119179477Y-78257864D01*
X119174581Y-78250366D01*
X119174380Y-78248205D01*
X119174380Y-77960554D01*
X119177807Y-77952281D01*
X119179471Y-77950899D01*
X119660040Y-77622386D01*
X119668802Y-77620547D01*
X119674959Y-77623817D01*
G37*
%TD.AperFunction*%
%TD*%
%TA.AperFunction,Conductor*%
%TO.N,/SWDIO*%
G36*
X98217785Y-72258307D02*
G01*
X98221211Y-72266539D01*
X98221510Y-72355962D01*
X98222157Y-72550243D01*
X98221253Y-72554793D01*
X98110682Y-72819428D01*
X98104330Y-72825740D01*
X98095838Y-72825894D01*
X97638411Y-72657201D01*
X97631834Y-72651124D01*
X97630759Y-72646224D01*
X97630759Y-72364235D01*
X97634186Y-72355962D01*
X97640469Y-72352706D01*
X98140351Y-72266541D01*
X98207016Y-72255050D01*
X98209003Y-72254880D01*
X98209512Y-72254880D01*
X98217785Y-72258307D01*
G37*
%TD.AperFunction*%
%TD*%
%TA.AperFunction,Conductor*%
%TO.N,/SWDIO*%
G36*
X96972320Y-72429175D02*
G01*
X96975685Y-72431523D01*
X97177236Y-72633074D01*
X97180663Y-72641347D01*
X97179944Y-72645386D01*
X96663878Y-74048241D01*
X96657805Y-74054823D01*
X96648858Y-74055183D01*
X96648431Y-74055016D01*
X95878165Y-73736942D01*
X95871827Y-73730618D01*
X95553743Y-72960328D01*
X95553752Y-72951373D01*
X95560091Y-72945048D01*
X95560504Y-72944886D01*
X96963375Y-72428815D01*
X96972320Y-72429175D01*
G37*
%TD.AperFunction*%
%TD*%
%TA.AperFunction,Conductor*%
%TO.N,/SWDIO*%
G36*
X111598961Y-68280433D02*
G01*
X111798326Y-68479798D01*
X111801753Y-68488071D01*
X111800153Y-68493976D01*
X111556678Y-68910403D01*
X111549544Y-68915816D01*
X111542134Y-68915321D01*
X111278195Y-68806943D01*
X111271843Y-68800631D01*
X111271816Y-68800564D01*
X111163438Y-68536625D01*
X111163465Y-68527670D01*
X111168354Y-68522082D01*
X111584786Y-68278605D01*
X111593654Y-68277388D01*
X111598961Y-68280433D01*
G37*
%TD.AperFunction*%
%TD*%
%TA.AperFunction,Conductor*%
%TO.N,/SWCLK*%
G36*
X97963972Y-71228605D02*
G01*
X98380403Y-71472081D01*
X98385816Y-71479215D01*
X98385321Y-71486625D01*
X98276943Y-71750564D01*
X98270631Y-71756916D01*
X98270564Y-71756943D01*
X98006625Y-71865321D01*
X97997670Y-71865294D01*
X97992081Y-71860403D01*
X97748605Y-71443973D01*
X97747388Y-71435105D01*
X97750431Y-71429800D01*
X97949799Y-71230432D01*
X97958071Y-71227006D01*
X97963972Y-71228605D01*
G37*
%TD.AperFunction*%
%TD*%
%TA.AperFunction,Conductor*%
%TO.N,/SWCLK*%
G36*
X96210286Y-70414002D02*
G01*
X96210705Y-70414186D01*
X97567588Y-71041241D01*
X97573661Y-71047823D01*
X97574380Y-71051862D01*
X97574380Y-71336897D01*
X97570953Y-71345170D01*
X97567588Y-71347518D01*
X96210705Y-71974573D01*
X96201758Y-71974933D01*
X96195176Y-71968860D01*
X96194992Y-71968441D01*
X95875245Y-71198869D01*
X95875236Y-71189914D01*
X95875245Y-71189891D01*
X95932594Y-71051862D01*
X96194993Y-70420316D01*
X96201331Y-70413993D01*
X96210286Y-70414002D01*
G37*
%TD.AperFunction*%
%TD*%
%TA.AperFunction,Conductor*%
%TO.N,/SWCLK*%
G36*
X110973361Y-66789657D02*
G01*
X110974873Y-66790933D01*
X111174138Y-66990198D01*
X111177565Y-66998471D01*
X111174138Y-67006744D01*
X111173824Y-67007047D01*
X110794746Y-67358869D01*
X110786351Y-67361985D01*
X110778541Y-67358594D01*
X110577138Y-67158529D01*
X110573684Y-67150267D01*
X110573684Y-67150201D01*
X110574356Y-66864223D01*
X110577802Y-66855960D01*
X110584081Y-66852721D01*
X110964630Y-66787673D01*
X110973361Y-66789657D01*
G37*
%TD.AperFunction*%
%TD*%
%TA.AperFunction,Conductor*%
%TO.N,/I2C1_SCL_OLED*%
G36*
X107635647Y-60752091D02*
G01*
X107642780Y-60757503D01*
X107644380Y-60763408D01*
X107644380Y-61045351D01*
X107640953Y-61053624D01*
X107635646Y-61056669D01*
X107169025Y-61178964D01*
X107160154Y-61177746D01*
X107155263Y-61172157D01*
X107144282Y-61145877D01*
X107045263Y-60908889D01*
X107045237Y-60899936D01*
X107045242Y-60899922D01*
X107155263Y-60636601D01*
X107161615Y-60630290D01*
X107169025Y-60629795D01*
X107635647Y-60752091D01*
G37*
%TD.AperFunction*%
%TD*%
%TA.AperFunction,Conductor*%
%TO.N,/I2C1_SCL_OLED*%
G36*
X108180889Y-63362107D02*
G01*
X108556609Y-63822963D01*
X108559181Y-63831541D01*
X108555814Y-63838629D01*
X108354129Y-64040314D01*
X108346972Y-64043688D01*
X107982935Y-64078560D01*
X107974372Y-64075937D01*
X107971039Y-64071461D01*
X107866194Y-63822963D01*
X107777553Y-63612871D01*
X107777495Y-63603919D01*
X107782146Y-63598395D01*
X108165637Y-63359567D01*
X108174470Y-63358104D01*
X108180889Y-63362107D01*
G37*
%TD.AperFunction*%
%TD*%
%TA.AperFunction,Conductor*%
%TO.N,/I2C1_SCL_OLED*%
G36*
X108328311Y-62849703D02*
G01*
X108528762Y-63050154D01*
X108532189Y-63058427D01*
X108530934Y-63063699D01*
X108179261Y-63760393D01*
X108172474Y-63766235D01*
X108164362Y-63765940D01*
X107779536Y-63607501D01*
X107773190Y-63601182D01*
X107772494Y-63598856D01*
X107685413Y-63138465D01*
X107687242Y-63129700D01*
X107692135Y-63125610D01*
X108315267Y-62847292D01*
X108324218Y-62847048D01*
X108328311Y-62849703D01*
G37*
%TD.AperFunction*%
%TD*%
%TA.AperFunction,Conductor*%
%TO.N,/I2C1_SCL_OLED*%
G36*
X107052310Y-58056674D02*
G01*
X107705342Y-58328001D01*
X107816989Y-58374389D01*
X107823314Y-58380728D01*
X107823305Y-58389683D01*
X107822451Y-58391347D01*
X107138219Y-59497874D01*
X107130953Y-59503109D01*
X107122115Y-59501672D01*
X107119995Y-59499994D01*
X106918931Y-59298930D01*
X106917794Y-59297609D01*
X106449323Y-58663521D01*
X106447164Y-58654833D01*
X106450459Y-58648300D01*
X107039553Y-58059206D01*
X107047825Y-58055780D01*
X107052310Y-58056674D01*
G37*
%TD.AperFunction*%
%TD*%
%TA.AperFunction,Conductor*%
%TO.N,/I2C1_SCL_OLED*%
G36*
X107193624Y-58787807D02*
G01*
X107196669Y-58793114D01*
X107318964Y-59259734D01*
X107317746Y-59268605D01*
X107312157Y-59273496D01*
X107048891Y-59383495D01*
X107039936Y-59383522D01*
X107039869Y-59383495D01*
X106776602Y-59273496D01*
X106770290Y-59267144D01*
X106769795Y-59259734D01*
X106892091Y-58793114D01*
X106897504Y-58785980D01*
X106903409Y-58784380D01*
X107185351Y-58784380D01*
X107193624Y-58787807D01*
G37*
%TD.AperFunction*%
%TD*%
%TA.AperFunction,Conductor*%
%TO.N,/I2C1_SDA_OLED*%
G36*
X105288132Y-57733444D02*
G01*
X105294321Y-57739466D01*
X105437063Y-58058165D01*
X105787095Y-58839678D01*
X105877324Y-59041130D01*
X105877578Y-59050082D01*
X105874919Y-59054186D01*
X105673339Y-59255766D01*
X105665066Y-59259193D01*
X105661884Y-59258752D01*
X104191748Y-58843253D01*
X104184719Y-58837705D01*
X104183671Y-58828812D01*
X104184116Y-58827528D01*
X104501818Y-58058163D01*
X104508139Y-58051828D01*
X105279177Y-57733435D01*
X105288132Y-57733444D01*
G37*
%TD.AperFunction*%
%TD*%
%TA.AperFunction,Conductor*%
%TO.N,/I2C1_SDA_OLED*%
G36*
X105694151Y-58859428D02*
G01*
X105991208Y-59060229D01*
X106174804Y-59184334D01*
X106179739Y-59191806D01*
X106177945Y-59200579D01*
X106176553Y-59202273D01*
X105976753Y-59403409D01*
X105972896Y-59405986D01*
X105707325Y-59515033D01*
X105698370Y-59515006D01*
X105692386Y-59509381D01*
X105668572Y-59461046D01*
X105477725Y-59073670D01*
X105477143Y-59064737D01*
X105479946Y-59060231D01*
X105679329Y-58860848D01*
X105687601Y-58857422D01*
X105694151Y-58859428D01*
G37*
%TD.AperFunction*%
%TD*%
%TA.AperFunction,Conductor*%
%TO.N,/I2C1_SDA_OLED*%
G36*
X106351635Y-61043241D02*
G01*
X106356859Y-61047547D01*
X106617175Y-61437977D01*
X106618913Y-61446761D01*
X106615713Y-61452740D01*
X106416340Y-61652113D01*
X106408067Y-61655540D01*
X106402814Y-61654294D01*
X105969262Y-61436412D01*
X105963409Y-61429635D01*
X105963693Y-61421514D01*
X106071816Y-61158195D01*
X106078126Y-61151844D01*
X106342681Y-61043214D01*
X106351635Y-61043241D01*
G37*
%TD.AperFunction*%
%TD*%
%TA.AperFunction,Conductor*%
%TO.N,/I2C1_SDA_OLED*%
G36*
X107359396Y-61792817D02*
G01*
X107744224Y-61951259D01*
X107750569Y-61957577D01*
X107751265Y-61959903D01*
X107838346Y-62420294D01*
X107836517Y-62429059D01*
X107831621Y-62433151D01*
X107208492Y-62711466D01*
X107199541Y-62711711D01*
X107195448Y-62709056D01*
X106994997Y-62508605D01*
X106991570Y-62500332D01*
X106992825Y-62495060D01*
X107344498Y-61798365D01*
X107351285Y-61792523D01*
X107359396Y-61792817D01*
G37*
%TD.AperFunction*%
%TD*%
%TA.AperFunction,Conductor*%
%TO.N,/I2C1_SDA_OLED*%
G36*
X107403229Y-61561445D02*
G01*
X107743535Y-61946633D01*
X107746445Y-61955102D01*
X107743535Y-61962127D01*
X107403229Y-62347314D01*
X107395183Y-62351245D01*
X107388756Y-62349782D01*
X106955375Y-62107728D01*
X106949823Y-62100702D01*
X106949380Y-62097513D01*
X106949380Y-61811246D01*
X106952807Y-61802973D01*
X106955371Y-61801033D01*
X107388756Y-61558976D01*
X107397650Y-61557935D01*
X107403229Y-61561445D01*
G37*
%TD.AperFunction*%
%TD*%
%TA.AperFunction,Conductor*%
%TO.N,/BOOT0*%
G36*
X113977073Y-81787694D02*
G01*
X114169390Y-81897294D01*
X114522989Y-82098807D01*
X114528480Y-82105880D01*
X114527578Y-82114367D01*
X114327522Y-82499333D01*
X114320666Y-82505094D01*
X114317571Y-82505630D01*
X113858975Y-82522521D01*
X113850581Y-82519401D01*
X113847161Y-82513533D01*
X113677802Y-81800564D01*
X113679224Y-81791723D01*
X113686481Y-81786477D01*
X113689185Y-81786160D01*
X113971281Y-81786160D01*
X113977073Y-81787694D01*
G37*
%TD.AperFunction*%
%TD*%
%TA.AperFunction,Conductor*%
%TO.N,/SW_BOOT0*%
G36*
X109801582Y-82469892D02*
G01*
X109805007Y-82472267D01*
X110006492Y-82673752D01*
X110009919Y-82682025D01*
X110009177Y-82686126D01*
X109517724Y-83999196D01*
X109511614Y-84005743D01*
X109502665Y-84006053D01*
X109502301Y-84005910D01*
X108778167Y-83706942D01*
X108771828Y-83700617D01*
X108771817Y-83700592D01*
X108472849Y-82976456D01*
X108472860Y-82967503D01*
X108479199Y-82961178D01*
X108479539Y-82961044D01*
X109792635Y-82469582D01*
X109801582Y-82469892D01*
G37*
%TD.AperFunction*%
%TD*%
%TA.AperFunction,Conductor*%
%TO.N,/SW_BOOT0*%
G36*
X113783699Y-83397825D02*
G01*
X114480393Y-83749498D01*
X114486235Y-83756285D01*
X114485940Y-83764397D01*
X114327501Y-84149223D01*
X114321182Y-84155569D01*
X114318856Y-84156265D01*
X113858465Y-84243346D01*
X113849700Y-84241517D01*
X113845609Y-84236622D01*
X113567293Y-83613492D01*
X113567048Y-83604541D01*
X113569701Y-83600450D01*
X113770155Y-83399996D01*
X113778427Y-83396570D01*
X113783699Y-83397825D01*
G37*
%TD.AperFunction*%
%TD*%
%TA.AperFunction,Conductor*%
%TO.N,/USB_D+*%
G36*
X113530558Y-68473148D02*
G01*
X113619077Y-68493120D01*
X113715255Y-68514821D01*
X113722571Y-68519985D01*
X113724380Y-68526234D01*
X113724380Y-68707525D01*
X113720953Y-68715798D01*
X113715255Y-68718938D01*
X113530558Y-68760611D01*
X113525595Y-68760652D01*
X112999596Y-68651007D01*
X112890826Y-68628333D01*
X112883428Y-68623291D01*
X112881761Y-68614492D01*
X112886804Y-68607093D01*
X112890826Y-68605426D01*
X113525595Y-68473107D01*
X113530558Y-68473148D01*
G37*
%TD.AperFunction*%
%TD*%
%TA.AperFunction,Conductor*%
%TO.N,/USB_D+*%
G36*
X108360531Y-54720889D02*
G01*
X108361044Y-54722063D01*
X108498138Y-55088559D01*
X108498880Y-55092658D01*
X108498880Y-55093911D01*
X108498721Y-55095834D01*
X108476010Y-55232103D01*
X108471270Y-55239701D01*
X108464469Y-55241880D01*
X108282452Y-55241880D01*
X108274179Y-55238453D01*
X108271514Y-55234333D01*
X108218891Y-55095754D01*
X108218715Y-55087944D01*
X108338973Y-54722503D01*
X108344813Y-54715717D01*
X108353743Y-54715048D01*
X108360531Y-54720889D01*
G37*
%TD.AperFunction*%
%TD*%
%TA.AperFunction,Conductor*%
%TO.N,/UI_UP_BUTTON*%
G36*
X112757979Y-78431467D02*
G01*
X112763913Y-78437598D01*
X112874468Y-78702197D01*
X112875372Y-78706747D01*
X112874426Y-78990576D01*
X112870972Y-78998838D01*
X112862687Y-79002237D01*
X112860771Y-79002073D01*
X112294071Y-78906031D01*
X112286487Y-78901269D01*
X112284326Y-78894495D01*
X112284326Y-78612505D01*
X112287753Y-78604232D01*
X112291939Y-78601542D01*
X112749032Y-78431146D01*
X112757979Y-78431467D01*
G37*
%TD.AperFunction*%
%TD*%
%TA.AperFunction,Conductor*%
%TO.N,/USB_D-*%
G36*
X113530558Y-68973148D02*
G01*
X113619077Y-68993120D01*
X113715255Y-69014821D01*
X113722571Y-69019985D01*
X113724380Y-69026234D01*
X113724380Y-69207525D01*
X113720953Y-69215798D01*
X113715255Y-69218938D01*
X113530558Y-69260611D01*
X113525595Y-69260652D01*
X112999596Y-69151007D01*
X112890826Y-69128333D01*
X112883428Y-69123291D01*
X112881761Y-69114492D01*
X112886804Y-69107093D01*
X112890826Y-69105426D01*
X113525595Y-68973107D01*
X113530558Y-68973148D01*
G37*
%TD.AperFunction*%
%TD*%
%TA.AperFunction,Conductor*%
%TO.N,/USB_D-*%
G36*
X108859320Y-54721312D02*
G01*
X108859787Y-54722505D01*
X108980044Y-55087944D01*
X108979868Y-55095754D01*
X108927246Y-55234333D01*
X108921105Y-55240851D01*
X108916308Y-55241880D01*
X108734292Y-55241880D01*
X108726019Y-55238453D01*
X108722751Y-55232104D01*
X108718904Y-55209026D01*
X108703517Y-55116706D01*
X108703451Y-55113337D01*
X108703522Y-55112768D01*
X108703681Y-55110845D01*
X108704380Y-55093911D01*
X108704380Y-55092658D01*
X108703593Y-55083897D01*
X108704286Y-55078762D01*
X108837715Y-54722062D01*
X108843823Y-54715515D01*
X108852772Y-54715204D01*
X108859320Y-54721312D01*
G37*
%TD.AperFunction*%
%TD*%
%TA.AperFunction,Conductor*%
%TO.N,Net-(J3-CC1)*%
G36*
X103299059Y-54967241D02*
G01*
X103303151Y-54972137D01*
X103581466Y-55595267D01*
X103581711Y-55604218D01*
X103579056Y-55608311D01*
X103378605Y-55808762D01*
X103370332Y-55812189D01*
X103365060Y-55810934D01*
X102668366Y-55459261D01*
X102662524Y-55452474D01*
X102662818Y-55444363D01*
X102821259Y-55059534D01*
X102827577Y-55053190D01*
X102829897Y-55052495D01*
X103290295Y-54965412D01*
X103299059Y-54967241D01*
G37*
%TD.AperFunction*%
%TD*%
%TA.AperFunction,Conductor*%
%TO.N,+3V3_A*%
G36*
X104526346Y-76094695D02*
G01*
X104526580Y-76094935D01*
X104957388Y-76551146D01*
X104960576Y-76559514D01*
X104957995Y-76566515D01*
X104631764Y-76971792D01*
X104623907Y-76976088D01*
X104616202Y-76974219D01*
X104173778Y-76682034D01*
X104168763Y-76674615D01*
X104169253Y-76668212D01*
X104305294Y-76300711D01*
X104307990Y-76296505D01*
X104509801Y-76094694D01*
X104518073Y-76091268D01*
X104526346Y-76094695D01*
G37*
%TD.AperFunction*%
%TD*%
%TA.AperFunction,Conductor*%
%TO.N,+3V3_A*%
G36*
X104747844Y-75303403D02*
G01*
X104782907Y-75317800D01*
X105010250Y-75411148D01*
X105016599Y-75417457D01*
X105016620Y-75417506D01*
X105125252Y-75680714D01*
X105125241Y-75689669D01*
X105119271Y-75695833D01*
X104776683Y-75851255D01*
X104771849Y-75852300D01*
X104492906Y-75852300D01*
X104484633Y-75848873D01*
X104481206Y-75840600D01*
X104482341Y-75835572D01*
X104681293Y-75417506D01*
X104732836Y-75309196D01*
X104739485Y-75303201D01*
X104747844Y-75303403D01*
G37*
%TD.AperFunction*%
%TD*%
%TA.AperFunction,Conductor*%
%TO.N,+3V3_A*%
G36*
X105516419Y-70970164D02*
G01*
X106011043Y-71083680D01*
X106069607Y-71097121D01*
X106076904Y-71102312D01*
X106078394Y-71111142D01*
X106077813Y-71112969D01*
X105970146Y-71375185D01*
X105967577Y-71379034D01*
X105765433Y-71580230D01*
X105757152Y-71583637D01*
X105748886Y-71580191D01*
X105747986Y-71579175D01*
X105504616Y-71270064D01*
X105502109Y-71262826D01*
X105502109Y-70981569D01*
X105505536Y-70973296D01*
X105513809Y-70969869D01*
X105516419Y-70970164D01*
G37*
%TD.AperFunction*%
%TD*%
%TA.AperFunction,Conductor*%
%TO.N,+3V3_A*%
G36*
X108743669Y-71607725D02*
G01*
X109131046Y-71798572D01*
X109179381Y-71822386D01*
X109185288Y-71829116D01*
X109185033Y-71837325D01*
X109075986Y-72102896D01*
X109073409Y-72106753D01*
X108872273Y-72306553D01*
X108863988Y-72309952D01*
X108855726Y-72306498D01*
X108854334Y-72304804D01*
X108532784Y-71829116D01*
X108529428Y-71824152D01*
X108527635Y-71815380D01*
X108530847Y-71809330D01*
X108730230Y-71609947D01*
X108738502Y-71606521D01*
X108743669Y-71607725D01*
G37*
%TD.AperFunction*%
%TD*%
%TA.AperFunction,Conductor*%
%TO.N,+3V3_A*%
G36*
X107901089Y-70593465D02*
G01*
X107906678Y-70598356D01*
X108150153Y-71014784D01*
X108151371Y-71023654D01*
X108148326Y-71028961D01*
X107948961Y-71228326D01*
X107940688Y-71231753D01*
X107934784Y-71230153D01*
X107518356Y-70986678D01*
X107512943Y-70979544D01*
X107513437Y-70972136D01*
X107621816Y-70708194D01*
X107628126Y-70701844D01*
X107892136Y-70593438D01*
X107901089Y-70593465D01*
G37*
%TD.AperFunction*%
%TD*%
%TA.AperFunction,Conductor*%
%TO.N,+3V3_A*%
G36*
X103118986Y-75138091D02*
G01*
X103692746Y-75413693D01*
X103698720Y-75420364D01*
X103699380Y-75424239D01*
X103699380Y-75709520D01*
X103695953Y-75717793D01*
X103692746Y-75720066D01*
X103118986Y-75995668D01*
X103110045Y-75996162D01*
X103104689Y-75992311D01*
X102884462Y-75709520D01*
X102778977Y-75574068D01*
X102776598Y-75565436D01*
X102778977Y-75559692D01*
X103104689Y-75141447D01*
X103112476Y-75137026D01*
X103118986Y-75138091D01*
G37*
%TD.AperFunction*%
%TD*%
%TA.AperFunction,Conductor*%
%TO.N,+3V3_A*%
G36*
X103018631Y-70737228D02*
G01*
X103525890Y-70937819D01*
X103527438Y-70938567D01*
X103535969Y-70943493D01*
X103535971Y-70943493D01*
X103535972Y-70943494D01*
X103548580Y-70946872D01*
X103549830Y-70947286D01*
X103591982Y-70963954D01*
X103598416Y-70970183D01*
X103599380Y-70974834D01*
X103599380Y-71260053D01*
X103595953Y-71268326D01*
X103593436Y-71270239D01*
X103019939Y-71594338D01*
X103011051Y-71595425D01*
X103004964Y-71591356D01*
X102752626Y-71268326D01*
X102678998Y-71174071D01*
X102676605Y-71165441D01*
X102678986Y-71159681D01*
X103005100Y-70740919D01*
X103012887Y-70736498D01*
X103018631Y-70737228D01*
G37*
%TD.AperFunction*%
%TD*%
D34*
X120974380Y-86954380D03*
X114574380Y-86754380D03*
X109774380Y-85354380D03*
X105374380Y-86954380D03*
X101574380Y-86954380D03*
X97911880Y-85891880D03*
X106174380Y-70604380D03*
X112024380Y-63804380D03*
X110924380Y-72604380D03*
X106374380Y-68704380D03*
X99524380Y-75104380D03*
X117849380Y-68904380D03*
X105851149Y-55863614D03*
X107274380Y-76054380D03*
X111474380Y-67654380D03*
X114474380Y-67754380D03*
X110524380Y-78104380D03*
X114224380Y-58054380D03*
X102724380Y-78204380D03*
X103524380Y-73354380D03*
X106424380Y-67104380D03*
X102574380Y-68704380D03*
X115624380Y-78154380D03*
X112624380Y-74704380D03*
X117174380Y-72004380D03*
X110374380Y-59054360D03*
X113424380Y-73554380D03*
X114524380Y-65154380D03*
X110374380Y-60254380D03*
X109874380Y-56254380D03*
X112524380Y-56304380D03*
X106624380Y-55658395D03*
X118274380Y-74904380D03*
X119474380Y-64204380D03*
X111274380Y-68804380D03*
X98221165Y-72552611D03*
X110574380Y-67154380D03*
X98274380Y-71754380D03*
X107044380Y-59384380D03*
X107044380Y-60904380D03*
X105974380Y-59404380D03*
X106074380Y-61154380D03*
X112874380Y-78704380D03*
X114824380Y-79154380D03*
X105014760Y-75414000D03*
X109074380Y-72104380D03*
X107624380Y-70704380D03*
X105968249Y-71377371D03*
D35*
X111274380Y-83704380D03*
X108774380Y-83704380D03*
X106274380Y-83704380D03*
X111274380Y-80504380D03*
X108774380Y-80504380D03*
X106274380Y-80504380D03*
X98059380Y-82434380D03*
X98059380Y-59454380D03*
X118589380Y-59404380D03*
X95874380Y-76274380D03*
X95874380Y-73734380D03*
X95874380Y-71194380D03*
X95874380Y-68654380D03*
X118589380Y-82434380D03*
X112124380Y-58054380D03*
X109584380Y-58054380D03*
X107044380Y-58054380D03*
X104504380Y-58054380D03*
D36*
X112424380Y-54891880D03*
X105024380Y-54891880D03*
M02*
