M48
METRIC,TZ
T1C0.300
T2C0.500
T3C0.800
T4C1.000
%
G90
G05
T1
X97912Y-85892
X98221Y-72553
X98274Y-71754
X99524Y-75104
X101574Y-86954
X102574Y-68704
X102724Y-78204
X103524Y-73354
X105015Y-75414
X105374Y-86954
X105851Y-55864
X105968Y-71377
X105974Y-59404
X106074Y-61154
X106174Y-70604
X106374Y-68704
X106424Y-67104
X106624Y-55658
X107044Y-59384
X107044Y-60904
X107274Y-76054
X107624Y-70704
X109074Y-72104
X109774Y-85354
X109874Y-56254
X110374Y-59054
X110374Y-60254
X110524Y-78104
X110574Y-67154
X110924Y-72604
X111274Y-68804
X111474Y-67654
X112024Y-63804
X112524Y-56304
X112624Y-74704
X112874Y-78704
X113424Y-73554
X114224Y-58054
X114474Y-67754
X114524Y-65154
X114574Y-86754
X114824Y-79154
X115624Y-78154
X117174Y-72004
X117849Y-68904
X118274Y-74904
X119474Y-64204
X120974Y-86954
T3
X106274Y-80504
X106274Y-83704
X108774Y-80504
X108774Y-83704
X111274Y-80504
X111274Y-83704
T4
X95874Y-68654
X95874Y-71194
X95874Y-73734
X95874Y-76274
X104504Y-58054
X107044Y-58054
X109584Y-58054
X112124Y-58054
T2
G00X105024Y-55292
M15
G01X105024Y-54492
M16
G05
G00X112424Y-55292
M15
G01X112424Y-54492
M16
G05
M30
