%TF.GenerationSoftware,KiCad,Pcbnew,8.0.5*%
%TF.CreationDate,2024-09-25T16:09:38-04:00*%
%TF.ProjectId,kryptkey,6b727970-746b-4657-992e-6b696361645f,v0.1*%
%TF.SameCoordinates,Original*%
%TF.FileFunction,Legend,Top*%
%TF.FilePolarity,Positive*%
%FSLAX46Y46*%
G04 Gerber Fmt 4.6, Leading zero omitted, Abs format (unit mm)*
G04 Created by KiCad (PCBNEW 8.0.5) date 2024-09-25 16:09:38*
%MOMM*%
%LPD*%
G01*
G04 APERTURE LIST*
%ADD10C,0.125000*%
%ADD11C,0.150000*%
%ADD12C,0.120000*%
%ADD13C,0.200000*%
%ADD14C,0.350000*%
%ADD15O,0.500000X1.300000*%
G04 APERTURE END LIST*
D10*
X118744711Y-57275499D02*
X118744711Y-56275499D01*
X118744711Y-56275499D02*
X119078044Y-56989784D01*
X119078044Y-56989784D02*
X119411377Y-56275499D01*
X119411377Y-56275499D02*
X119411377Y-57275499D01*
X119839949Y-56370737D02*
X119887568Y-56323118D01*
X119887568Y-56323118D02*
X119982806Y-56275499D01*
X119982806Y-56275499D02*
X120220901Y-56275499D01*
X120220901Y-56275499D02*
X120316139Y-56323118D01*
X120316139Y-56323118D02*
X120363758Y-56370737D01*
X120363758Y-56370737D02*
X120411377Y-56465975D01*
X120411377Y-56465975D02*
X120411377Y-56561213D01*
X120411377Y-56561213D02*
X120363758Y-56704070D01*
X120363758Y-56704070D02*
X119792330Y-57275499D01*
X119792330Y-57275499D02*
X120411377Y-57275499D01*
X120839949Y-57180260D02*
X120887568Y-57227880D01*
X120887568Y-57227880D02*
X120839949Y-57275499D01*
X120839949Y-57275499D02*
X120792330Y-57227880D01*
X120792330Y-57227880D02*
X120839949Y-57180260D01*
X120839949Y-57180260D02*
X120839949Y-57275499D01*
X121792329Y-56275499D02*
X121316139Y-56275499D01*
X121316139Y-56275499D02*
X121268520Y-56751689D01*
X121268520Y-56751689D02*
X121316139Y-56704070D01*
X121316139Y-56704070D02*
X121411377Y-56656451D01*
X121411377Y-56656451D02*
X121649472Y-56656451D01*
X121649472Y-56656451D02*
X121744710Y-56704070D01*
X121744710Y-56704070D02*
X121792329Y-56751689D01*
X121792329Y-56751689D02*
X121839948Y-56846927D01*
X121839948Y-56846927D02*
X121839948Y-57085022D01*
X121839948Y-57085022D02*
X121792329Y-57180260D01*
X121792329Y-57180260D02*
X121744710Y-57227880D01*
X121744710Y-57227880D02*
X121649472Y-57275499D01*
X121649472Y-57275499D02*
X121411377Y-57275499D01*
X121411377Y-57275499D02*
X121316139Y-57227880D01*
X121316139Y-57227880D02*
X121268520Y-57180260D01*
X97994711Y-85175499D02*
X97994711Y-84175499D01*
X97994711Y-84175499D02*
X98328044Y-84889784D01*
X98328044Y-84889784D02*
X98661377Y-84175499D01*
X98661377Y-84175499D02*
X98661377Y-85175499D01*
X99089949Y-84270737D02*
X99137568Y-84223118D01*
X99137568Y-84223118D02*
X99232806Y-84175499D01*
X99232806Y-84175499D02*
X99470901Y-84175499D01*
X99470901Y-84175499D02*
X99566139Y-84223118D01*
X99566139Y-84223118D02*
X99613758Y-84270737D01*
X99613758Y-84270737D02*
X99661377Y-84365975D01*
X99661377Y-84365975D02*
X99661377Y-84461213D01*
X99661377Y-84461213D02*
X99613758Y-84604070D01*
X99613758Y-84604070D02*
X99042330Y-85175499D01*
X99042330Y-85175499D02*
X99661377Y-85175499D01*
X100089949Y-85080260D02*
X100137568Y-85127880D01*
X100137568Y-85127880D02*
X100089949Y-85175499D01*
X100089949Y-85175499D02*
X100042330Y-85127880D01*
X100042330Y-85127880D02*
X100089949Y-85080260D01*
X100089949Y-85080260D02*
X100089949Y-85175499D01*
X101042329Y-84175499D02*
X100566139Y-84175499D01*
X100566139Y-84175499D02*
X100518520Y-84651689D01*
X100518520Y-84651689D02*
X100566139Y-84604070D01*
X100566139Y-84604070D02*
X100661377Y-84556451D01*
X100661377Y-84556451D02*
X100899472Y-84556451D01*
X100899472Y-84556451D02*
X100994710Y-84604070D01*
X100994710Y-84604070D02*
X101042329Y-84651689D01*
X101042329Y-84651689D02*
X101089948Y-84746927D01*
X101089948Y-84746927D02*
X101089948Y-84985022D01*
X101089948Y-84985022D02*
X101042329Y-85080260D01*
X101042329Y-85080260D02*
X100994710Y-85127880D01*
X100994710Y-85127880D02*
X100899472Y-85175499D01*
X100899472Y-85175499D02*
X100661377Y-85175499D01*
X100661377Y-85175499D02*
X100566139Y-85127880D01*
X100566139Y-85127880D02*
X100518520Y-85080260D01*
X94447092Y-66477880D02*
X94589949Y-66525499D01*
X94589949Y-66525499D02*
X94828044Y-66525499D01*
X94828044Y-66525499D02*
X94923282Y-66477880D01*
X94923282Y-66477880D02*
X94970901Y-66430260D01*
X94970901Y-66430260D02*
X95018520Y-66335022D01*
X95018520Y-66335022D02*
X95018520Y-66239784D01*
X95018520Y-66239784D02*
X94970901Y-66144546D01*
X94970901Y-66144546D02*
X94923282Y-66096927D01*
X94923282Y-66096927D02*
X94828044Y-66049308D01*
X94828044Y-66049308D02*
X94637568Y-66001689D01*
X94637568Y-66001689D02*
X94542330Y-65954070D01*
X94542330Y-65954070D02*
X94494711Y-65906451D01*
X94494711Y-65906451D02*
X94447092Y-65811213D01*
X94447092Y-65811213D02*
X94447092Y-65715975D01*
X94447092Y-65715975D02*
X94494711Y-65620737D01*
X94494711Y-65620737D02*
X94542330Y-65573118D01*
X94542330Y-65573118D02*
X94637568Y-65525499D01*
X94637568Y-65525499D02*
X94875663Y-65525499D01*
X94875663Y-65525499D02*
X95018520Y-65573118D01*
X95351854Y-65525499D02*
X95589949Y-66525499D01*
X95589949Y-66525499D02*
X95780425Y-65811213D01*
X95780425Y-65811213D02*
X95970901Y-66525499D01*
X95970901Y-66525499D02*
X96208997Y-65525499D01*
X96589949Y-66525499D02*
X96589949Y-65525499D01*
X96589949Y-65525499D02*
X96828044Y-65525499D01*
X96828044Y-65525499D02*
X96970901Y-65573118D01*
X96970901Y-65573118D02*
X97066139Y-65668356D01*
X97066139Y-65668356D02*
X97113758Y-65763594D01*
X97113758Y-65763594D02*
X97161377Y-65954070D01*
X97161377Y-65954070D02*
X97161377Y-66096927D01*
X97161377Y-66096927D02*
X97113758Y-66287403D01*
X97113758Y-66287403D02*
X97066139Y-66382641D01*
X97066139Y-66382641D02*
X96970901Y-66477880D01*
X96970901Y-66477880D02*
X96828044Y-66525499D01*
X96828044Y-66525499D02*
X96589949Y-66525499D01*
X106154679Y-71427601D02*
X106659755Y-71932677D01*
X106659755Y-71932677D02*
X106727099Y-72067365D01*
X106727099Y-72067365D02*
X106727099Y-72202052D01*
X106727099Y-72202052D02*
X106659755Y-72336739D01*
X106659755Y-72336739D02*
X106592412Y-72404082D01*
X107535221Y-71461273D02*
X107198503Y-71797990D01*
X107198503Y-71797990D02*
X106491397Y-71090884D01*
X108107641Y-70754166D02*
X108107641Y-70821509D01*
X108107641Y-70821509D02*
X108040297Y-70956196D01*
X108040297Y-70956196D02*
X107972954Y-71023540D01*
X107972954Y-71023540D02*
X107838267Y-71090883D01*
X107838267Y-71090883D02*
X107703580Y-71090883D01*
X107703580Y-71090883D02*
X107602565Y-71057212D01*
X107602565Y-71057212D02*
X107434206Y-70956196D01*
X107434206Y-70956196D02*
X107333191Y-70855181D01*
X107333191Y-70855181D02*
X107232175Y-70686822D01*
X107232175Y-70686822D02*
X107198504Y-70585807D01*
X107198504Y-70585807D02*
X107198504Y-70451120D01*
X107198504Y-70451120D02*
X107265847Y-70316433D01*
X107265847Y-70316433D02*
X107333191Y-70249090D01*
X107333191Y-70249090D02*
X107467878Y-70181746D01*
X107467878Y-70181746D02*
X107535221Y-70181746D01*
X107972954Y-69609326D02*
X108478030Y-70114403D01*
X108478030Y-70114403D02*
X108545374Y-70249090D01*
X108545374Y-70249090D02*
X108545374Y-70383777D01*
X108545374Y-70383777D02*
X108478030Y-70518464D01*
X108478030Y-70518464D02*
X108410687Y-70585807D01*
X109353496Y-69642998D02*
X109016778Y-69979715D01*
X109016778Y-69979715D02*
X108309672Y-69272609D01*
X109925916Y-68935891D02*
X109925916Y-69003235D01*
X109925916Y-69003235D02*
X109858572Y-69137922D01*
X109858572Y-69137922D02*
X109791229Y-69205265D01*
X109791229Y-69205265D02*
X109656542Y-69272609D01*
X109656542Y-69272609D02*
X109521855Y-69272609D01*
X109521855Y-69272609D02*
X109420840Y-69238937D01*
X109420840Y-69238937D02*
X109252481Y-69137922D01*
X109252481Y-69137922D02*
X109151466Y-69036906D01*
X109151466Y-69036906D02*
X109050450Y-68868548D01*
X109050450Y-68868548D02*
X109016779Y-68767532D01*
X109016779Y-68767532D02*
X109016779Y-68632845D01*
X109016779Y-68632845D02*
X109084122Y-68498158D01*
X109084122Y-68498158D02*
X109151466Y-68430815D01*
X109151466Y-68430815D02*
X109286153Y-68363471D01*
X109286153Y-68363471D02*
X109353496Y-68363471D01*
X109791229Y-67791051D02*
X110296305Y-68296128D01*
X110296305Y-68296128D02*
X110363649Y-68430815D01*
X110363649Y-68430815D02*
X110363649Y-68565502D01*
X110363649Y-68565502D02*
X110296305Y-68700189D01*
X110296305Y-68700189D02*
X110228962Y-68767532D01*
X111171771Y-67824723D02*
X110835053Y-68161441D01*
X110835053Y-68161441D02*
X110127946Y-67454334D01*
X111744191Y-67117616D02*
X111744191Y-67184960D01*
X111744191Y-67184960D02*
X111676847Y-67319647D01*
X111676847Y-67319647D02*
X111609504Y-67386990D01*
X111609504Y-67386990D02*
X111474817Y-67454334D01*
X111474817Y-67454334D02*
X111340130Y-67454334D01*
X111340130Y-67454334D02*
X111239114Y-67420662D01*
X111239114Y-67420662D02*
X111070756Y-67319647D01*
X111070756Y-67319647D02*
X110969740Y-67218631D01*
X110969740Y-67218631D02*
X110868725Y-67050273D01*
X110868725Y-67050273D02*
X110835053Y-66949257D01*
X110835053Y-66949257D02*
X110835053Y-66814570D01*
X110835053Y-66814570D02*
X110902397Y-66679883D01*
X110902397Y-66679883D02*
X110969740Y-66612540D01*
X110969740Y-66612540D02*
X111104427Y-66545196D01*
X111104427Y-66545196D02*
X111171771Y-66545196D01*
X97894711Y-57475499D02*
X97894711Y-56475499D01*
X97894711Y-56475499D02*
X98228044Y-57189784D01*
X98228044Y-57189784D02*
X98561377Y-56475499D01*
X98561377Y-56475499D02*
X98561377Y-57475499D01*
X98989949Y-56570737D02*
X99037568Y-56523118D01*
X99037568Y-56523118D02*
X99132806Y-56475499D01*
X99132806Y-56475499D02*
X99370901Y-56475499D01*
X99370901Y-56475499D02*
X99466139Y-56523118D01*
X99466139Y-56523118D02*
X99513758Y-56570737D01*
X99513758Y-56570737D02*
X99561377Y-56665975D01*
X99561377Y-56665975D02*
X99561377Y-56761213D01*
X99561377Y-56761213D02*
X99513758Y-56904070D01*
X99513758Y-56904070D02*
X98942330Y-57475499D01*
X98942330Y-57475499D02*
X99561377Y-57475499D01*
X99989949Y-57380260D02*
X100037568Y-57427880D01*
X100037568Y-57427880D02*
X99989949Y-57475499D01*
X99989949Y-57475499D02*
X99942330Y-57427880D01*
X99942330Y-57427880D02*
X99989949Y-57380260D01*
X99989949Y-57380260D02*
X99989949Y-57475499D01*
X100942329Y-56475499D02*
X100466139Y-56475499D01*
X100466139Y-56475499D02*
X100418520Y-56951689D01*
X100418520Y-56951689D02*
X100466139Y-56904070D01*
X100466139Y-56904070D02*
X100561377Y-56856451D01*
X100561377Y-56856451D02*
X100799472Y-56856451D01*
X100799472Y-56856451D02*
X100894710Y-56904070D01*
X100894710Y-56904070D02*
X100942329Y-56951689D01*
X100942329Y-56951689D02*
X100989948Y-57046927D01*
X100989948Y-57046927D02*
X100989948Y-57285022D01*
X100989948Y-57285022D02*
X100942329Y-57380260D01*
X100942329Y-57380260D02*
X100894710Y-57427880D01*
X100894710Y-57427880D02*
X100799472Y-57475499D01*
X100799472Y-57475499D02*
X100561377Y-57475499D01*
X100561377Y-57475499D02*
X100466139Y-57427880D01*
X100466139Y-57427880D02*
X100418520Y-57380260D01*
X117869711Y-85175499D02*
X117869711Y-84175499D01*
X117869711Y-84175499D02*
X118203044Y-84889784D01*
X118203044Y-84889784D02*
X118536377Y-84175499D01*
X118536377Y-84175499D02*
X118536377Y-85175499D01*
X118964949Y-84270737D02*
X119012568Y-84223118D01*
X119012568Y-84223118D02*
X119107806Y-84175499D01*
X119107806Y-84175499D02*
X119345901Y-84175499D01*
X119345901Y-84175499D02*
X119441139Y-84223118D01*
X119441139Y-84223118D02*
X119488758Y-84270737D01*
X119488758Y-84270737D02*
X119536377Y-84365975D01*
X119536377Y-84365975D02*
X119536377Y-84461213D01*
X119536377Y-84461213D02*
X119488758Y-84604070D01*
X119488758Y-84604070D02*
X118917330Y-85175499D01*
X118917330Y-85175499D02*
X119536377Y-85175499D01*
X119964949Y-85080260D02*
X120012568Y-85127880D01*
X120012568Y-85127880D02*
X119964949Y-85175499D01*
X119964949Y-85175499D02*
X119917330Y-85127880D01*
X119917330Y-85127880D02*
X119964949Y-85080260D01*
X119964949Y-85080260D02*
X119964949Y-85175499D01*
X120917329Y-84175499D02*
X120441139Y-84175499D01*
X120441139Y-84175499D02*
X120393520Y-84651689D01*
X120393520Y-84651689D02*
X120441139Y-84604070D01*
X120441139Y-84604070D02*
X120536377Y-84556451D01*
X120536377Y-84556451D02*
X120774472Y-84556451D01*
X120774472Y-84556451D02*
X120869710Y-84604070D01*
X120869710Y-84604070D02*
X120917329Y-84651689D01*
X120917329Y-84651689D02*
X120964948Y-84746927D01*
X120964948Y-84746927D02*
X120964948Y-84985022D01*
X120964948Y-84985022D02*
X120917329Y-85080260D01*
X120917329Y-85080260D02*
X120869710Y-85127880D01*
X120869710Y-85127880D02*
X120774472Y-85175499D01*
X120774472Y-85175499D02*
X120536377Y-85175499D01*
X120536377Y-85175499D02*
X120441139Y-85127880D01*
X120441139Y-85127880D02*
X120393520Y-85080260D01*
X99878044Y-80451689D02*
X100020901Y-80499308D01*
X100020901Y-80499308D02*
X100068520Y-80546927D01*
X100068520Y-80546927D02*
X100116139Y-80642165D01*
X100116139Y-80642165D02*
X100116139Y-80785022D01*
X100116139Y-80785022D02*
X100068520Y-80880260D01*
X100068520Y-80880260D02*
X100020901Y-80927880D01*
X100020901Y-80927880D02*
X99925663Y-80975499D01*
X99925663Y-80975499D02*
X99544711Y-80975499D01*
X99544711Y-80975499D02*
X99544711Y-79975499D01*
X99544711Y-79975499D02*
X99878044Y-79975499D01*
X99878044Y-79975499D02*
X99973282Y-80023118D01*
X99973282Y-80023118D02*
X100020901Y-80070737D01*
X100020901Y-80070737D02*
X100068520Y-80165975D01*
X100068520Y-80165975D02*
X100068520Y-80261213D01*
X100068520Y-80261213D02*
X100020901Y-80356451D01*
X100020901Y-80356451D02*
X99973282Y-80404070D01*
X99973282Y-80404070D02*
X99878044Y-80451689D01*
X99878044Y-80451689D02*
X99544711Y-80451689D01*
X100735187Y-79975499D02*
X100925663Y-79975499D01*
X100925663Y-79975499D02*
X101020901Y-80023118D01*
X101020901Y-80023118D02*
X101116139Y-80118356D01*
X101116139Y-80118356D02*
X101163758Y-80308832D01*
X101163758Y-80308832D02*
X101163758Y-80642165D01*
X101163758Y-80642165D02*
X101116139Y-80832641D01*
X101116139Y-80832641D02*
X101020901Y-80927880D01*
X101020901Y-80927880D02*
X100925663Y-80975499D01*
X100925663Y-80975499D02*
X100735187Y-80975499D01*
X100735187Y-80975499D02*
X100639949Y-80927880D01*
X100639949Y-80927880D02*
X100544711Y-80832641D01*
X100544711Y-80832641D02*
X100497092Y-80642165D01*
X100497092Y-80642165D02*
X100497092Y-80308832D01*
X100497092Y-80308832D02*
X100544711Y-80118356D01*
X100544711Y-80118356D02*
X100639949Y-80023118D01*
X100639949Y-80023118D02*
X100735187Y-79975499D01*
X101782806Y-79975499D02*
X101973282Y-79975499D01*
X101973282Y-79975499D02*
X102068520Y-80023118D01*
X102068520Y-80023118D02*
X102163758Y-80118356D01*
X102163758Y-80118356D02*
X102211377Y-80308832D01*
X102211377Y-80308832D02*
X102211377Y-80642165D01*
X102211377Y-80642165D02*
X102163758Y-80832641D01*
X102163758Y-80832641D02*
X102068520Y-80927880D01*
X102068520Y-80927880D02*
X101973282Y-80975499D01*
X101973282Y-80975499D02*
X101782806Y-80975499D01*
X101782806Y-80975499D02*
X101687568Y-80927880D01*
X101687568Y-80927880D02*
X101592330Y-80832641D01*
X101592330Y-80832641D02*
X101544711Y-80642165D01*
X101544711Y-80642165D02*
X101544711Y-80308832D01*
X101544711Y-80308832D02*
X101592330Y-80118356D01*
X101592330Y-80118356D02*
X101687568Y-80023118D01*
X101687568Y-80023118D02*
X101782806Y-79975499D01*
X102497092Y-79975499D02*
X103068520Y-79975499D01*
X102782806Y-80975499D02*
X102782806Y-79975499D01*
X103592330Y-79975499D02*
X103687568Y-79975499D01*
X103687568Y-79975499D02*
X103782806Y-80023118D01*
X103782806Y-80023118D02*
X103830425Y-80070737D01*
X103830425Y-80070737D02*
X103878044Y-80165975D01*
X103878044Y-80165975D02*
X103925663Y-80356451D01*
X103925663Y-80356451D02*
X103925663Y-80594546D01*
X103925663Y-80594546D02*
X103878044Y-80785022D01*
X103878044Y-80785022D02*
X103830425Y-80880260D01*
X103830425Y-80880260D02*
X103782806Y-80927880D01*
X103782806Y-80927880D02*
X103687568Y-80975499D01*
X103687568Y-80975499D02*
X103592330Y-80975499D01*
X103592330Y-80975499D02*
X103497092Y-80927880D01*
X103497092Y-80927880D02*
X103449473Y-80880260D01*
X103449473Y-80880260D02*
X103401854Y-80785022D01*
X103401854Y-80785022D02*
X103354235Y-80594546D01*
X103354235Y-80594546D02*
X103354235Y-80356451D01*
X103354235Y-80356451D02*
X103401854Y-80165975D01*
X103401854Y-80165975D02*
X103449473Y-80070737D01*
X103449473Y-80070737D02*
X103497092Y-80023118D01*
X103497092Y-80023118D02*
X103592330Y-79975499D01*
D11*
X100957713Y-54759199D02*
X100624380Y-54283008D01*
X100386285Y-54759199D02*
X100386285Y-53759199D01*
X100386285Y-53759199D02*
X100767237Y-53759199D01*
X100767237Y-53759199D02*
X100862475Y-53806818D01*
X100862475Y-53806818D02*
X100910094Y-53854437D01*
X100910094Y-53854437D02*
X100957713Y-53949675D01*
X100957713Y-53949675D02*
X100957713Y-54092532D01*
X100957713Y-54092532D02*
X100910094Y-54187770D01*
X100910094Y-54187770D02*
X100862475Y-54235389D01*
X100862475Y-54235389D02*
X100767237Y-54283008D01*
X100767237Y-54283008D02*
X100386285Y-54283008D01*
X101814856Y-53759199D02*
X101624380Y-53759199D01*
X101624380Y-53759199D02*
X101529142Y-53806818D01*
X101529142Y-53806818D02*
X101481523Y-53854437D01*
X101481523Y-53854437D02*
X101386285Y-53997294D01*
X101386285Y-53997294D02*
X101338666Y-54187770D01*
X101338666Y-54187770D02*
X101338666Y-54568722D01*
X101338666Y-54568722D02*
X101386285Y-54663960D01*
X101386285Y-54663960D02*
X101433904Y-54711580D01*
X101433904Y-54711580D02*
X101529142Y-54759199D01*
X101529142Y-54759199D02*
X101719618Y-54759199D01*
X101719618Y-54759199D02*
X101814856Y-54711580D01*
X101814856Y-54711580D02*
X101862475Y-54663960D01*
X101862475Y-54663960D02*
X101910094Y-54568722D01*
X101910094Y-54568722D02*
X101910094Y-54330627D01*
X101910094Y-54330627D02*
X101862475Y-54235389D01*
X101862475Y-54235389D02*
X101814856Y-54187770D01*
X101814856Y-54187770D02*
X101719618Y-54140151D01*
X101719618Y-54140151D02*
X101529142Y-54140151D01*
X101529142Y-54140151D02*
X101433904Y-54187770D01*
X101433904Y-54187770D02*
X101386285Y-54235389D01*
X101386285Y-54235389D02*
X101338666Y-54330627D01*
X110882713Y-62409199D02*
X110549380Y-61933008D01*
X110311285Y-62409199D02*
X110311285Y-61409199D01*
X110311285Y-61409199D02*
X110692237Y-61409199D01*
X110692237Y-61409199D02*
X110787475Y-61456818D01*
X110787475Y-61456818D02*
X110835094Y-61504437D01*
X110835094Y-61504437D02*
X110882713Y-61599675D01*
X110882713Y-61599675D02*
X110882713Y-61742532D01*
X110882713Y-61742532D02*
X110835094Y-61837770D01*
X110835094Y-61837770D02*
X110787475Y-61885389D01*
X110787475Y-61885389D02*
X110692237Y-61933008D01*
X110692237Y-61933008D02*
X110311285Y-61933008D01*
X111263666Y-61504437D02*
X111311285Y-61456818D01*
X111311285Y-61456818D02*
X111406523Y-61409199D01*
X111406523Y-61409199D02*
X111644618Y-61409199D01*
X111644618Y-61409199D02*
X111739856Y-61456818D01*
X111739856Y-61456818D02*
X111787475Y-61504437D01*
X111787475Y-61504437D02*
X111835094Y-61599675D01*
X111835094Y-61599675D02*
X111835094Y-61694913D01*
X111835094Y-61694913D02*
X111787475Y-61837770D01*
X111787475Y-61837770D02*
X111216047Y-62409199D01*
X111216047Y-62409199D02*
X111835094Y-62409199D01*
X110656522Y-79026460D02*
X110608903Y-79074080D01*
X110608903Y-79074080D02*
X110466046Y-79121699D01*
X110466046Y-79121699D02*
X110370808Y-79121699D01*
X110370808Y-79121699D02*
X110227951Y-79074080D01*
X110227951Y-79074080D02*
X110132713Y-78978841D01*
X110132713Y-78978841D02*
X110085094Y-78883603D01*
X110085094Y-78883603D02*
X110037475Y-78693127D01*
X110037475Y-78693127D02*
X110037475Y-78550270D01*
X110037475Y-78550270D02*
X110085094Y-78359794D01*
X110085094Y-78359794D02*
X110132713Y-78264556D01*
X110132713Y-78264556D02*
X110227951Y-78169318D01*
X110227951Y-78169318D02*
X110370808Y-78121699D01*
X110370808Y-78121699D02*
X110466046Y-78121699D01*
X110466046Y-78121699D02*
X110608903Y-78169318D01*
X110608903Y-78169318D02*
X110656522Y-78216937D01*
X111608903Y-79121699D02*
X111037475Y-79121699D01*
X111323189Y-79121699D02*
X111323189Y-78121699D01*
X111323189Y-78121699D02*
X111227951Y-78264556D01*
X111227951Y-78264556D02*
X111132713Y-78359794D01*
X111132713Y-78359794D02*
X111037475Y-78407413D01*
X112227951Y-78121699D02*
X112323189Y-78121699D01*
X112323189Y-78121699D02*
X112418427Y-78169318D01*
X112418427Y-78169318D02*
X112466046Y-78216937D01*
X112466046Y-78216937D02*
X112513665Y-78312175D01*
X112513665Y-78312175D02*
X112561284Y-78502651D01*
X112561284Y-78502651D02*
X112561284Y-78740746D01*
X112561284Y-78740746D02*
X112513665Y-78931222D01*
X112513665Y-78931222D02*
X112466046Y-79026460D01*
X112466046Y-79026460D02*
X112418427Y-79074080D01*
X112418427Y-79074080D02*
X112323189Y-79121699D01*
X112323189Y-79121699D02*
X112227951Y-79121699D01*
X112227951Y-79121699D02*
X112132713Y-79074080D01*
X112132713Y-79074080D02*
X112085094Y-79026460D01*
X112085094Y-79026460D02*
X112037475Y-78931222D01*
X112037475Y-78931222D02*
X111989856Y-78740746D01*
X111989856Y-78740746D02*
X111989856Y-78502651D01*
X111989856Y-78502651D02*
X112037475Y-78312175D01*
X112037475Y-78312175D02*
X112085094Y-78216937D01*
X112085094Y-78216937D02*
X112132713Y-78169318D01*
X112132713Y-78169318D02*
X112227951Y-78121699D01*
X100070213Y-72663960D02*
X100022594Y-72711580D01*
X100022594Y-72711580D02*
X99879737Y-72759199D01*
X99879737Y-72759199D02*
X99784499Y-72759199D01*
X99784499Y-72759199D02*
X99641642Y-72711580D01*
X99641642Y-72711580D02*
X99546404Y-72616341D01*
X99546404Y-72616341D02*
X99498785Y-72521103D01*
X99498785Y-72521103D02*
X99451166Y-72330627D01*
X99451166Y-72330627D02*
X99451166Y-72187770D01*
X99451166Y-72187770D02*
X99498785Y-71997294D01*
X99498785Y-71997294D02*
X99546404Y-71902056D01*
X99546404Y-71902056D02*
X99641642Y-71806818D01*
X99641642Y-71806818D02*
X99784499Y-71759199D01*
X99784499Y-71759199D02*
X99879737Y-71759199D01*
X99879737Y-71759199D02*
X100022594Y-71806818D01*
X100022594Y-71806818D02*
X100070213Y-71854437D01*
X100403547Y-71759199D02*
X101070213Y-71759199D01*
X101070213Y-71759199D02*
X100641642Y-72759199D01*
X101491047Y-83511580D02*
X101633904Y-83559199D01*
X101633904Y-83559199D02*
X101871999Y-83559199D01*
X101871999Y-83559199D02*
X101967237Y-83511580D01*
X101967237Y-83511580D02*
X102014856Y-83463960D01*
X102014856Y-83463960D02*
X102062475Y-83368722D01*
X102062475Y-83368722D02*
X102062475Y-83273484D01*
X102062475Y-83273484D02*
X102014856Y-83178246D01*
X102014856Y-83178246D02*
X101967237Y-83130627D01*
X101967237Y-83130627D02*
X101871999Y-83083008D01*
X101871999Y-83083008D02*
X101681523Y-83035389D01*
X101681523Y-83035389D02*
X101586285Y-82987770D01*
X101586285Y-82987770D02*
X101538666Y-82940151D01*
X101538666Y-82940151D02*
X101491047Y-82844913D01*
X101491047Y-82844913D02*
X101491047Y-82749675D01*
X101491047Y-82749675D02*
X101538666Y-82654437D01*
X101538666Y-82654437D02*
X101586285Y-82606818D01*
X101586285Y-82606818D02*
X101681523Y-82559199D01*
X101681523Y-82559199D02*
X101919618Y-82559199D01*
X101919618Y-82559199D02*
X102062475Y-82606818D01*
X102395809Y-82559199D02*
X102633904Y-83559199D01*
X102633904Y-83559199D02*
X102824380Y-82844913D01*
X102824380Y-82844913D02*
X103014856Y-83559199D01*
X103014856Y-83559199D02*
X103252952Y-82559199D01*
X104062475Y-82892532D02*
X104062475Y-83559199D01*
X103824380Y-82511580D02*
X103586285Y-83225865D01*
X103586285Y-83225865D02*
X104205332Y-83225865D01*
X95147475Y-85389199D02*
X95147475Y-84389199D01*
X95147475Y-84865389D02*
X95718903Y-84865389D01*
X95718903Y-85389199D02*
X95718903Y-84389199D01*
X96147475Y-84484437D02*
X96195094Y-84436818D01*
X96195094Y-84436818D02*
X96290332Y-84389199D01*
X96290332Y-84389199D02*
X96528427Y-84389199D01*
X96528427Y-84389199D02*
X96623665Y-84436818D01*
X96623665Y-84436818D02*
X96671284Y-84484437D01*
X96671284Y-84484437D02*
X96718903Y-84579675D01*
X96718903Y-84579675D02*
X96718903Y-84674913D01*
X96718903Y-84674913D02*
X96671284Y-84817770D01*
X96671284Y-84817770D02*
X96099856Y-85389199D01*
X96099856Y-85389199D02*
X96718903Y-85389199D01*
X110957713Y-64109199D02*
X110624380Y-63633008D01*
X110386285Y-64109199D02*
X110386285Y-63109199D01*
X110386285Y-63109199D02*
X110767237Y-63109199D01*
X110767237Y-63109199D02*
X110862475Y-63156818D01*
X110862475Y-63156818D02*
X110910094Y-63204437D01*
X110910094Y-63204437D02*
X110957713Y-63299675D01*
X110957713Y-63299675D02*
X110957713Y-63442532D01*
X110957713Y-63442532D02*
X110910094Y-63537770D01*
X110910094Y-63537770D02*
X110862475Y-63585389D01*
X110862475Y-63585389D02*
X110767237Y-63633008D01*
X110767237Y-63633008D02*
X110386285Y-63633008D01*
X111910094Y-64109199D02*
X111338666Y-64109199D01*
X111624380Y-64109199D02*
X111624380Y-63109199D01*
X111624380Y-63109199D02*
X111529142Y-63252056D01*
X111529142Y-63252056D02*
X111433904Y-63347294D01*
X111433904Y-63347294D02*
X111338666Y-63394913D01*
X121312475Y-67759199D02*
X121312475Y-68568722D01*
X121312475Y-68568722D02*
X121360094Y-68663960D01*
X121360094Y-68663960D02*
X121407713Y-68711580D01*
X121407713Y-68711580D02*
X121502951Y-68759199D01*
X121502951Y-68759199D02*
X121693427Y-68759199D01*
X121693427Y-68759199D02*
X121788665Y-68711580D01*
X121788665Y-68711580D02*
X121836284Y-68663960D01*
X121836284Y-68663960D02*
X121883903Y-68568722D01*
X121883903Y-68568722D02*
X121883903Y-67759199D01*
X122883903Y-68759199D02*
X122312475Y-68759199D01*
X122598189Y-68759199D02*
X122598189Y-67759199D01*
X122598189Y-67759199D02*
X122502951Y-67902056D01*
X122502951Y-67902056D02*
X122407713Y-67997294D01*
X122407713Y-67997294D02*
X122312475Y-68044913D01*
X95097475Y-57459199D02*
X95097475Y-56459199D01*
X95097475Y-56935389D02*
X95668903Y-56935389D01*
X95668903Y-57459199D02*
X95668903Y-56459199D01*
X96668903Y-57459199D02*
X96097475Y-57459199D01*
X96383189Y-57459199D02*
X96383189Y-56459199D01*
X96383189Y-56459199D02*
X96287951Y-56602056D01*
X96287951Y-56602056D02*
X96192713Y-56697294D01*
X96192713Y-56697294D02*
X96097475Y-56744913D01*
X115477475Y-57309199D02*
X115477475Y-56309199D01*
X115477475Y-56785389D02*
X116048903Y-56785389D01*
X116048903Y-57309199D02*
X116048903Y-56309199D01*
X116429856Y-56309199D02*
X117048903Y-56309199D01*
X117048903Y-56309199D02*
X116715570Y-56690151D01*
X116715570Y-56690151D02*
X116858427Y-56690151D01*
X116858427Y-56690151D02*
X116953665Y-56737770D01*
X116953665Y-56737770D02*
X117001284Y-56785389D01*
X117001284Y-56785389D02*
X117048903Y-56880627D01*
X117048903Y-56880627D02*
X117048903Y-57118722D01*
X117048903Y-57118722D02*
X117001284Y-57213960D01*
X117001284Y-57213960D02*
X116953665Y-57261580D01*
X116953665Y-57261580D02*
X116858427Y-57309199D01*
X116858427Y-57309199D02*
X116572713Y-57309199D01*
X116572713Y-57309199D02*
X116477475Y-57261580D01*
X116477475Y-57261580D02*
X116429856Y-57213960D01*
X115157713Y-63459199D02*
X114824380Y-62983008D01*
X114586285Y-63459199D02*
X114586285Y-62459199D01*
X114586285Y-62459199D02*
X114967237Y-62459199D01*
X114967237Y-62459199D02*
X115062475Y-62506818D01*
X115062475Y-62506818D02*
X115110094Y-62554437D01*
X115110094Y-62554437D02*
X115157713Y-62649675D01*
X115157713Y-62649675D02*
X115157713Y-62792532D01*
X115157713Y-62792532D02*
X115110094Y-62887770D01*
X115110094Y-62887770D02*
X115062475Y-62935389D01*
X115062475Y-62935389D02*
X114967237Y-62983008D01*
X114967237Y-62983008D02*
X114586285Y-62983008D01*
X116062475Y-62459199D02*
X115586285Y-62459199D01*
X115586285Y-62459199D02*
X115538666Y-62935389D01*
X115538666Y-62935389D02*
X115586285Y-62887770D01*
X115586285Y-62887770D02*
X115681523Y-62840151D01*
X115681523Y-62840151D02*
X115919618Y-62840151D01*
X115919618Y-62840151D02*
X116014856Y-62887770D01*
X116014856Y-62887770D02*
X116062475Y-62935389D01*
X116062475Y-62935389D02*
X116110094Y-63030627D01*
X116110094Y-63030627D02*
X116110094Y-63268722D01*
X116110094Y-63268722D02*
X116062475Y-63363960D01*
X116062475Y-63363960D02*
X116014856Y-63411580D01*
X116014856Y-63411580D02*
X115919618Y-63459199D01*
X115919618Y-63459199D02*
X115681523Y-63459199D01*
X115681523Y-63459199D02*
X115586285Y-63411580D01*
X115586285Y-63411580D02*
X115538666Y-63363960D01*
X105107713Y-61213960D02*
X105060094Y-61261580D01*
X105060094Y-61261580D02*
X104917237Y-61309199D01*
X104917237Y-61309199D02*
X104821999Y-61309199D01*
X104821999Y-61309199D02*
X104679142Y-61261580D01*
X104679142Y-61261580D02*
X104583904Y-61166341D01*
X104583904Y-61166341D02*
X104536285Y-61071103D01*
X104536285Y-61071103D02*
X104488666Y-60880627D01*
X104488666Y-60880627D02*
X104488666Y-60737770D01*
X104488666Y-60737770D02*
X104536285Y-60547294D01*
X104536285Y-60547294D02*
X104583904Y-60452056D01*
X104583904Y-60452056D02*
X104679142Y-60356818D01*
X104679142Y-60356818D02*
X104821999Y-60309199D01*
X104821999Y-60309199D02*
X104917237Y-60309199D01*
X104917237Y-60309199D02*
X105060094Y-60356818D01*
X105060094Y-60356818D02*
X105107713Y-60404437D01*
X105441047Y-60309199D02*
X106060094Y-60309199D01*
X106060094Y-60309199D02*
X105726761Y-60690151D01*
X105726761Y-60690151D02*
X105869618Y-60690151D01*
X105869618Y-60690151D02*
X105964856Y-60737770D01*
X105964856Y-60737770D02*
X106012475Y-60785389D01*
X106012475Y-60785389D02*
X106060094Y-60880627D01*
X106060094Y-60880627D02*
X106060094Y-61118722D01*
X106060094Y-61118722D02*
X106012475Y-61213960D01*
X106012475Y-61213960D02*
X105964856Y-61261580D01*
X105964856Y-61261580D02*
X105869618Y-61309199D01*
X105869618Y-61309199D02*
X105583904Y-61309199D01*
X105583904Y-61309199D02*
X105488666Y-61261580D01*
X105488666Y-61261580D02*
X105441047Y-61213960D01*
X112062475Y-73709199D02*
X112062475Y-74518722D01*
X112062475Y-74518722D02*
X112110094Y-74613960D01*
X112110094Y-74613960D02*
X112157713Y-74661580D01*
X112157713Y-74661580D02*
X112252951Y-74709199D01*
X112252951Y-74709199D02*
X112443427Y-74709199D01*
X112443427Y-74709199D02*
X112538665Y-74661580D01*
X112538665Y-74661580D02*
X112586284Y-74613960D01*
X112586284Y-74613960D02*
X112633903Y-74518722D01*
X112633903Y-74518722D02*
X112633903Y-73709199D01*
X113062475Y-73804437D02*
X113110094Y-73756818D01*
X113110094Y-73756818D02*
X113205332Y-73709199D01*
X113205332Y-73709199D02*
X113443427Y-73709199D01*
X113443427Y-73709199D02*
X113538665Y-73756818D01*
X113538665Y-73756818D02*
X113586284Y-73804437D01*
X113586284Y-73804437D02*
X113633903Y-73899675D01*
X113633903Y-73899675D02*
X113633903Y-73994913D01*
X113633903Y-73994913D02*
X113586284Y-74137770D01*
X113586284Y-74137770D02*
X113014856Y-74709199D01*
X113014856Y-74709199D02*
X113633903Y-74709199D01*
X112757713Y-62863960D02*
X112710094Y-62911580D01*
X112710094Y-62911580D02*
X112567237Y-62959199D01*
X112567237Y-62959199D02*
X112471999Y-62959199D01*
X112471999Y-62959199D02*
X112329142Y-62911580D01*
X112329142Y-62911580D02*
X112233904Y-62816341D01*
X112233904Y-62816341D02*
X112186285Y-62721103D01*
X112186285Y-62721103D02*
X112138666Y-62530627D01*
X112138666Y-62530627D02*
X112138666Y-62387770D01*
X112138666Y-62387770D02*
X112186285Y-62197294D01*
X112186285Y-62197294D02*
X112233904Y-62102056D01*
X112233904Y-62102056D02*
X112329142Y-62006818D01*
X112329142Y-62006818D02*
X112471999Y-61959199D01*
X112471999Y-61959199D02*
X112567237Y-61959199D01*
X112567237Y-61959199D02*
X112710094Y-62006818D01*
X112710094Y-62006818D02*
X112757713Y-62054437D01*
X113329142Y-62387770D02*
X113233904Y-62340151D01*
X113233904Y-62340151D02*
X113186285Y-62292532D01*
X113186285Y-62292532D02*
X113138666Y-62197294D01*
X113138666Y-62197294D02*
X113138666Y-62149675D01*
X113138666Y-62149675D02*
X113186285Y-62054437D01*
X113186285Y-62054437D02*
X113233904Y-62006818D01*
X113233904Y-62006818D02*
X113329142Y-61959199D01*
X113329142Y-61959199D02*
X113519618Y-61959199D01*
X113519618Y-61959199D02*
X113614856Y-62006818D01*
X113614856Y-62006818D02*
X113662475Y-62054437D01*
X113662475Y-62054437D02*
X113710094Y-62149675D01*
X113710094Y-62149675D02*
X113710094Y-62197294D01*
X113710094Y-62197294D02*
X113662475Y-62292532D01*
X113662475Y-62292532D02*
X113614856Y-62340151D01*
X113614856Y-62340151D02*
X113519618Y-62387770D01*
X113519618Y-62387770D02*
X113329142Y-62387770D01*
X113329142Y-62387770D02*
X113233904Y-62435389D01*
X113233904Y-62435389D02*
X113186285Y-62483008D01*
X113186285Y-62483008D02*
X113138666Y-62578246D01*
X113138666Y-62578246D02*
X113138666Y-62768722D01*
X113138666Y-62768722D02*
X113186285Y-62863960D01*
X113186285Y-62863960D02*
X113233904Y-62911580D01*
X113233904Y-62911580D02*
X113329142Y-62959199D01*
X113329142Y-62959199D02*
X113519618Y-62959199D01*
X113519618Y-62959199D02*
X113614856Y-62911580D01*
X113614856Y-62911580D02*
X113662475Y-62863960D01*
X113662475Y-62863960D02*
X113710094Y-62768722D01*
X113710094Y-62768722D02*
X113710094Y-62578246D01*
X113710094Y-62578246D02*
X113662475Y-62483008D01*
X113662475Y-62483008D02*
X113614856Y-62435389D01*
X113614856Y-62435389D02*
X113519618Y-62387770D01*
X97148189Y-70333008D02*
X97148189Y-70809199D01*
X96814856Y-69809199D02*
X97148189Y-70333008D01*
X97148189Y-70333008D02*
X97481522Y-69809199D01*
X98338665Y-70809199D02*
X97767237Y-70809199D01*
X98052951Y-70809199D02*
X98052951Y-69809199D01*
X98052951Y-69809199D02*
X97957713Y-69952056D01*
X97957713Y-69952056D02*
X97862475Y-70047294D01*
X97862475Y-70047294D02*
X97767237Y-70094913D01*
X105955389Y-78687713D02*
X105955389Y-79021046D01*
X106479199Y-79021046D02*
X105479199Y-79021046D01*
X105479199Y-79021046D02*
X105479199Y-78544856D01*
X105955389Y-77830570D02*
X106003008Y-77687713D01*
X106003008Y-77687713D02*
X106050627Y-77640094D01*
X106050627Y-77640094D02*
X106145865Y-77592475D01*
X106145865Y-77592475D02*
X106288722Y-77592475D01*
X106288722Y-77592475D02*
X106383960Y-77640094D01*
X106383960Y-77640094D02*
X106431580Y-77687713D01*
X106431580Y-77687713D02*
X106479199Y-77782951D01*
X106479199Y-77782951D02*
X106479199Y-78163903D01*
X106479199Y-78163903D02*
X105479199Y-78163903D01*
X105479199Y-78163903D02*
X105479199Y-77830570D01*
X105479199Y-77830570D02*
X105526818Y-77735332D01*
X105526818Y-77735332D02*
X105574437Y-77687713D01*
X105574437Y-77687713D02*
X105669675Y-77640094D01*
X105669675Y-77640094D02*
X105764913Y-77640094D01*
X105764913Y-77640094D02*
X105860151Y-77687713D01*
X105860151Y-77687713D02*
X105907770Y-77735332D01*
X105907770Y-77735332D02*
X105955389Y-77830570D01*
X105955389Y-77830570D02*
X105955389Y-78163903D01*
X106479199Y-76640094D02*
X106479199Y-77211522D01*
X106479199Y-76925808D02*
X105479199Y-76925808D01*
X105479199Y-76925808D02*
X105622056Y-77021046D01*
X105622056Y-77021046D02*
X105717294Y-77116284D01*
X105717294Y-77116284D02*
X105764913Y-77211522D01*
X120407713Y-64363960D02*
X120360094Y-64411580D01*
X120360094Y-64411580D02*
X120217237Y-64459199D01*
X120217237Y-64459199D02*
X120121999Y-64459199D01*
X120121999Y-64459199D02*
X119979142Y-64411580D01*
X119979142Y-64411580D02*
X119883904Y-64316341D01*
X119883904Y-64316341D02*
X119836285Y-64221103D01*
X119836285Y-64221103D02*
X119788666Y-64030627D01*
X119788666Y-64030627D02*
X119788666Y-63887770D01*
X119788666Y-63887770D02*
X119836285Y-63697294D01*
X119836285Y-63697294D02*
X119883904Y-63602056D01*
X119883904Y-63602056D02*
X119979142Y-63506818D01*
X119979142Y-63506818D02*
X120121999Y-63459199D01*
X120121999Y-63459199D02*
X120217237Y-63459199D01*
X120217237Y-63459199D02*
X120360094Y-63506818D01*
X120360094Y-63506818D02*
X120407713Y-63554437D01*
X120788666Y-63554437D02*
X120836285Y-63506818D01*
X120836285Y-63506818D02*
X120931523Y-63459199D01*
X120931523Y-63459199D02*
X121169618Y-63459199D01*
X121169618Y-63459199D02*
X121264856Y-63506818D01*
X121264856Y-63506818D02*
X121312475Y-63554437D01*
X121312475Y-63554437D02*
X121360094Y-63649675D01*
X121360094Y-63649675D02*
X121360094Y-63744913D01*
X121360094Y-63744913D02*
X121312475Y-63887770D01*
X121312475Y-63887770D02*
X120741047Y-64459199D01*
X120741047Y-64459199D02*
X121360094Y-64459199D01*
X101831522Y-78913960D02*
X101783903Y-78961580D01*
X101783903Y-78961580D02*
X101641046Y-79009199D01*
X101641046Y-79009199D02*
X101545808Y-79009199D01*
X101545808Y-79009199D02*
X101402951Y-78961580D01*
X101402951Y-78961580D02*
X101307713Y-78866341D01*
X101307713Y-78866341D02*
X101260094Y-78771103D01*
X101260094Y-78771103D02*
X101212475Y-78580627D01*
X101212475Y-78580627D02*
X101212475Y-78437770D01*
X101212475Y-78437770D02*
X101260094Y-78247294D01*
X101260094Y-78247294D02*
X101307713Y-78152056D01*
X101307713Y-78152056D02*
X101402951Y-78056818D01*
X101402951Y-78056818D02*
X101545808Y-78009199D01*
X101545808Y-78009199D02*
X101641046Y-78009199D01*
X101641046Y-78009199D02*
X101783903Y-78056818D01*
X101783903Y-78056818D02*
X101831522Y-78104437D01*
X102783903Y-79009199D02*
X102212475Y-79009199D01*
X102498189Y-79009199D02*
X102498189Y-78009199D01*
X102498189Y-78009199D02*
X102402951Y-78152056D01*
X102402951Y-78152056D02*
X102307713Y-78247294D01*
X102307713Y-78247294D02*
X102212475Y-78294913D01*
X103164856Y-78104437D02*
X103212475Y-78056818D01*
X103212475Y-78056818D02*
X103307713Y-78009199D01*
X103307713Y-78009199D02*
X103545808Y-78009199D01*
X103545808Y-78009199D02*
X103641046Y-78056818D01*
X103641046Y-78056818D02*
X103688665Y-78104437D01*
X103688665Y-78104437D02*
X103736284Y-78199675D01*
X103736284Y-78199675D02*
X103736284Y-78294913D01*
X103736284Y-78294913D02*
X103688665Y-78437770D01*
X103688665Y-78437770D02*
X103117237Y-79009199D01*
X103117237Y-79009199D02*
X103736284Y-79009199D01*
X114157713Y-81509199D02*
X113824380Y-81033008D01*
X113586285Y-81509199D02*
X113586285Y-80509199D01*
X113586285Y-80509199D02*
X113967237Y-80509199D01*
X113967237Y-80509199D02*
X114062475Y-80556818D01*
X114062475Y-80556818D02*
X114110094Y-80604437D01*
X114110094Y-80604437D02*
X114157713Y-80699675D01*
X114157713Y-80699675D02*
X114157713Y-80842532D01*
X114157713Y-80842532D02*
X114110094Y-80937770D01*
X114110094Y-80937770D02*
X114062475Y-80985389D01*
X114062475Y-80985389D02*
X113967237Y-81033008D01*
X113967237Y-81033008D02*
X113586285Y-81033008D01*
X115014856Y-80842532D02*
X115014856Y-81509199D01*
X114776761Y-80461580D02*
X114538666Y-81175865D01*
X114538666Y-81175865D02*
X115157713Y-81175865D01*
X115727475Y-85339199D02*
X115727475Y-84339199D01*
X115727475Y-84815389D02*
X116298903Y-84815389D01*
X116298903Y-85339199D02*
X116298903Y-84339199D01*
X117203665Y-84672532D02*
X117203665Y-85339199D01*
X116965570Y-84291580D02*
X116727475Y-85005865D01*
X116727475Y-85005865D02*
X117346522Y-85005865D01*
X114441046Y-57559199D02*
X114441046Y-58273484D01*
X114441046Y-58273484D02*
X114393427Y-58416341D01*
X114393427Y-58416341D02*
X114298189Y-58511580D01*
X114298189Y-58511580D02*
X114155332Y-58559199D01*
X114155332Y-58559199D02*
X114060094Y-58559199D01*
X115441046Y-58559199D02*
X114869618Y-58559199D01*
X115155332Y-58559199D02*
X115155332Y-57559199D01*
X115155332Y-57559199D02*
X115060094Y-57702056D01*
X115060094Y-57702056D02*
X114964856Y-57797294D01*
X114964856Y-57797294D02*
X114869618Y-57844913D01*
X102357713Y-62613960D02*
X102310094Y-62661580D01*
X102310094Y-62661580D02*
X102167237Y-62709199D01*
X102167237Y-62709199D02*
X102071999Y-62709199D01*
X102071999Y-62709199D02*
X101929142Y-62661580D01*
X101929142Y-62661580D02*
X101833904Y-62566341D01*
X101833904Y-62566341D02*
X101786285Y-62471103D01*
X101786285Y-62471103D02*
X101738666Y-62280627D01*
X101738666Y-62280627D02*
X101738666Y-62137770D01*
X101738666Y-62137770D02*
X101786285Y-61947294D01*
X101786285Y-61947294D02*
X101833904Y-61852056D01*
X101833904Y-61852056D02*
X101929142Y-61756818D01*
X101929142Y-61756818D02*
X102071999Y-61709199D01*
X102071999Y-61709199D02*
X102167237Y-61709199D01*
X102167237Y-61709199D02*
X102310094Y-61756818D01*
X102310094Y-61756818D02*
X102357713Y-61804437D01*
X102833904Y-62709199D02*
X103024380Y-62709199D01*
X103024380Y-62709199D02*
X103119618Y-62661580D01*
X103119618Y-62661580D02*
X103167237Y-62613960D01*
X103167237Y-62613960D02*
X103262475Y-62471103D01*
X103262475Y-62471103D02*
X103310094Y-62280627D01*
X103310094Y-62280627D02*
X103310094Y-61899675D01*
X103310094Y-61899675D02*
X103262475Y-61804437D01*
X103262475Y-61804437D02*
X103214856Y-61756818D01*
X103214856Y-61756818D02*
X103119618Y-61709199D01*
X103119618Y-61709199D02*
X102929142Y-61709199D01*
X102929142Y-61709199D02*
X102833904Y-61756818D01*
X102833904Y-61756818D02*
X102786285Y-61804437D01*
X102786285Y-61804437D02*
X102738666Y-61899675D01*
X102738666Y-61899675D02*
X102738666Y-62137770D01*
X102738666Y-62137770D02*
X102786285Y-62233008D01*
X102786285Y-62233008D02*
X102833904Y-62280627D01*
X102833904Y-62280627D02*
X102929142Y-62328246D01*
X102929142Y-62328246D02*
X103119618Y-62328246D01*
X103119618Y-62328246D02*
X103214856Y-62280627D01*
X103214856Y-62280627D02*
X103262475Y-62233008D01*
X103262475Y-62233008D02*
X103310094Y-62137770D01*
X109183960Y-78497237D02*
X109231580Y-78544856D01*
X109231580Y-78544856D02*
X109279199Y-78687713D01*
X109279199Y-78687713D02*
X109279199Y-78782951D01*
X109279199Y-78782951D02*
X109231580Y-78925808D01*
X109231580Y-78925808D02*
X109136341Y-79021046D01*
X109136341Y-79021046D02*
X109041103Y-79068665D01*
X109041103Y-79068665D02*
X108850627Y-79116284D01*
X108850627Y-79116284D02*
X108707770Y-79116284D01*
X108707770Y-79116284D02*
X108517294Y-79068665D01*
X108517294Y-79068665D02*
X108422056Y-79021046D01*
X108422056Y-79021046D02*
X108326818Y-78925808D01*
X108326818Y-78925808D02*
X108279199Y-78782951D01*
X108279199Y-78782951D02*
X108279199Y-78687713D01*
X108279199Y-78687713D02*
X108326818Y-78544856D01*
X108326818Y-78544856D02*
X108374437Y-78497237D01*
X109279199Y-77544856D02*
X109279199Y-78116284D01*
X109279199Y-77830570D02*
X108279199Y-77830570D01*
X108279199Y-77830570D02*
X108422056Y-77925808D01*
X108422056Y-77925808D02*
X108517294Y-78021046D01*
X108517294Y-78021046D02*
X108564913Y-78116284D01*
X108279199Y-77211522D02*
X108279199Y-76592475D01*
X108279199Y-76592475D02*
X108660151Y-76925808D01*
X108660151Y-76925808D02*
X108660151Y-76782951D01*
X108660151Y-76782951D02*
X108707770Y-76687713D01*
X108707770Y-76687713D02*
X108755389Y-76640094D01*
X108755389Y-76640094D02*
X108850627Y-76592475D01*
X108850627Y-76592475D02*
X109088722Y-76592475D01*
X109088722Y-76592475D02*
X109183960Y-76640094D01*
X109183960Y-76640094D02*
X109231580Y-76687713D01*
X109231580Y-76687713D02*
X109279199Y-76782951D01*
X109279199Y-76782951D02*
X109279199Y-77068665D01*
X109279199Y-77068665D02*
X109231580Y-77163903D01*
X109231580Y-77163903D02*
X109183960Y-77211522D01*
X117457713Y-77359199D02*
X117124380Y-76883008D01*
X116886285Y-77359199D02*
X116886285Y-76359199D01*
X116886285Y-76359199D02*
X117267237Y-76359199D01*
X117267237Y-76359199D02*
X117362475Y-76406818D01*
X117362475Y-76406818D02*
X117410094Y-76454437D01*
X117410094Y-76454437D02*
X117457713Y-76549675D01*
X117457713Y-76549675D02*
X117457713Y-76692532D01*
X117457713Y-76692532D02*
X117410094Y-76787770D01*
X117410094Y-76787770D02*
X117362475Y-76835389D01*
X117362475Y-76835389D02*
X117267237Y-76883008D01*
X117267237Y-76883008D02*
X116886285Y-76883008D01*
X117791047Y-76359199D02*
X118410094Y-76359199D01*
X118410094Y-76359199D02*
X118076761Y-76740151D01*
X118076761Y-76740151D02*
X118219618Y-76740151D01*
X118219618Y-76740151D02*
X118314856Y-76787770D01*
X118314856Y-76787770D02*
X118362475Y-76835389D01*
X118362475Y-76835389D02*
X118410094Y-76930627D01*
X118410094Y-76930627D02*
X118410094Y-77168722D01*
X118410094Y-77168722D02*
X118362475Y-77263960D01*
X118362475Y-77263960D02*
X118314856Y-77311580D01*
X118314856Y-77311580D02*
X118219618Y-77359199D01*
X118219618Y-77359199D02*
X117933904Y-77359199D01*
X117933904Y-77359199D02*
X117838666Y-77311580D01*
X117838666Y-77311580D02*
X117791047Y-77263960D01*
X113941046Y-54209199D02*
X113941046Y-54923484D01*
X113941046Y-54923484D02*
X113893427Y-55066341D01*
X113893427Y-55066341D02*
X113798189Y-55161580D01*
X113798189Y-55161580D02*
X113655332Y-55209199D01*
X113655332Y-55209199D02*
X113560094Y-55209199D01*
X114321999Y-54209199D02*
X114941046Y-54209199D01*
X114941046Y-54209199D02*
X114607713Y-54590151D01*
X114607713Y-54590151D02*
X114750570Y-54590151D01*
X114750570Y-54590151D02*
X114845808Y-54637770D01*
X114845808Y-54637770D02*
X114893427Y-54685389D01*
X114893427Y-54685389D02*
X114941046Y-54780627D01*
X114941046Y-54780627D02*
X114941046Y-55018722D01*
X114941046Y-55018722D02*
X114893427Y-55113960D01*
X114893427Y-55113960D02*
X114845808Y-55161580D01*
X114845808Y-55161580D02*
X114750570Y-55209199D01*
X114750570Y-55209199D02*
X114464856Y-55209199D01*
X114464856Y-55209199D02*
X114369618Y-55161580D01*
X114369618Y-55161580D02*
X114321999Y-55113960D01*
X100132713Y-75793960D02*
X100085094Y-75841580D01*
X100085094Y-75841580D02*
X99942237Y-75889199D01*
X99942237Y-75889199D02*
X99846999Y-75889199D01*
X99846999Y-75889199D02*
X99704142Y-75841580D01*
X99704142Y-75841580D02*
X99608904Y-75746341D01*
X99608904Y-75746341D02*
X99561285Y-75651103D01*
X99561285Y-75651103D02*
X99513666Y-75460627D01*
X99513666Y-75460627D02*
X99513666Y-75317770D01*
X99513666Y-75317770D02*
X99561285Y-75127294D01*
X99561285Y-75127294D02*
X99608904Y-75032056D01*
X99608904Y-75032056D02*
X99704142Y-74936818D01*
X99704142Y-74936818D02*
X99846999Y-74889199D01*
X99846999Y-74889199D02*
X99942237Y-74889199D01*
X99942237Y-74889199D02*
X100085094Y-74936818D01*
X100085094Y-74936818D02*
X100132713Y-74984437D01*
X100989856Y-75222532D02*
X100989856Y-75889199D01*
X100751761Y-74841580D02*
X100513666Y-75555865D01*
X100513666Y-75555865D02*
X101132713Y-75555865D01*
X118457713Y-64363960D02*
X118410094Y-64411580D01*
X118410094Y-64411580D02*
X118267237Y-64459199D01*
X118267237Y-64459199D02*
X118171999Y-64459199D01*
X118171999Y-64459199D02*
X118029142Y-64411580D01*
X118029142Y-64411580D02*
X117933904Y-64316341D01*
X117933904Y-64316341D02*
X117886285Y-64221103D01*
X117886285Y-64221103D02*
X117838666Y-64030627D01*
X117838666Y-64030627D02*
X117838666Y-63887770D01*
X117838666Y-63887770D02*
X117886285Y-63697294D01*
X117886285Y-63697294D02*
X117933904Y-63602056D01*
X117933904Y-63602056D02*
X118029142Y-63506818D01*
X118029142Y-63506818D02*
X118171999Y-63459199D01*
X118171999Y-63459199D02*
X118267237Y-63459199D01*
X118267237Y-63459199D02*
X118410094Y-63506818D01*
X118410094Y-63506818D02*
X118457713Y-63554437D01*
X119410094Y-64459199D02*
X118838666Y-64459199D01*
X119124380Y-64459199D02*
X119124380Y-63459199D01*
X119124380Y-63459199D02*
X119029142Y-63602056D01*
X119029142Y-63602056D02*
X118933904Y-63697294D01*
X118933904Y-63697294D02*
X118838666Y-63744913D01*
X99895213Y-64126460D02*
X99847594Y-64174080D01*
X99847594Y-64174080D02*
X99704737Y-64221699D01*
X99704737Y-64221699D02*
X99609499Y-64221699D01*
X99609499Y-64221699D02*
X99466642Y-64174080D01*
X99466642Y-64174080D02*
X99371404Y-64078841D01*
X99371404Y-64078841D02*
X99323785Y-63983603D01*
X99323785Y-63983603D02*
X99276166Y-63793127D01*
X99276166Y-63793127D02*
X99276166Y-63650270D01*
X99276166Y-63650270D02*
X99323785Y-63459794D01*
X99323785Y-63459794D02*
X99371404Y-63364556D01*
X99371404Y-63364556D02*
X99466642Y-63269318D01*
X99466642Y-63269318D02*
X99609499Y-63221699D01*
X99609499Y-63221699D02*
X99704737Y-63221699D01*
X99704737Y-63221699D02*
X99847594Y-63269318D01*
X99847594Y-63269318D02*
X99895213Y-63316937D01*
X100799975Y-63221699D02*
X100323785Y-63221699D01*
X100323785Y-63221699D02*
X100276166Y-63697889D01*
X100276166Y-63697889D02*
X100323785Y-63650270D01*
X100323785Y-63650270D02*
X100419023Y-63602651D01*
X100419023Y-63602651D02*
X100657118Y-63602651D01*
X100657118Y-63602651D02*
X100752356Y-63650270D01*
X100752356Y-63650270D02*
X100799975Y-63697889D01*
X100799975Y-63697889D02*
X100847594Y-63793127D01*
X100847594Y-63793127D02*
X100847594Y-64031222D01*
X100847594Y-64031222D02*
X100799975Y-64126460D01*
X100799975Y-64126460D02*
X100752356Y-64174080D01*
X100752356Y-64174080D02*
X100657118Y-64221699D01*
X100657118Y-64221699D02*
X100419023Y-64221699D01*
X100419023Y-64221699D02*
X100323785Y-64174080D01*
X100323785Y-64174080D02*
X100276166Y-64126460D01*
X115132713Y-67859199D02*
X114799380Y-67383008D01*
X114561285Y-67859199D02*
X114561285Y-66859199D01*
X114561285Y-66859199D02*
X114942237Y-66859199D01*
X114942237Y-66859199D02*
X115037475Y-66906818D01*
X115037475Y-66906818D02*
X115085094Y-66954437D01*
X115085094Y-66954437D02*
X115132713Y-67049675D01*
X115132713Y-67049675D02*
X115132713Y-67192532D01*
X115132713Y-67192532D02*
X115085094Y-67287770D01*
X115085094Y-67287770D02*
X115037475Y-67335389D01*
X115037475Y-67335389D02*
X114942237Y-67383008D01*
X114942237Y-67383008D02*
X114561285Y-67383008D01*
X115466047Y-66859199D02*
X116085094Y-66859199D01*
X116085094Y-66859199D02*
X115751761Y-67240151D01*
X115751761Y-67240151D02*
X115894618Y-67240151D01*
X115894618Y-67240151D02*
X115989856Y-67287770D01*
X115989856Y-67287770D02*
X116037475Y-67335389D01*
X116037475Y-67335389D02*
X116085094Y-67430627D01*
X116085094Y-67430627D02*
X116085094Y-67668722D01*
X116085094Y-67668722D02*
X116037475Y-67763960D01*
X116037475Y-67763960D02*
X115989856Y-67811580D01*
X115989856Y-67811580D02*
X115894618Y-67859199D01*
X115894618Y-67859199D02*
X115608904Y-67859199D01*
X115608904Y-67859199D02*
X115513666Y-67811580D01*
X115513666Y-67811580D02*
X115466047Y-67763960D01*
X120536285Y-76859199D02*
X120536285Y-75859199D01*
X120536285Y-75859199D02*
X120774380Y-75859199D01*
X120774380Y-75859199D02*
X120917237Y-75906818D01*
X120917237Y-75906818D02*
X121012475Y-76002056D01*
X121012475Y-76002056D02*
X121060094Y-76097294D01*
X121060094Y-76097294D02*
X121107713Y-76287770D01*
X121107713Y-76287770D02*
X121107713Y-76430627D01*
X121107713Y-76430627D02*
X121060094Y-76621103D01*
X121060094Y-76621103D02*
X121012475Y-76716341D01*
X121012475Y-76716341D02*
X120917237Y-76811580D01*
X120917237Y-76811580D02*
X120774380Y-76859199D01*
X120774380Y-76859199D02*
X120536285Y-76859199D01*
X122060094Y-76859199D02*
X121488666Y-76859199D01*
X121774380Y-76859199D02*
X121774380Y-75859199D01*
X121774380Y-75859199D02*
X121679142Y-76002056D01*
X121679142Y-76002056D02*
X121583904Y-76097294D01*
X121583904Y-76097294D02*
X121488666Y-76144913D01*
X102631522Y-74463960D02*
X102583903Y-74511580D01*
X102583903Y-74511580D02*
X102441046Y-74559199D01*
X102441046Y-74559199D02*
X102345808Y-74559199D01*
X102345808Y-74559199D02*
X102202951Y-74511580D01*
X102202951Y-74511580D02*
X102107713Y-74416341D01*
X102107713Y-74416341D02*
X102060094Y-74321103D01*
X102060094Y-74321103D02*
X102012475Y-74130627D01*
X102012475Y-74130627D02*
X102012475Y-73987770D01*
X102012475Y-73987770D02*
X102060094Y-73797294D01*
X102060094Y-73797294D02*
X102107713Y-73702056D01*
X102107713Y-73702056D02*
X102202951Y-73606818D01*
X102202951Y-73606818D02*
X102345808Y-73559199D01*
X102345808Y-73559199D02*
X102441046Y-73559199D01*
X102441046Y-73559199D02*
X102583903Y-73606818D01*
X102583903Y-73606818D02*
X102631522Y-73654437D01*
X103583903Y-74559199D02*
X103012475Y-74559199D01*
X103298189Y-74559199D02*
X103298189Y-73559199D01*
X103298189Y-73559199D02*
X103202951Y-73702056D01*
X103202951Y-73702056D02*
X103107713Y-73797294D01*
X103107713Y-73797294D02*
X103012475Y-73844913D01*
X104536284Y-74559199D02*
X103964856Y-74559199D01*
X104250570Y-74559199D02*
X104250570Y-73559199D01*
X104250570Y-73559199D02*
X104155332Y-73702056D01*
X104155332Y-73702056D02*
X104060094Y-73797294D01*
X104060094Y-73797294D02*
X103964856Y-73844913D01*
X104407713Y-65663960D02*
X104360094Y-65711580D01*
X104360094Y-65711580D02*
X104217237Y-65759199D01*
X104217237Y-65759199D02*
X104121999Y-65759199D01*
X104121999Y-65759199D02*
X103979142Y-65711580D01*
X103979142Y-65711580D02*
X103883904Y-65616341D01*
X103883904Y-65616341D02*
X103836285Y-65521103D01*
X103836285Y-65521103D02*
X103788666Y-65330627D01*
X103788666Y-65330627D02*
X103788666Y-65187770D01*
X103788666Y-65187770D02*
X103836285Y-64997294D01*
X103836285Y-64997294D02*
X103883904Y-64902056D01*
X103883904Y-64902056D02*
X103979142Y-64806818D01*
X103979142Y-64806818D02*
X104121999Y-64759199D01*
X104121999Y-64759199D02*
X104217237Y-64759199D01*
X104217237Y-64759199D02*
X104360094Y-64806818D01*
X104360094Y-64806818D02*
X104407713Y-64854437D01*
X105264856Y-64759199D02*
X105074380Y-64759199D01*
X105074380Y-64759199D02*
X104979142Y-64806818D01*
X104979142Y-64806818D02*
X104931523Y-64854437D01*
X104931523Y-64854437D02*
X104836285Y-64997294D01*
X104836285Y-64997294D02*
X104788666Y-65187770D01*
X104788666Y-65187770D02*
X104788666Y-65568722D01*
X104788666Y-65568722D02*
X104836285Y-65663960D01*
X104836285Y-65663960D02*
X104883904Y-65711580D01*
X104883904Y-65711580D02*
X104979142Y-65759199D01*
X104979142Y-65759199D02*
X105169618Y-65759199D01*
X105169618Y-65759199D02*
X105264856Y-65711580D01*
X105264856Y-65711580D02*
X105312475Y-65663960D01*
X105312475Y-65663960D02*
X105360094Y-65568722D01*
X105360094Y-65568722D02*
X105360094Y-65330627D01*
X105360094Y-65330627D02*
X105312475Y-65235389D01*
X105312475Y-65235389D02*
X105264856Y-65187770D01*
X105264856Y-65187770D02*
X105169618Y-65140151D01*
X105169618Y-65140151D02*
X104979142Y-65140151D01*
X104979142Y-65140151D02*
X104883904Y-65187770D01*
X104883904Y-65187770D02*
X104836285Y-65235389D01*
X104836285Y-65235389D02*
X104788666Y-65330627D01*
D12*
%TO.C,R6*%
X102301880Y-53992122D02*
X102301880Y-54466638D01*
X103346880Y-53992122D02*
X103346880Y-54466638D01*
%TO.C,R2*%
X108337122Y-61431880D02*
X108811638Y-61431880D01*
X108337122Y-62476880D02*
X108811638Y-62476880D01*
%TO.C,C10*%
X111439960Y-76656880D02*
X111158800Y-76656880D01*
X111439960Y-77676880D02*
X111158800Y-77676880D01*
%TO.C,C7*%
X100121300Y-70094380D02*
X100402460Y-70094380D01*
X100121300Y-71114380D02*
X100402460Y-71114380D01*
%TO.C,SW4*%
X104424380Y-80254380D02*
X105294380Y-80254380D01*
X104424380Y-83954380D02*
X104424380Y-80254380D01*
X105304380Y-83954380D02*
X104424380Y-83954380D01*
X107254380Y-80254380D02*
X107804380Y-80254380D01*
X107804380Y-83954380D02*
X107244380Y-83954380D01*
X109744380Y-80254380D02*
X110304380Y-80254380D01*
X110274380Y-83954380D02*
X109744380Y-83954380D01*
X112244380Y-80254380D02*
X113124380Y-80254380D01*
X113124380Y-80254380D02*
X113124380Y-83954380D01*
X113124380Y-83954380D02*
X112274380Y-83954380D01*
X113424380Y-83254380D02*
X113424380Y-84254380D01*
X113424380Y-84254380D02*
X112424380Y-84254380D01*
%TO.C,R1*%
X108362122Y-63081880D02*
X108836638Y-63081880D01*
X108362122Y-64126880D02*
X108836638Y-64126880D01*
%TO.C,U1*%
X116474380Y-69194380D02*
X120234380Y-69194380D01*
X116474380Y-76014380D02*
X120234380Y-76014380D01*
X120234380Y-69194380D02*
X120234380Y-70454380D01*
X120234380Y-76014380D02*
X120234380Y-74754380D01*
X115194380Y-69294380D02*
X114954380Y-68964380D01*
X115434380Y-68964380D01*
X115194380Y-69294380D01*
G36*
X115194380Y-69294380D02*
G01*
X114954380Y-68964380D01*
X115434380Y-68964380D01*
X115194380Y-69294380D01*
G37*
%TO.C,R5*%
X115636638Y-63831880D02*
X115162122Y-63831880D01*
X115636638Y-64876880D02*
X115162122Y-64876880D01*
%TO.C,C3*%
X105008800Y-61744380D02*
X105289960Y-61744380D01*
X105008800Y-62764380D02*
X105289960Y-62764380D01*
%TO.C,U2*%
X105064380Y-66256880D02*
X105064380Y-66706880D01*
X105064380Y-73476880D02*
X105064380Y-73026880D01*
X105514380Y-66256880D02*
X105064380Y-66256880D01*
X105514380Y-73476880D02*
X105064380Y-73476880D01*
X111834380Y-66256880D02*
X112284380Y-66256880D01*
X111834380Y-73476880D02*
X112284380Y-73476880D01*
X112284380Y-66256880D02*
X112284380Y-66706880D01*
X112284380Y-73476880D02*
X112284380Y-73026880D01*
X104474380Y-66706880D02*
X104134380Y-66236880D01*
X104814380Y-66236880D01*
X104474380Y-66706880D01*
G36*
X104474380Y-66706880D02*
G01*
X104134380Y-66236880D01*
X104814380Y-66236880D01*
X104474380Y-66706880D01*
G37*
%TO.C,C8*%
X112464380Y-64719960D02*
X112464380Y-64438800D01*
X113484380Y-64719960D02*
X113484380Y-64438800D01*
%TO.C,Y1*%
X102036880Y-66166880D02*
X98036880Y-66166880D01*
X102036880Y-69466880D02*
X102036880Y-66166880D01*
%TO.C,FB1*%
X104114380Y-77604101D02*
X104114380Y-77929659D01*
X105134380Y-77604101D02*
X105134380Y-77929659D01*
%TO.C,C2*%
X119814380Y-65988800D02*
X119814380Y-66269960D01*
X120834380Y-65988800D02*
X120834380Y-66269960D01*
%TO.C,J2*%
X85774380Y-68274380D02*
X91774380Y-68274380D01*
X85774380Y-69034380D02*
X85774380Y-68274380D01*
X85774380Y-70814380D02*
X91774380Y-70814380D01*
X85774380Y-71574380D02*
X85774380Y-70814380D01*
X85774380Y-73354380D02*
X91774380Y-73354380D01*
X85774380Y-74114380D02*
X85774380Y-73354380D01*
X85774380Y-75894380D02*
X91774380Y-75894380D01*
X85774380Y-76654380D02*
X85774380Y-75894380D01*
X91774380Y-67324380D02*
X91774380Y-77604380D01*
X91774380Y-69034380D02*
X85774380Y-69034380D01*
X91774380Y-71574380D02*
X85774380Y-71574380D01*
X91774380Y-74114380D02*
X85774380Y-74114380D01*
X91774380Y-75994380D02*
X85774380Y-75994380D01*
X91774380Y-76114380D02*
X85774380Y-76114380D01*
X91774380Y-76234380D02*
X85774380Y-76234380D01*
X91774380Y-76354380D02*
X85774380Y-76354380D01*
X91774380Y-76474380D02*
X85774380Y-76474380D01*
X91774380Y-76594380D02*
X85774380Y-76594380D01*
X91774380Y-76654380D02*
X85774380Y-76654380D01*
X91774380Y-77604380D02*
X94434380Y-77604380D01*
X94434380Y-67324380D02*
X91774380Y-67324380D01*
X94434380Y-69924380D02*
X91774380Y-69924380D01*
X94434380Y-72464380D02*
X91774380Y-72464380D01*
X94434380Y-75004380D02*
X91774380Y-75004380D01*
X94434380Y-77604380D02*
X94434380Y-67324380D01*
X94764380Y-75894380D02*
X94434380Y-75894380D01*
X94764380Y-76654380D02*
X94434380Y-76654380D01*
X94831451Y-68274380D02*
X94434380Y-68274380D01*
X94831451Y-69034380D02*
X94434380Y-69034380D01*
X94831451Y-70814380D02*
X94434380Y-70814380D01*
X94831451Y-71574380D02*
X94434380Y-71574380D01*
X94831451Y-73354380D02*
X94434380Y-73354380D01*
X94831451Y-74114380D02*
X94434380Y-74114380D01*
X97144380Y-76274380D02*
X97144380Y-77544380D01*
X97144380Y-77544380D02*
X95874380Y-77544380D01*
%TO.C,C12*%
X102264380Y-76201300D02*
X102264380Y-76482460D01*
X103284380Y-76201300D02*
X103284380Y-76482460D01*
%TO.C,R4*%
X113801880Y-83566638D02*
X113801880Y-83092122D01*
X114846880Y-83566638D02*
X114846880Y-83092122D01*
%TO.C,J1*%
X103174380Y-56724380D02*
X103174380Y-59384380D01*
X110854380Y-56724380D02*
X103174380Y-56724380D01*
X110854380Y-56724380D02*
X110854380Y-59384380D01*
X110854380Y-59384380D02*
X103174380Y-59384380D01*
X112124380Y-56724380D02*
X113454380Y-56724380D01*
X113454380Y-56724380D02*
X113454380Y-58054380D01*
%TO.C,C9*%
X102014380Y-64569960D02*
X102014380Y-64288800D01*
X103034380Y-64569960D02*
X103034380Y-64288800D01*
%TO.C,C13*%
X106764380Y-77969960D02*
X106764380Y-77688800D01*
X107784380Y-77969960D02*
X107784380Y-77688800D01*
%TO.C,R3*%
X117362122Y-77681880D02*
X117836638Y-77681880D01*
X117362122Y-78726880D02*
X117836638Y-78726880D01*
D13*
%TO.C,J3*%
X104324380Y-52591880D02*
X104324380Y-53541880D01*
X105599380Y-52591880D02*
X104324380Y-52591880D01*
X113124380Y-52591880D02*
X112099380Y-52591880D01*
X113124380Y-52591880D02*
X113124380Y-53541880D01*
X105949380Y-56091880D02*
G75*
G02*
X105749380Y-56091880I-100000J0D01*
G01*
X105749380Y-56091880D02*
G75*
G02*
X105949380Y-56091880I100000J0D01*
G01*
D12*
%TO.C,C4*%
X100439960Y-73494380D02*
X100158800Y-73494380D01*
X100439960Y-74514380D02*
X100158800Y-74514380D01*
%TO.C,C1*%
X118214380Y-65988800D02*
X118214380Y-66269960D01*
X119234380Y-65988800D02*
X119234380Y-66269960D01*
%TO.C,C5*%
X100202460Y-64756880D02*
X99921300Y-64756880D01*
X100202460Y-65776880D02*
X99921300Y-65776880D01*
%TO.C,R3*%
X115137122Y-65431880D02*
X115611638Y-65431880D01*
X115137122Y-66476880D02*
X115611638Y-66476880D01*
%TO.C,D1*%
X119401880Y-77144380D02*
X119401880Y-79064380D01*
X119401880Y-79064380D02*
X122086880Y-79064380D01*
X122086880Y-77144380D02*
X119401880Y-77144380D01*
%TO.C,C11*%
X102164380Y-71801300D02*
X102164380Y-72082460D01*
X103184380Y-71801300D02*
X103184380Y-72082460D01*
%TO.C,C6*%
X105008800Y-63394380D02*
X105289960Y-63394380D01*
X105008800Y-64414380D02*
X105289960Y-64414380D01*
%TD*%
D14*
X111274380Y-83704380D03*
X108774380Y-83704380D03*
X106274380Y-83704380D03*
X111274380Y-80504380D03*
X108774380Y-80504380D03*
X106274380Y-80504380D03*
X98059380Y-82434380D03*
X98059380Y-59454380D03*
X118589380Y-59404380D03*
X95874380Y-76274380D03*
X95874380Y-73734380D03*
X95874380Y-71194380D03*
X95874380Y-68654380D03*
X118589380Y-82434380D03*
X112124380Y-58054380D03*
X109584380Y-58054380D03*
X107044380Y-58054380D03*
X104504380Y-58054380D03*
D15*
X112424380Y-54891880D03*
X105024380Y-54891880D03*
M02*
