%TF.GenerationSoftware,KiCad,Pcbnew,8.0.5*%
%TF.CreationDate,2024-09-25T23:10:08-04:00*%
%TF.ProjectId,kryptkey,6b727970-746b-4657-992e-6b696361645f,v0.1*%
%TF.SameCoordinates,Original*%
%TF.FileFunction,Soldermask,Bot*%
%TF.FilePolarity,Negative*%
%FSLAX46Y46*%
G04 Gerber Fmt 4.6, Leading zero omitted, Abs format (unit mm)*
G04 Created by KiCad (PCBNEW 8.0.5) date 2024-09-25 23:10:08*
%MOMM*%
%LPD*%
G01*
G04 APERTURE LIST*
%ADD10C,0.010000*%
%ADD11R,1.600000X1.600000*%
%ADD12C,1.600000*%
%ADD13C,2.700000*%
%ADD14R,0.900000X1.700000*%
%ADD15R,1.700000X1.700000*%
%ADD16O,1.700000X1.700000*%
G04 APERTURE END LIST*
D10*
%TO.C,J3*%
X105055380Y-53892880D02*
X105087380Y-53894880D01*
X105118380Y-53898880D01*
X105149380Y-53904880D01*
X105179380Y-53911880D01*
X105209380Y-53920880D01*
X105239380Y-53931880D01*
X105268380Y-53943880D01*
X105296380Y-53956880D01*
X105324380Y-53971880D01*
X105351380Y-53988880D01*
X105377380Y-54006880D01*
X105402380Y-54025880D01*
X105425380Y-54045880D01*
X105448380Y-54067880D01*
X105470380Y-54090880D01*
X105490380Y-54113880D01*
X105509380Y-54138880D01*
X105527380Y-54164880D01*
X105544380Y-54191880D01*
X105559380Y-54219880D01*
X105572380Y-54247880D01*
X105584380Y-54276880D01*
X105595380Y-54306880D01*
X105604380Y-54336880D01*
X105611380Y-54366880D01*
X105617380Y-54397880D01*
X105621380Y-54428880D01*
X105623380Y-54460880D01*
X105624380Y-54491880D01*
X105624380Y-55291880D01*
X105623380Y-55322880D01*
X105621380Y-55354880D01*
X105617380Y-55385880D01*
X105611380Y-55416880D01*
X105604380Y-55446880D01*
X105595380Y-55476880D01*
X105584380Y-55506880D01*
X105572380Y-55535880D01*
X105559380Y-55563880D01*
X105544380Y-55591880D01*
X105527380Y-55618880D01*
X105509380Y-55644880D01*
X105490380Y-55669880D01*
X105470380Y-55692880D01*
X105448380Y-55715880D01*
X105425380Y-55737880D01*
X105402380Y-55757880D01*
X105377380Y-55776880D01*
X105351380Y-55794880D01*
X105324380Y-55811880D01*
X105296380Y-55826880D01*
X105268380Y-55839880D01*
X105239380Y-55851880D01*
X105209380Y-55862880D01*
X105179380Y-55871880D01*
X105149380Y-55878880D01*
X105118380Y-55884880D01*
X105087380Y-55888880D01*
X105055380Y-55890880D01*
X105024380Y-55891880D01*
X104993380Y-55890880D01*
X104961380Y-55888880D01*
X104930380Y-55884880D01*
X104899380Y-55878880D01*
X104869380Y-55871880D01*
X104839380Y-55862880D01*
X104809380Y-55851880D01*
X104780380Y-55839880D01*
X104752380Y-55826880D01*
X104724380Y-55811880D01*
X104697380Y-55794880D01*
X104671380Y-55776880D01*
X104646380Y-55757880D01*
X104623380Y-55737880D01*
X104600380Y-55715880D01*
X104578380Y-55692880D01*
X104558380Y-55669880D01*
X104539380Y-55644880D01*
X104521380Y-55618880D01*
X104504380Y-55591880D01*
X104489380Y-55563880D01*
X104476380Y-55535880D01*
X104464380Y-55506880D01*
X104453380Y-55476880D01*
X104444380Y-55446880D01*
X104437380Y-55416880D01*
X104431380Y-55385880D01*
X104427380Y-55354880D01*
X104425380Y-55322880D01*
X104424380Y-55291880D01*
X104424380Y-54491880D01*
X104425380Y-54460880D01*
X104427380Y-54428880D01*
X104431380Y-54397880D01*
X104437380Y-54366880D01*
X104444380Y-54336880D01*
X104453380Y-54306880D01*
X104464380Y-54276880D01*
X104476380Y-54247880D01*
X104489380Y-54219880D01*
X104504380Y-54191880D01*
X104521380Y-54164880D01*
X104539380Y-54138880D01*
X104558380Y-54113880D01*
X104578380Y-54090880D01*
X104600380Y-54067880D01*
X104623380Y-54045880D01*
X104646380Y-54025880D01*
X104671380Y-54006880D01*
X104697380Y-53988880D01*
X104724380Y-53971880D01*
X104752380Y-53956880D01*
X104780380Y-53943880D01*
X104809380Y-53931880D01*
X104839380Y-53920880D01*
X104869380Y-53911880D01*
X104899380Y-53904880D01*
X104930380Y-53898880D01*
X104961380Y-53894880D01*
X104993380Y-53892880D01*
X105024380Y-53891880D01*
X105055380Y-53892880D01*
G36*
X105055380Y-53892880D02*
G01*
X105087380Y-53894880D01*
X105118380Y-53898880D01*
X105149380Y-53904880D01*
X105179380Y-53911880D01*
X105209380Y-53920880D01*
X105239380Y-53931880D01*
X105268380Y-53943880D01*
X105296380Y-53956880D01*
X105324380Y-53971880D01*
X105351380Y-53988880D01*
X105377380Y-54006880D01*
X105402380Y-54025880D01*
X105425380Y-54045880D01*
X105448380Y-54067880D01*
X105470380Y-54090880D01*
X105490380Y-54113880D01*
X105509380Y-54138880D01*
X105527380Y-54164880D01*
X105544380Y-54191880D01*
X105559380Y-54219880D01*
X105572380Y-54247880D01*
X105584380Y-54276880D01*
X105595380Y-54306880D01*
X105604380Y-54336880D01*
X105611380Y-54366880D01*
X105617380Y-54397880D01*
X105621380Y-54428880D01*
X105623380Y-54460880D01*
X105624380Y-54491880D01*
X105624380Y-55291880D01*
X105623380Y-55322880D01*
X105621380Y-55354880D01*
X105617380Y-55385880D01*
X105611380Y-55416880D01*
X105604380Y-55446880D01*
X105595380Y-55476880D01*
X105584380Y-55506880D01*
X105572380Y-55535880D01*
X105559380Y-55563880D01*
X105544380Y-55591880D01*
X105527380Y-55618880D01*
X105509380Y-55644880D01*
X105490380Y-55669880D01*
X105470380Y-55692880D01*
X105448380Y-55715880D01*
X105425380Y-55737880D01*
X105402380Y-55757880D01*
X105377380Y-55776880D01*
X105351380Y-55794880D01*
X105324380Y-55811880D01*
X105296380Y-55826880D01*
X105268380Y-55839880D01*
X105239380Y-55851880D01*
X105209380Y-55862880D01*
X105179380Y-55871880D01*
X105149380Y-55878880D01*
X105118380Y-55884880D01*
X105087380Y-55888880D01*
X105055380Y-55890880D01*
X105024380Y-55891880D01*
X104993380Y-55890880D01*
X104961380Y-55888880D01*
X104930380Y-55884880D01*
X104899380Y-55878880D01*
X104869380Y-55871880D01*
X104839380Y-55862880D01*
X104809380Y-55851880D01*
X104780380Y-55839880D01*
X104752380Y-55826880D01*
X104724380Y-55811880D01*
X104697380Y-55794880D01*
X104671380Y-55776880D01*
X104646380Y-55757880D01*
X104623380Y-55737880D01*
X104600380Y-55715880D01*
X104578380Y-55692880D01*
X104558380Y-55669880D01*
X104539380Y-55644880D01*
X104521380Y-55618880D01*
X104504380Y-55591880D01*
X104489380Y-55563880D01*
X104476380Y-55535880D01*
X104464380Y-55506880D01*
X104453380Y-55476880D01*
X104444380Y-55446880D01*
X104437380Y-55416880D01*
X104431380Y-55385880D01*
X104427380Y-55354880D01*
X104425380Y-55322880D01*
X104424380Y-55291880D01*
X104424380Y-54491880D01*
X104425380Y-54460880D01*
X104427380Y-54428880D01*
X104431380Y-54397880D01*
X104437380Y-54366880D01*
X104444380Y-54336880D01*
X104453380Y-54306880D01*
X104464380Y-54276880D01*
X104476380Y-54247880D01*
X104489380Y-54219880D01*
X104504380Y-54191880D01*
X104521380Y-54164880D01*
X104539380Y-54138880D01*
X104558380Y-54113880D01*
X104578380Y-54090880D01*
X104600380Y-54067880D01*
X104623380Y-54045880D01*
X104646380Y-54025880D01*
X104671380Y-54006880D01*
X104697380Y-53988880D01*
X104724380Y-53971880D01*
X104752380Y-53956880D01*
X104780380Y-53943880D01*
X104809380Y-53931880D01*
X104839380Y-53920880D01*
X104869380Y-53911880D01*
X104899380Y-53904880D01*
X104930380Y-53898880D01*
X104961380Y-53894880D01*
X104993380Y-53892880D01*
X105024380Y-53891880D01*
X105055380Y-53892880D01*
G37*
X112455380Y-53892880D02*
X112487380Y-53894880D01*
X112518380Y-53898880D01*
X112549380Y-53904880D01*
X112579380Y-53911880D01*
X112609380Y-53920880D01*
X112639380Y-53931880D01*
X112668380Y-53943880D01*
X112696380Y-53956880D01*
X112724380Y-53971880D01*
X112751380Y-53988880D01*
X112777380Y-54006880D01*
X112802380Y-54025880D01*
X112825380Y-54045880D01*
X112848380Y-54067880D01*
X112870380Y-54090880D01*
X112890380Y-54113880D01*
X112909380Y-54138880D01*
X112927380Y-54164880D01*
X112944380Y-54191880D01*
X112959380Y-54219880D01*
X112972380Y-54247880D01*
X112984380Y-54276880D01*
X112995380Y-54306880D01*
X113004380Y-54336880D01*
X113011380Y-54366880D01*
X113017380Y-54397880D01*
X113021380Y-54428880D01*
X113023380Y-54460880D01*
X113024380Y-54491880D01*
X113024380Y-55291880D01*
X113023380Y-55322880D01*
X113021380Y-55354880D01*
X113017380Y-55385880D01*
X113011380Y-55416880D01*
X113004380Y-55446880D01*
X112995380Y-55476880D01*
X112984380Y-55506880D01*
X112972380Y-55535880D01*
X112959380Y-55563880D01*
X112944380Y-55591880D01*
X112927380Y-55618880D01*
X112909380Y-55644880D01*
X112890380Y-55669880D01*
X112870380Y-55692880D01*
X112848380Y-55715880D01*
X112825380Y-55737880D01*
X112802380Y-55757880D01*
X112777380Y-55776880D01*
X112751380Y-55794880D01*
X112724380Y-55811880D01*
X112696380Y-55826880D01*
X112668380Y-55839880D01*
X112639380Y-55851880D01*
X112609380Y-55862880D01*
X112579380Y-55871880D01*
X112549380Y-55878880D01*
X112518380Y-55884880D01*
X112487380Y-55888880D01*
X112455380Y-55890880D01*
X112424380Y-55891880D01*
X112393380Y-55890880D01*
X112361380Y-55888880D01*
X112330380Y-55884880D01*
X112299380Y-55878880D01*
X112269380Y-55871880D01*
X112239380Y-55862880D01*
X112209380Y-55851880D01*
X112180380Y-55839880D01*
X112152380Y-55826880D01*
X112124380Y-55811880D01*
X112097380Y-55794880D01*
X112071380Y-55776880D01*
X112046380Y-55757880D01*
X112023380Y-55737880D01*
X112000380Y-55715880D01*
X111978380Y-55692880D01*
X111958380Y-55669880D01*
X111939380Y-55644880D01*
X111921380Y-55618880D01*
X111904380Y-55591880D01*
X111889380Y-55563880D01*
X111876380Y-55535880D01*
X111864380Y-55506880D01*
X111853380Y-55476880D01*
X111844380Y-55446880D01*
X111837380Y-55416880D01*
X111831380Y-55385880D01*
X111827380Y-55354880D01*
X111825380Y-55322880D01*
X111824380Y-55291880D01*
X111824380Y-54491880D01*
X111825380Y-54460880D01*
X111827380Y-54428880D01*
X111831380Y-54397880D01*
X111837380Y-54366880D01*
X111844380Y-54336880D01*
X111853380Y-54306880D01*
X111864380Y-54276880D01*
X111876380Y-54247880D01*
X111889380Y-54219880D01*
X111904380Y-54191880D01*
X111921380Y-54164880D01*
X111939380Y-54138880D01*
X111958380Y-54113880D01*
X111978380Y-54090880D01*
X112000380Y-54067880D01*
X112023380Y-54045880D01*
X112046380Y-54025880D01*
X112071380Y-54006880D01*
X112097380Y-53988880D01*
X112124380Y-53971880D01*
X112152380Y-53956880D01*
X112180380Y-53943880D01*
X112209380Y-53931880D01*
X112239380Y-53920880D01*
X112269380Y-53911880D01*
X112299380Y-53904880D01*
X112330380Y-53898880D01*
X112361380Y-53894880D01*
X112393380Y-53892880D01*
X112424380Y-53891880D01*
X112455380Y-53892880D01*
G36*
X112455380Y-53892880D02*
G01*
X112487380Y-53894880D01*
X112518380Y-53898880D01*
X112549380Y-53904880D01*
X112579380Y-53911880D01*
X112609380Y-53920880D01*
X112639380Y-53931880D01*
X112668380Y-53943880D01*
X112696380Y-53956880D01*
X112724380Y-53971880D01*
X112751380Y-53988880D01*
X112777380Y-54006880D01*
X112802380Y-54025880D01*
X112825380Y-54045880D01*
X112848380Y-54067880D01*
X112870380Y-54090880D01*
X112890380Y-54113880D01*
X112909380Y-54138880D01*
X112927380Y-54164880D01*
X112944380Y-54191880D01*
X112959380Y-54219880D01*
X112972380Y-54247880D01*
X112984380Y-54276880D01*
X112995380Y-54306880D01*
X113004380Y-54336880D01*
X113011380Y-54366880D01*
X113017380Y-54397880D01*
X113021380Y-54428880D01*
X113023380Y-54460880D01*
X113024380Y-54491880D01*
X113024380Y-55291880D01*
X113023380Y-55322880D01*
X113021380Y-55354880D01*
X113017380Y-55385880D01*
X113011380Y-55416880D01*
X113004380Y-55446880D01*
X112995380Y-55476880D01*
X112984380Y-55506880D01*
X112972380Y-55535880D01*
X112959380Y-55563880D01*
X112944380Y-55591880D01*
X112927380Y-55618880D01*
X112909380Y-55644880D01*
X112890380Y-55669880D01*
X112870380Y-55692880D01*
X112848380Y-55715880D01*
X112825380Y-55737880D01*
X112802380Y-55757880D01*
X112777380Y-55776880D01*
X112751380Y-55794880D01*
X112724380Y-55811880D01*
X112696380Y-55826880D01*
X112668380Y-55839880D01*
X112639380Y-55851880D01*
X112609380Y-55862880D01*
X112579380Y-55871880D01*
X112549380Y-55878880D01*
X112518380Y-55884880D01*
X112487380Y-55888880D01*
X112455380Y-55890880D01*
X112424380Y-55891880D01*
X112393380Y-55890880D01*
X112361380Y-55888880D01*
X112330380Y-55884880D01*
X112299380Y-55878880D01*
X112269380Y-55871880D01*
X112239380Y-55862880D01*
X112209380Y-55851880D01*
X112180380Y-55839880D01*
X112152380Y-55826880D01*
X112124380Y-55811880D01*
X112097380Y-55794880D01*
X112071380Y-55776880D01*
X112046380Y-55757880D01*
X112023380Y-55737880D01*
X112000380Y-55715880D01*
X111978380Y-55692880D01*
X111958380Y-55669880D01*
X111939380Y-55644880D01*
X111921380Y-55618880D01*
X111904380Y-55591880D01*
X111889380Y-55563880D01*
X111876380Y-55535880D01*
X111864380Y-55506880D01*
X111853380Y-55476880D01*
X111844380Y-55446880D01*
X111837380Y-55416880D01*
X111831380Y-55385880D01*
X111827380Y-55354880D01*
X111825380Y-55322880D01*
X111824380Y-55291880D01*
X111824380Y-54491880D01*
X111825380Y-54460880D01*
X111827380Y-54428880D01*
X111831380Y-54397880D01*
X111837380Y-54366880D01*
X111844380Y-54336880D01*
X111853380Y-54306880D01*
X111864380Y-54276880D01*
X111876380Y-54247880D01*
X111889380Y-54219880D01*
X111904380Y-54191880D01*
X111921380Y-54164880D01*
X111939380Y-54138880D01*
X111958380Y-54113880D01*
X111978380Y-54090880D01*
X112000380Y-54067880D01*
X112023380Y-54045880D01*
X112046380Y-54025880D01*
X112071380Y-54006880D01*
X112097380Y-53988880D01*
X112124380Y-53971880D01*
X112152380Y-53956880D01*
X112180380Y-53943880D01*
X112209380Y-53931880D01*
X112239380Y-53920880D01*
X112269380Y-53911880D01*
X112299380Y-53904880D01*
X112330380Y-53898880D01*
X112361380Y-53894880D01*
X112393380Y-53892880D01*
X112424380Y-53891880D01*
X112455380Y-53892880D01*
G37*
%TD*%
D11*
%TO.C,SW4*%
X111274380Y-83704380D03*
D12*
X108774380Y-83704380D03*
X106274380Y-83704380D03*
X111274380Y-80504380D03*
X108774380Y-80504380D03*
X106274380Y-80504380D03*
%TD*%
D13*
%TO.C,H2*%
X98059380Y-82434380D03*
%TD*%
%TO.C,H1*%
X98059380Y-59454380D03*
%TD*%
%TO.C,H3*%
X118589380Y-59404380D03*
%TD*%
D14*
%TO.C,SW2*%
X106349380Y-86954380D03*
X109749380Y-86954380D03*
%TD*%
D15*
%TO.C,J2*%
X95874380Y-76274380D03*
D16*
X95874380Y-73734380D03*
X95874380Y-71194380D03*
X95874380Y-68654380D03*
%TD*%
D13*
%TO.C,H4*%
X118589380Y-82434380D03*
%TD*%
D15*
%TO.C,J1*%
X112124380Y-58054380D03*
D16*
X109584380Y-58054380D03*
X107044380Y-58054380D03*
X104504380Y-58054380D03*
%TD*%
D14*
%TO.C,SW3*%
X115849380Y-86954380D03*
X119249380Y-86954380D03*
%TD*%
%TO.C,SW1*%
X96849380Y-86954380D03*
X100249380Y-86954380D03*
%TD*%
M02*
